<svg width="688" height="541" viewBox="0 0 688 541" fill="none" xmlns="http://www.w3.org/2000/svg">
<mask id="mask0" mask-type="alpha" maskUnits="userSpaceOnUse" x="0" y="0" width="688" height="541">
<rect x="0.446289" y="0.947998" width="686.721" height="539.905" fill="#C4C4C4"/>
</mask>
<g mask="url(#mask0)">
<path d="M41.9214 -93.6768H39.814L31.105 -114.345H33.2124L41.9214 -93.6768ZM57.6636 -91.2012H43.3687V-93.0293H57.6636V-91.2012ZM71.9585 -91.2012H57.6636V-93.0293H71.9585V-91.2012ZM127.691 -93.6768H125.583L116.875 -114.345H118.982L127.691 -93.6768ZM143.433 -91.2012H129.138V-93.0293H143.433V-91.2012ZM157.728 -91.2012H143.433V-93.0293H157.728V-91.2012ZM213.46 -93.6768H211.353L202.644 -114.345H204.751L213.46 -93.6768ZM229.203 -91.2012H214.908V-93.0293H229.203V-91.2012ZM243.498 -91.2012H229.203V-93.0293H243.498V-91.2012ZM299.23 -93.6768H297.123L288.414 -114.345H290.521L299.23 -93.6768ZM314.972 -91.2012H300.677V-93.0293H314.972V-91.2012ZM329.267 -91.2012H314.972V-93.0293H329.267V-91.2012ZM385 -93.6768H382.892L374.183 -114.345H376.291L385 -93.6768ZM400.742 -91.2012H386.447V-93.0293H400.742V-91.2012ZM415.037 -91.2012H400.742V-93.0293H415.037V-91.2012ZM470.769 -93.6768H468.662L459.953 -114.345H462.06L470.769 -93.6768ZM486.511 -91.2012H472.216V-93.0293H486.511V-91.2012ZM500.806 -91.2012H486.511V-93.0293H500.806V-91.2012ZM556.539 -93.6768H554.431L545.722 -114.345H547.83L556.539 -93.6768ZM572.281 -91.2012H557.986V-93.0293H572.281V-91.2012ZM586.576 -91.2012H572.281V-93.0293H586.576V-91.2012ZM642.308 -93.6768H640.201L631.492 -114.345H633.599L642.308 -93.6768ZM658.05 -91.2012H643.755V-93.0293H658.05V-91.2012ZM672.345 -91.2012H658.05V-93.0293H672.345V-91.2012ZM728.078 -93.6768H725.97L717.261 -114.345H719.369L728.078 -93.6768ZM743.82 -91.2012H729.525V-93.0293H743.82V-91.2012ZM758.115 -91.2012H743.82V-93.0293H758.115V-91.2012ZM813.847 -93.6768H811.74L803.031 -114.345H805.138L813.847 -93.6768ZM829.589 -91.2012H815.294V-93.0293H829.589V-91.2012ZM843.884 -91.2012H829.589V-93.0293H843.884V-91.2012ZM899.617 -93.6768H897.509L888.8 -114.345H890.908L899.617 -93.6768ZM915.359 -91.2012H901.064V-93.0293H915.359V-91.2012ZM929.654 -91.2012H915.359V-93.0293H929.654V-91.2012ZM985.386 -93.6768H983.279L974.57 -114.345H976.677L985.386 -93.6768ZM1001.13 -91.2012H986.833V-93.0293H1001.13V-91.2012ZM14.7788 -61.2012H0.483887V-63.0293H14.7788V-61.2012ZM29.0737 -61.2012H14.7788V-63.0293H29.0737V-61.2012ZM41.3501 -84.3447L32.6411 -63.6768H30.5337L39.2427 -84.3447H41.3501ZM84.8062 -63.6768H82.6987L73.9897 -84.3447H76.0972L84.8062 -63.6768ZM100.548 -61.2012H86.2534V-63.0293H100.548V-61.2012ZM114.843 -61.2012H100.548V-63.0293H114.843V-61.2012ZM127.12 -84.3447L118.411 -63.6768H116.303L125.012 -84.3447H127.12ZM170.576 -63.6768H168.468L159.759 -84.3447H161.867L170.576 -63.6768ZM186.318 -61.2012H172.023V-63.0293H186.318V-61.2012ZM200.613 -61.2012H186.318V-63.0293H200.613V-61.2012ZM212.889 -84.3447L204.18 -63.6768H202.073L210.782 -84.3447H212.889ZM256.345 -63.6768H254.238L245.529 -84.3447H247.636L256.345 -63.6768ZM272.087 -61.2012H257.792V-63.0293H272.087V-61.2012ZM286.382 -61.2012H272.087V-63.0293H286.382V-61.2012ZM298.659 -84.3447L289.95 -63.6768H287.842L296.551 -84.3447H298.659ZM342.115 -63.6768H340.007L331.298 -84.3447H333.406L342.115 -63.6768ZM357.857 -61.2012H343.562V-63.0293H357.857V-61.2012ZM372.152 -61.2012H357.857V-63.0293H372.152V-61.2012ZM384.428 -84.3447L375.719 -63.6768H373.612L382.321 -84.3447H384.428ZM427.884 -63.6768H425.777L417.068 -84.3447H419.175L427.884 -63.6768ZM443.626 -61.2012H429.332V-63.0293H443.626V-61.2012ZM457.921 -61.2012H443.626V-63.0293H457.921V-61.2012ZM470.198 -84.3447L461.489 -63.6768H459.381L468.09 -84.3447H470.198ZM513.654 -63.6768H511.546L502.837 -84.3447H504.945L513.654 -63.6768ZM529.396 -61.2012H515.101V-63.0293H529.396V-61.2012ZM543.691 -61.2012H529.396V-63.0293H543.691V-61.2012ZM555.967 -84.3447L547.258 -63.6768H545.151L553.86 -84.3447H555.967ZM599.423 -63.6768H597.316L588.607 -84.3447H590.714L599.423 -63.6768ZM615.166 -61.2012H600.871V-63.0293H615.166V-61.2012ZM629.46 -61.2012H615.166V-63.0293H629.46V-61.2012ZM641.737 -84.3447L633.028 -63.6768H630.92L639.629 -84.3447H641.737ZM685.193 -63.6768H683.085L674.376 -84.3447H676.484L685.193 -63.6768ZM700.935 -61.2012H686.64V-63.0293H700.935V-61.2012ZM715.23 -61.2012H700.935V-63.0293H715.23V-61.2012ZM727.506 -84.3447L718.797 -63.6768H716.69L725.399 -84.3447H727.506ZM770.962 -63.6768H768.855L760.146 -84.3447H762.253L770.962 -63.6768ZM786.705 -61.2012H772.41V-63.0293H786.705V-61.2012ZM801 -61.2012H786.705V-63.0293H801V-61.2012ZM813.276 -84.3447L804.567 -63.6768H802.459L811.168 -84.3447H813.276ZM856.732 -63.6768H854.625L845.916 -84.3447H848.023L856.732 -63.6768ZM872.474 -61.2012H858.179V-63.0293H872.474V-61.2012ZM886.769 -61.2012H872.474V-63.0293H886.769V-61.2012ZM899.045 -84.3447L890.336 -63.6768H888.229L896.938 -84.3447H899.045ZM942.501 -63.6768H940.394L931.685 -84.3447H933.792L942.501 -63.6768ZM958.244 -61.2012H943.949V-63.0293H958.244V-61.2012ZM972.539 -61.2012H958.244V-63.0293H972.539V-61.2012ZM984.815 -84.3447L976.106 -63.6768H973.999L982.708 -84.3447H984.815ZM41.9214 -33.6768H39.814L31.105 -54.3447H33.2124L41.9214 -33.6768ZM127.691 -33.6768H125.583L116.875 -54.3447H118.982L127.691 -33.6768ZM213.46 -33.6768H211.353L202.644 -54.3447H204.751L213.46 -33.6768ZM299.23 -33.6768H297.123L288.414 -54.3447H290.521L299.23 -33.6768ZM385 -33.6768H382.892L374.183 -54.3447H376.291L385 -33.6768ZM470.769 -33.6768H468.662L459.953 -54.3447H462.06L470.769 -33.6768ZM556.539 -33.6768H554.431L545.722 -54.3447H547.83L556.539 -33.6768ZM642.308 -33.6768H640.201L631.492 -54.3447H633.599L642.308 -33.6768ZM728.078 -33.6768H725.97L717.261 -54.3447H719.369L728.078 -33.6768ZM813.847 -33.6768H811.74L803.031 -54.3447H805.138L813.847 -33.6768ZM899.617 -33.6768H897.509L888.8 -54.3447H890.908L899.617 -33.6768ZM985.386 -33.6768H983.279L974.57 -54.3447H976.677L985.386 -33.6768ZM14.7788 -1.20117H0.483887V-3.0293H14.7788V-1.20117ZM29.0737 -1.20117H14.7788V-3.0293H29.0737V-1.20117ZM41.3501 -24.3447L32.6411 -3.67676H30.5337L39.2427 -24.3447H41.3501ZM100.548 -1.20117H86.2534V-3.0293H100.548V-1.20117ZM114.843 -1.20117H100.548V-3.0293H114.843V-1.20117ZM127.12 -24.3447L118.411 -3.67676H116.303L125.012 -24.3447H127.12ZM186.318 -1.20117H172.023V-3.0293H186.318V-1.20117ZM200.613 -1.20117H186.318V-3.0293H200.613V-1.20117ZM212.889 -24.3447L204.18 -3.67676H202.073L210.782 -24.3447H212.889ZM272.087 -1.20117H257.792V-3.0293H272.087V-1.20117ZM286.382 -1.20117H272.087V-3.0293H286.382V-1.20117ZM298.659 -24.3447L289.95 -3.67676H287.842L296.551 -24.3447H298.659ZM357.857 -1.20117H343.562V-3.0293H357.857V-1.20117ZM372.152 -1.20117H357.857V-3.0293H372.152V-1.20117ZM384.428 -24.3447L375.719 -3.67676H373.612L382.321 -24.3447H384.428ZM443.626 -1.20117H429.332V-3.0293H443.626V-1.20117ZM457.921 -1.20117H443.626V-3.0293H457.921V-1.20117ZM470.198 -24.3447L461.489 -3.67676H459.381L468.09 -24.3447H470.198ZM529.396 -1.20117H515.101V-3.0293H529.396V-1.20117ZM543.691 -1.20117H529.396V-3.0293H543.691V-1.20117ZM555.967 -24.3447L547.258 -3.67676H545.151L553.86 -24.3447H555.967ZM615.166 -1.20117H600.871V-3.0293H615.166V-1.20117ZM629.46 -1.20117H615.166V-3.0293H629.46V-1.20117ZM641.737 -24.3447L633.028 -3.67676H630.92L639.629 -24.3447H641.737ZM700.935 -1.20117H686.64V-3.0293H700.935V-1.20117ZM715.23 -1.20117H700.935V-3.0293H715.23V-1.20117ZM727.506 -24.3447L718.797 -3.67676H716.69L725.399 -24.3447H727.506ZM786.705 -1.20117H772.41V-3.0293H786.705V-1.20117ZM801 -1.20117H786.705V-3.0293H801V-1.20117ZM813.276 -24.3447L804.567 -3.67676H802.459L811.168 -24.3447H813.276ZM872.474 -1.20117H858.179V-3.0293H872.474V-1.20117ZM886.769 -1.20117H872.474V-3.0293H886.769V-1.20117ZM899.045 -24.3447L890.336 -3.67676H888.229L896.938 -24.3447H899.045ZM958.244 -1.20117H943.949V-3.0293H958.244V-1.20117ZM972.539 -1.20117H958.244V-3.0293H972.539V-1.20117ZM984.815 -24.3447L976.106 -3.67676H973.999L982.708 -24.3447H984.815ZM41.9214 26.3232H39.814L31.105 5.65527H33.2124L41.9214 26.3232ZM57.6636 28.7988H43.3687V26.9707H57.6636V28.7988ZM71.9585 28.7988H57.6636V26.9707H71.9585V28.7988ZM84.2349 5.65527L75.5259 26.3232H73.4185L82.1274 5.65527H84.2349ZM127.691 26.3232H125.583L116.875 5.65527H118.982L127.691 26.3232ZM143.433 28.7988H129.138V26.9707H143.433V28.7988ZM157.728 28.7988H143.433V26.9707H157.728V28.7988ZM170.004 5.65527L161.295 26.3232H159.188L167.897 5.65527H170.004ZM213.46 26.3232H211.353L202.644 5.65527H204.751L213.46 26.3232ZM229.203 28.7988H214.908V26.9707H229.203V28.7988ZM243.498 28.7988H229.203V26.9707H243.498V28.7988ZM255.774 5.65527L247.065 26.3232H244.958L253.667 5.65527H255.774ZM299.23 26.3232H297.123L288.414 5.65527H290.521L299.23 26.3232ZM314.972 28.7988H300.677V26.9707H314.972V28.7988ZM329.267 28.7988H314.972V26.9707H329.267V28.7988ZM341.543 5.65527L332.834 26.3232H330.727L339.436 5.65527H341.543ZM385 26.3232H382.892L374.183 5.65527H376.291L385 26.3232ZM400.742 28.7988H386.447V26.9707H400.742V28.7988ZM415.037 28.7988H400.742V26.9707H415.037V28.7988ZM427.313 5.65527L418.604 26.3232H416.497L425.206 5.65527H427.313ZM470.769 26.3232H468.662L459.953 5.65527H462.06L470.769 26.3232ZM486.511 28.7988H472.216V26.9707H486.511V28.7988ZM500.806 28.7988H486.511V26.9707H500.806V28.7988ZM513.083 5.65527L504.374 26.3232H502.266L510.975 5.65527H513.083ZM556.539 26.3232H554.431L545.722 5.65527H547.83L556.539 26.3232ZM572.281 28.7988H557.986V26.9707H572.281V28.7988ZM586.576 28.7988H572.281V26.9707H586.576V28.7988ZM598.852 5.65527L590.143 26.3232H588.036L596.745 5.65527H598.852ZM642.308 26.3232H640.201L631.492 5.65527H633.599L642.308 26.3232ZM658.05 28.7988H643.755V26.9707H658.05V28.7988ZM672.345 28.7988H658.05V26.9707H672.345V28.7988ZM684.622 5.65527L675.913 26.3232H673.805L682.514 5.65527H684.622ZM728.078 26.3232H725.97L717.261 5.65527H719.369L728.078 26.3232ZM743.82 28.7988H729.525V26.9707H743.82V28.7988ZM758.115 28.7988H743.82V26.9707H758.115V28.7988ZM770.391 5.65527L761.682 26.3232H759.575L768.284 5.65527H770.391ZM813.847 26.3232H811.74L803.031 5.65527H805.138L813.847 26.3232ZM829.589 28.7988H815.294V26.9707H829.589V28.7988ZM843.884 28.7988H829.589V26.9707H843.884V28.7988ZM856.161 5.65527L847.452 26.3232H845.344L854.053 5.65527H856.161ZM899.617 26.3232H897.509L888.8 5.65527H890.908L899.617 26.3232ZM915.359 28.7988H901.064V26.9707H915.359V28.7988ZM929.654 28.7988H915.359V26.9707H929.654V28.7988ZM941.93 5.65527L933.221 26.3232H931.114L939.823 5.65527H941.93ZM985.386 26.3232H983.279L974.57 5.65527H976.677L985.386 26.3232ZM1001.13 28.7988H986.833V26.9707H1001.13V28.7988ZM14.7788 58.7988H0.483887V56.9707H14.7788V58.7988ZM29.0737 58.7988H14.7788V56.9707H29.0737V58.7988ZM41.3501 35.6553L32.6411 56.3232H30.5337L39.2427 35.6553H41.3501ZM127.12 35.6553L118.411 56.3232H116.303L125.012 35.6553H127.12ZM212.889 35.6553L204.18 56.3232H202.073L210.782 35.6553H212.889ZM298.659 35.6553L289.95 56.3232H287.842L296.551 35.6553H298.659ZM384.428 35.6553L375.719 56.3232H373.612L382.321 35.6553H384.428ZM470.198 35.6553L461.489 56.3232H459.381L468.09 35.6553H470.198ZM555.967 35.6553L547.258 56.3232H545.151L553.86 35.6553H555.967ZM641.737 35.6553L633.028 56.3232H630.92L639.629 35.6553H641.737ZM727.506 35.6553L718.797 56.3232H716.69L725.399 35.6553H727.506ZM813.276 35.6553L804.567 56.3232H802.459L811.168 35.6553H813.276ZM899.045 35.6553L890.336 56.3232H888.229L896.938 35.6553H899.045ZM984.815 35.6553L976.106 56.3232H973.999L982.708 35.6553H984.815ZM41.9214 86.3232H39.814L31.105 65.6553H33.2124L41.9214 86.3232ZM57.6636 88.7988H43.3687V86.9707H57.6636V88.7988ZM71.9585 88.7988H57.6636V86.9707H71.9585V88.7988ZM127.691 86.3232H125.583L116.875 65.6553H118.982L127.691 86.3232ZM143.433 88.7988H129.138V86.9707H143.433V88.7988ZM157.728 88.7988H143.433V86.9707H157.728V88.7988ZM213.46 86.3232H211.353L202.644 65.6553H204.751L213.46 86.3232ZM229.203 88.7988H214.908V86.9707H229.203V88.7988ZM243.498 88.7988H229.203V86.9707H243.498V88.7988ZM299.23 86.3232H297.123L288.414 65.6553H290.521L299.23 86.3232ZM314.972 88.7988H300.677V86.9707H314.972V88.7988ZM329.267 88.7988H314.972V86.9707H329.267V88.7988ZM385 86.3232H382.892L374.183 65.6553H376.291L385 86.3232ZM400.742 88.7988H386.447V86.9707H400.742V88.7988ZM415.037 88.7988H400.742V86.9707H415.037V88.7988ZM470.769 86.3232H468.662L459.953 65.6553H462.06L470.769 86.3232ZM486.511 88.7988H472.216V86.9707H486.511V88.7988ZM500.806 88.7988H486.511V86.9707H500.806V88.7988ZM556.539 86.3232H554.431L545.722 65.6553H547.83L556.539 86.3232ZM572.281 88.7988H557.986V86.9707H572.281V88.7988ZM586.576 88.7988H572.281V86.9707H586.576V88.7988ZM642.308 86.3232H640.201L631.492 65.6553H633.599L642.308 86.3232ZM658.05 88.7988H643.755V86.9707H658.05V88.7988ZM672.345 88.7988H658.05V86.9707H672.345V88.7988ZM728.078 86.3232H725.97L717.261 65.6553H719.369L728.078 86.3232ZM743.82 88.7988H729.525V86.9707H743.82V88.7988ZM758.115 88.7988H743.82V86.9707H758.115V88.7988ZM813.847 86.3232H811.74L803.031 65.6553H805.138L813.847 86.3232ZM829.589 88.7988H815.294V86.9707H829.589V88.7988ZM843.884 88.7988H829.589V86.9707H843.884V88.7988ZM899.617 86.3232H897.509L888.8 65.6553H890.908L899.617 86.3232ZM915.359 88.7988H901.064V86.9707H915.359V88.7988ZM929.654 88.7988H915.359V86.9707H929.654V88.7988ZM985.386 86.3232H983.279L974.57 65.6553H976.677L985.386 86.3232ZM1001.13 88.7988H986.833V86.9707H1001.13V88.7988ZM14.7788 118.799H0.483887V116.971H14.7788V118.799ZM29.0737 118.799H14.7788V116.971H29.0737V118.799ZM41.3501 95.6553L32.6411 116.323H30.5337L39.2427 95.6553H41.3501ZM84.8062 116.323H82.6987L73.9897 95.6553H76.0972L84.8062 116.323ZM100.548 118.799H86.2534V116.971H100.548V118.799ZM114.843 118.799H100.548V116.971H114.843V118.799ZM127.12 95.6553L118.411 116.323H116.303L125.012 95.6553H127.12ZM170.576 116.323H168.468L159.759 95.6553H161.867L170.576 116.323ZM186.318 118.799H172.023V116.971H186.318V118.799ZM200.613 118.799H186.318V116.971H200.613V118.799ZM212.889 95.6553L204.18 116.323H202.073L210.782 95.6553H212.889ZM256.345 116.323H254.238L245.529 95.6553H247.636L256.345 116.323ZM272.087 118.799H257.792V116.971H272.087V118.799ZM286.382 118.799H272.087V116.971H286.382V118.799ZM298.659 95.6553L289.95 116.323H287.842L296.551 95.6553H298.659ZM342.115 116.323H340.007L331.298 95.6553H333.406L342.115 116.323ZM357.857 118.799H343.562V116.971H357.857V118.799ZM372.152 118.799H357.857V116.971H372.152V118.799ZM384.428 95.6553L375.719 116.323H373.612L382.321 95.6553H384.428ZM427.884 116.323H425.777L417.068 95.6553H419.175L427.884 116.323ZM443.626 118.799H429.332V116.971H443.626V118.799ZM457.921 118.799H443.626V116.971H457.921V118.799ZM470.198 95.6553L461.489 116.323H459.381L468.09 95.6553H470.198ZM513.654 116.323H511.546L502.837 95.6553H504.945L513.654 116.323ZM529.396 118.799H515.101V116.971H529.396V118.799ZM543.691 118.799H529.396V116.971H543.691V118.799ZM555.967 95.6553L547.258 116.323H545.151L553.86 95.6553H555.967ZM599.423 116.323H597.316L588.607 95.6553H590.714L599.423 116.323ZM615.166 118.799H600.871V116.971H615.166V118.799ZM629.46 118.799H615.166V116.971H629.46V118.799ZM641.737 95.6553L633.028 116.323H630.92L639.629 95.6553H641.737ZM685.193 116.323H683.085L674.376 95.6553H676.484L685.193 116.323ZM700.935 118.799H686.64V116.971H700.935V118.799ZM715.23 118.799H700.935V116.971H715.23V118.799ZM727.506 95.6553L718.797 116.323H716.69L725.399 95.6553H727.506ZM770.962 116.323H768.855L760.146 95.6553H762.253L770.962 116.323ZM786.705 118.799H772.41V116.971H786.705V118.799ZM801 118.799H786.705V116.971H801V118.799ZM813.276 95.6553L804.567 116.323H802.459L811.168 95.6553H813.276ZM856.732 116.323H854.625L845.916 95.6553H848.023L856.732 116.323ZM872.474 118.799H858.179V116.971H872.474V118.799ZM886.769 118.799H872.474V116.971H886.769V118.799ZM899.045 95.6553L890.336 116.323H888.229L896.938 95.6553H899.045ZM942.501 116.323H940.394L931.685 95.6553H933.792L942.501 116.323ZM958.244 118.799H943.949V116.971H958.244V118.799ZM972.539 118.799H958.244V116.971H972.539V118.799ZM984.815 95.6553L976.106 116.323H973.999L982.708 95.6553H984.815ZM41.9214 146.323H39.814L31.105 125.655H33.2124L41.9214 146.323ZM127.691 146.323H125.583L116.875 125.655H118.982L127.691 146.323ZM213.46 146.323H211.353L202.644 125.655H204.751L213.46 146.323ZM299.23 146.323H297.123L288.414 125.655H290.521L299.23 146.323ZM385 146.323H382.892L374.183 125.655H376.291L385 146.323ZM470.769 146.323H468.662L459.953 125.655H462.06L470.769 146.323ZM556.539 146.323H554.431L545.722 125.655H547.83L556.539 146.323ZM642.308 146.323H640.201L631.492 125.655H633.599L642.308 146.323ZM728.078 146.323H725.97L717.261 125.655H719.369L728.078 146.323ZM813.847 146.323H811.74L803.031 125.655H805.138L813.847 146.323ZM899.617 146.323H897.509L888.8 125.655H890.908L899.617 146.323ZM985.386 146.323H983.279L974.57 125.655H976.677L985.386 146.323ZM14.7788 178.799H0.483887V176.971H14.7788V178.799ZM29.0737 178.799H14.7788V176.971H29.0737V178.799ZM41.3501 155.655L32.6411 176.323H30.5337L39.2427 155.655H41.3501ZM100.548 178.799H86.2534V176.971H100.548V178.799ZM114.843 178.799H100.548V176.971H114.843V178.799ZM127.12 155.655L118.411 176.323H116.303L125.012 155.655H127.12ZM186.318 178.799H172.023V176.971H186.318V178.799ZM200.613 178.799H186.318V176.971H200.613V178.799ZM212.889 155.655L204.18 176.323H202.073L210.782 155.655H212.889ZM272.087 178.799H257.792V176.971H272.087V178.799ZM286.382 178.799H272.087V176.971H286.382V178.799ZM298.659 155.655L289.95 176.323H287.842L296.551 155.655H298.659ZM357.857 178.799H343.562V176.971H357.857V178.799ZM372.152 178.799H357.857V176.971H372.152V178.799ZM384.428 155.655L375.719 176.323H373.612L382.321 155.655H384.428ZM443.626 178.799H429.332V176.971H443.626V178.799ZM457.921 178.799H443.626V176.971H457.921V178.799ZM470.198 155.655L461.489 176.323H459.381L468.09 155.655H470.198ZM529.396 178.799H515.101V176.971H529.396V178.799ZM543.691 178.799H529.396V176.971H543.691V178.799ZM555.967 155.655L547.258 176.323H545.151L553.86 155.655H555.967ZM615.166 178.799H600.871V176.971H615.166V178.799ZM629.46 178.799H615.166V176.971H629.46V178.799ZM641.737 155.655L633.028 176.323H630.92L639.629 155.655H641.737ZM700.935 178.799H686.64V176.971H700.935V178.799ZM715.23 178.799H700.935V176.971H715.23V178.799ZM727.506 155.655L718.797 176.323H716.69L725.399 155.655H727.506ZM786.705 178.799H772.41V176.971H786.705V178.799ZM801 178.799H786.705V176.971H801V178.799ZM813.276 155.655L804.567 176.323H802.459L811.168 155.655H813.276ZM872.474 178.799H858.179V176.971H872.474V178.799ZM886.769 178.799H872.474V176.971H886.769V178.799ZM899.045 155.655L890.336 176.323H888.229L896.938 155.655H899.045ZM958.244 178.799H943.949V176.971H958.244V178.799ZM972.539 178.799H958.244V176.971H972.539V178.799ZM984.815 155.655L976.106 176.323H973.999L982.708 155.655H984.815ZM41.9214 206.323H39.814L31.105 185.655H33.2124L41.9214 206.323ZM57.6636 208.799H43.3687V206.971H57.6636V208.799ZM71.9585 208.799H57.6636V206.971H71.9585V208.799ZM84.2349 185.655L75.5259 206.323H73.4185L82.1274 185.655H84.2349ZM127.691 206.323H125.583L116.875 185.655H118.982L127.691 206.323ZM143.433 208.799H129.138V206.971H143.433V208.799ZM157.728 208.799H143.433V206.971H157.728V208.799ZM170.004 185.655L161.295 206.323H159.188L167.897 185.655H170.004ZM213.46 206.323H211.353L202.644 185.655H204.751L213.46 206.323ZM229.203 208.799H214.908V206.971H229.203V208.799ZM243.498 208.799H229.203V206.971H243.498V208.799ZM255.774 185.655L247.065 206.323H244.958L253.667 185.655H255.774ZM299.23 206.323H297.123L288.414 185.655H290.521L299.23 206.323ZM314.972 208.799H300.677V206.971H314.972V208.799ZM329.267 208.799H314.972V206.971H329.267V208.799ZM341.543 185.655L332.834 206.323H330.727L339.436 185.655H341.543ZM385 206.323H382.892L374.183 185.655H376.291L385 206.323ZM400.742 208.799H386.447V206.971H400.742V208.799ZM415.037 208.799H400.742V206.971H415.037V208.799ZM427.313 185.655L418.604 206.323H416.497L425.206 185.655H427.313ZM470.769 206.323H468.662L459.953 185.655H462.06L470.769 206.323ZM486.511 208.799H472.216V206.971H486.511V208.799ZM500.806 208.799H486.511V206.971H500.806V208.799ZM513.083 185.655L504.374 206.323H502.266L510.975 185.655H513.083ZM556.539 206.323H554.431L545.722 185.655H547.83L556.539 206.323ZM572.281 208.799H557.986V206.971H572.281V208.799ZM586.576 208.799H572.281V206.971H586.576V208.799ZM598.852 185.655L590.143 206.323H588.036L596.745 185.655H598.852ZM642.308 206.323H640.201L631.492 185.655H633.599L642.308 206.323ZM658.05 208.799H643.755V206.971H658.05V208.799ZM672.345 208.799H658.05V206.971H672.345V208.799ZM684.622 185.655L675.913 206.323H673.805L682.514 185.655H684.622ZM728.078 206.323H725.97L717.261 185.655H719.369L728.078 206.323ZM743.82 208.799H729.525V206.971H743.82V208.799ZM758.115 208.799H743.82V206.971H758.115V208.799ZM770.391 185.655L761.682 206.323H759.575L768.284 185.655H770.391ZM813.847 206.323H811.74L803.031 185.655H805.138L813.847 206.323ZM829.589 208.799H815.294V206.971H829.589V208.799ZM843.884 208.799H829.589V206.971H843.884V208.799ZM856.161 185.655L847.452 206.323H845.344L854.053 185.655H856.161ZM899.617 206.323H897.509L888.8 185.655H890.908L899.617 206.323ZM915.359 208.799H901.064V206.971H915.359V208.799ZM929.654 208.799H915.359V206.971H929.654V208.799ZM941.93 185.655L933.221 206.323H931.114L939.823 185.655H941.93ZM985.386 206.323H983.279L974.57 185.655H976.677L985.386 206.323ZM1001.13 208.799H986.833V206.971H1001.13V208.799ZM14.7788 238.799H0.483887V236.971H14.7788V238.799ZM29.0737 238.799H14.7788V236.971H29.0737V238.799ZM41.3501 215.655L32.6411 236.323H30.5337L39.2427 215.655H41.3501ZM127.12 215.655L118.411 236.323H116.303L125.012 215.655H127.12ZM212.889 215.655L204.18 236.323H202.073L210.782 215.655H212.889ZM298.659 215.655L289.95 236.323H287.842L296.551 215.655H298.659ZM384.428 215.655L375.719 236.323H373.612L382.321 215.655H384.428ZM470.198 215.655L461.489 236.323H459.381L468.09 215.655H470.198ZM555.967 215.655L547.258 236.323H545.151L553.86 215.655H555.967ZM641.737 215.655L633.028 236.323H630.92L639.629 215.655H641.737ZM727.506 215.655L718.797 236.323H716.69L725.399 215.655H727.506ZM813.276 215.655L804.567 236.323H802.459L811.168 215.655H813.276ZM899.045 215.655L890.336 236.323H888.229L896.938 215.655H899.045ZM984.815 215.655L976.106 236.323H973.999L982.708 215.655H984.815ZM41.9214 266.323H39.814L31.105 245.655H33.2124L41.9214 266.323ZM57.6636 268.799H43.3687V266.971H57.6636V268.799ZM71.9585 268.799H57.6636V266.971H71.9585V268.799ZM127.691 266.323H125.583L116.875 245.655H118.982L127.691 266.323ZM143.433 268.799H129.138V266.971H143.433V268.799ZM157.728 268.799H143.433V266.971H157.728V268.799ZM213.46 266.323H211.353L202.644 245.655H204.751L213.46 266.323ZM229.203 268.799H214.908V266.971H229.203V268.799ZM243.498 268.799H229.203V266.971H243.498V268.799ZM299.23 266.323H297.123L288.414 245.655H290.521L299.23 266.323ZM314.972 268.799H300.677V266.971H314.972V268.799ZM329.267 268.799H314.972V266.971H329.267V268.799ZM385 266.323H382.892L374.183 245.655H376.291L385 266.323ZM400.742 268.799H386.447V266.971H400.742V268.799ZM415.037 268.799H400.742V266.971H415.037V268.799ZM470.769 266.323H468.662L459.953 245.655H462.06L470.769 266.323ZM486.511 268.799H472.216V266.971H486.511V268.799ZM500.806 268.799H486.511V266.971H500.806V268.799ZM556.539 266.323H554.431L545.722 245.655H547.83L556.539 266.323ZM572.281 268.799H557.986V266.971H572.281V268.799ZM586.576 268.799H572.281V266.971H586.576V268.799ZM642.308 266.323H640.201L631.492 245.655H633.599L642.308 266.323ZM658.05 268.799H643.755V266.971H658.05V268.799ZM672.345 268.799H658.05V266.971H672.345V268.799ZM728.078 266.323H725.97L717.261 245.655H719.369L728.078 266.323ZM743.82 268.799H729.525V266.971H743.82V268.799ZM758.115 268.799H743.82V266.971H758.115V268.799ZM813.847 266.323H811.74L803.031 245.655H805.138L813.847 266.323ZM829.589 268.799H815.294V266.971H829.589V268.799ZM843.884 268.799H829.589V266.971H843.884V268.799ZM899.617 266.323H897.509L888.8 245.655H890.908L899.617 266.323ZM915.359 268.799H901.064V266.971H915.359V268.799ZM929.654 268.799H915.359V266.971H929.654V268.799ZM985.386 266.323H983.279L974.57 245.655H976.677L985.386 266.323ZM1001.13 268.799H986.833V266.971H1001.13V268.799ZM14.7788 298.799H0.483887V296.971H14.7788V298.799ZM29.0737 298.799H14.7788V296.971H29.0737V298.799ZM41.3501 275.655L32.6411 296.323H30.5337L39.2427 275.655H41.3501ZM84.8062 296.323H82.6987L73.9897 275.655H76.0972L84.8062 296.323ZM100.548 298.799H86.2534V296.971H100.548V298.799ZM114.843 298.799H100.548V296.971H114.843V298.799ZM127.12 275.655L118.411 296.323H116.303L125.012 275.655H127.12ZM170.576 296.323H168.468L159.759 275.655H161.867L170.576 296.323ZM186.318 298.799H172.023V296.971H186.318V298.799ZM200.613 298.799H186.318V296.971H200.613V298.799ZM212.889 275.655L204.18 296.323H202.073L210.782 275.655H212.889ZM256.345 296.323H254.238L245.529 275.655H247.636L256.345 296.323ZM272.087 298.799H257.792V296.971H272.087V298.799ZM286.382 298.799H272.087V296.971H286.382V298.799ZM298.659 275.655L289.95 296.323H287.842L296.551 275.655H298.659ZM342.115 296.323H340.007L331.298 275.655H333.406L342.115 296.323ZM357.857 298.799H343.562V296.971H357.857V298.799ZM372.152 298.799H357.857V296.971H372.152V298.799ZM384.428 275.655L375.719 296.323H373.612L382.321 275.655H384.428ZM427.884 296.323H425.777L417.068 275.655H419.175L427.884 296.323ZM443.626 298.799H429.332V296.971H443.626V298.799ZM457.921 298.799H443.626V296.971H457.921V298.799ZM470.198 275.655L461.489 296.323H459.381L468.09 275.655H470.198ZM513.654 296.323H511.546L502.837 275.655H504.945L513.654 296.323ZM529.396 298.799H515.101V296.971H529.396V298.799ZM543.691 298.799H529.396V296.971H543.691V298.799ZM555.967 275.655L547.258 296.323H545.151L553.86 275.655H555.967ZM599.423 296.323H597.316L588.607 275.655H590.714L599.423 296.323ZM615.166 298.799H600.871V296.971H615.166V298.799ZM629.46 298.799H615.166V296.971H629.46V298.799ZM641.737 275.655L633.028 296.323H630.92L639.629 275.655H641.737ZM685.193 296.323H683.085L674.376 275.655H676.484L685.193 296.323ZM700.935 298.799H686.64V296.971H700.935V298.799ZM715.23 298.799H700.935V296.971H715.23V298.799ZM727.506 275.655L718.797 296.323H716.69L725.399 275.655H727.506ZM770.962 296.323H768.855L760.146 275.655H762.253L770.962 296.323ZM786.705 298.799H772.41V296.971H786.705V298.799ZM801 298.799H786.705V296.971H801V298.799ZM813.276 275.655L804.567 296.323H802.459L811.168 275.655H813.276ZM856.732 296.323H854.625L845.916 275.655H848.023L856.732 296.323ZM872.474 298.799H858.179V296.971H872.474V298.799ZM886.769 298.799H872.474V296.971H886.769V298.799ZM899.045 275.655L890.336 296.323H888.229L896.938 275.655H899.045ZM942.501 296.323H940.394L931.685 275.655H933.792L942.501 296.323ZM958.244 298.799H943.949V296.971H958.244V298.799ZM972.539 298.799H958.244V296.971H972.539V298.799ZM984.815 275.655L976.106 296.323H973.999L982.708 275.655H984.815ZM41.9214 326.323H39.814L31.105 305.655H33.2124L41.9214 326.323ZM127.691 326.323H125.583L116.875 305.655H118.982L127.691 326.323ZM213.46 326.323H211.353L202.644 305.655H204.751L213.46 326.323ZM299.23 326.323H297.123L288.414 305.655H290.521L299.23 326.323ZM385 326.323H382.892L374.183 305.655H376.291L385 326.323ZM470.769 326.323H468.662L459.953 305.655H462.06L470.769 326.323ZM556.539 326.323H554.431L545.722 305.655H547.83L556.539 326.323ZM642.308 326.323H640.201L631.492 305.655H633.599L642.308 326.323ZM728.078 326.323H725.97L717.261 305.655H719.369L728.078 326.323ZM813.847 326.323H811.74L803.031 305.655H805.138L813.847 326.323ZM899.617 326.323H897.509L888.8 305.655H890.908L899.617 326.323ZM985.386 326.323H983.279L974.57 305.655H976.677L985.386 326.323ZM14.7788 358.799H0.483887V356.971H14.7788V358.799ZM29.0737 358.799H14.7788V356.971H29.0737V358.799ZM41.3501 335.655L32.6411 356.323H30.5337L39.2427 335.655H41.3501ZM100.548 358.799H86.2534V356.971H100.548V358.799ZM114.843 358.799H100.548V356.971H114.843V358.799ZM127.12 335.655L118.411 356.323H116.303L125.012 335.655H127.12ZM186.318 358.799H172.023V356.971H186.318V358.799ZM200.613 358.799H186.318V356.971H200.613V358.799ZM212.889 335.655L204.18 356.323H202.073L210.782 335.655H212.889ZM272.087 358.799H257.792V356.971H272.087V358.799ZM286.382 358.799H272.087V356.971H286.382V358.799ZM298.659 335.655L289.95 356.323H287.842L296.551 335.655H298.659ZM357.857 358.799H343.562V356.971H357.857V358.799ZM372.152 358.799H357.857V356.971H372.152V358.799ZM384.428 335.655L375.719 356.323H373.612L382.321 335.655H384.428ZM443.626 358.799H429.332V356.971H443.626V358.799ZM457.921 358.799H443.626V356.971H457.921V358.799ZM470.198 335.655L461.489 356.323H459.381L468.09 335.655H470.198ZM529.396 358.799H515.101V356.971H529.396V358.799ZM543.691 358.799H529.396V356.971H543.691V358.799ZM555.967 335.655L547.258 356.323H545.151L553.86 335.655H555.967ZM615.166 358.799H600.871V356.971H615.166V358.799ZM629.46 358.799H615.166V356.971H629.46V358.799ZM641.737 335.655L633.028 356.323H630.92L639.629 335.655H641.737ZM700.935 358.799H686.64V356.971H700.935V358.799ZM715.23 358.799H700.935V356.971H715.23V358.799ZM727.506 335.655L718.797 356.323H716.69L725.399 335.655H727.506ZM786.705 358.799H772.41V356.971H786.705V358.799ZM801 358.799H786.705V356.971H801V358.799ZM813.276 335.655L804.567 356.323H802.459L811.168 335.655H813.276ZM872.474 358.799H858.179V356.971H872.474V358.799ZM886.769 358.799H872.474V356.971H886.769V358.799ZM899.045 335.655L890.336 356.323H888.229L896.938 335.655H899.045ZM958.244 358.799H943.949V356.971H958.244V358.799ZM972.539 358.799H958.244V356.971H972.539V358.799ZM984.815 335.655L976.106 356.323H973.999L982.708 335.655H984.815ZM41.9214 386.323H39.814L31.105 365.655H33.2124L41.9214 386.323ZM57.6636 388.799H43.3687V386.971H57.6636V388.799ZM71.9585 388.799H57.6636V386.971H71.9585V388.799ZM84.2349 365.655L75.5259 386.323H73.4185L82.1274 365.655H84.2349ZM127.691 386.323H125.583L116.875 365.655H118.982L127.691 386.323ZM143.433 388.799H129.138V386.971H143.433V388.799ZM157.728 388.799H143.433V386.971H157.728V388.799ZM170.004 365.655L161.295 386.323H159.188L167.897 365.655H170.004ZM213.46 386.323H211.353L202.644 365.655H204.751L213.46 386.323ZM229.203 388.799H214.908V386.971H229.203V388.799ZM243.498 388.799H229.203V386.971H243.498V388.799ZM255.774 365.655L247.065 386.323H244.958L253.667 365.655H255.774ZM299.23 386.323H297.123L288.414 365.655H290.521L299.23 386.323ZM314.972 388.799H300.677V386.971H314.972V388.799ZM329.267 388.799H314.972V386.971H329.267V388.799ZM341.543 365.655L332.834 386.323H330.727L339.436 365.655H341.543ZM385 386.323H382.892L374.183 365.655H376.291L385 386.323ZM400.742 388.799H386.447V386.971H400.742V388.799ZM415.037 388.799H400.742V386.971H415.037V388.799ZM427.313 365.655L418.604 386.323H416.497L425.206 365.655H427.313ZM470.769 386.323H468.662L459.953 365.655H462.06L470.769 386.323ZM486.511 388.799H472.216V386.971H486.511V388.799ZM500.806 388.799H486.511V386.971H500.806V388.799ZM513.083 365.655L504.374 386.323H502.266L510.975 365.655H513.083ZM556.539 386.323H554.431L545.722 365.655H547.83L556.539 386.323ZM572.281 388.799H557.986V386.971H572.281V388.799ZM586.576 388.799H572.281V386.971H586.576V388.799ZM598.852 365.655L590.143 386.323H588.036L596.745 365.655H598.852ZM642.308 386.323H640.201L631.492 365.655H633.599L642.308 386.323ZM658.05 388.799H643.755V386.971H658.05V388.799ZM672.345 388.799H658.05V386.971H672.345V388.799ZM684.622 365.655L675.913 386.323H673.805L682.514 365.655H684.622ZM728.078 386.323H725.97L717.261 365.655H719.369L728.078 386.323ZM743.82 388.799H729.525V386.971H743.82V388.799ZM758.115 388.799H743.82V386.971H758.115V388.799ZM770.391 365.655L761.682 386.323H759.575L768.284 365.655H770.391ZM813.847 386.323H811.74L803.031 365.655H805.138L813.847 386.323ZM829.589 388.799H815.294V386.971H829.589V388.799ZM843.884 388.799H829.589V386.971H843.884V388.799ZM856.161 365.655L847.452 386.323H845.344L854.053 365.655H856.161ZM899.617 386.323H897.509L888.8 365.655H890.908L899.617 386.323ZM915.359 388.799H901.064V386.971H915.359V388.799ZM929.654 388.799H915.359V386.971H929.654V388.799ZM941.93 365.655L933.221 386.323H931.114L939.823 365.655H941.93ZM985.386 386.323H983.279L974.57 365.655H976.677L985.386 386.323ZM1001.13 388.799H986.833V386.971H1001.13V388.799ZM14.7788 418.799H0.483887V416.971H14.7788V418.799ZM29.0737 418.799H14.7788V416.971H29.0737V418.799ZM41.3501 395.655L32.6411 416.323H30.5337L39.2427 395.655H41.3501ZM127.12 395.655L118.411 416.323H116.303L125.012 395.655H127.12ZM212.889 395.655L204.18 416.323H202.073L210.782 395.655H212.889ZM298.659 395.655L289.95 416.323H287.842L296.551 395.655H298.659ZM384.428 395.655L375.719 416.323H373.612L382.321 395.655H384.428ZM470.198 395.655L461.489 416.323H459.381L468.09 395.655H470.198ZM555.967 395.655L547.258 416.323H545.151L553.86 395.655H555.967ZM641.737 395.655L633.028 416.323H630.92L639.629 395.655H641.737ZM727.506 395.655L718.797 416.323H716.69L725.399 395.655H727.506ZM813.276 395.655L804.567 416.323H802.459L811.168 395.655H813.276ZM899.045 395.655L890.336 416.323H888.229L896.938 395.655H899.045ZM984.815 395.655L976.106 416.323H973.999L982.708 395.655H984.815ZM41.9214 446.323H39.814L31.105 425.655H33.2124L41.9214 446.323ZM57.6636 448.799H43.3687V446.971H57.6636V448.799ZM71.9585 448.799H57.6636V446.971H71.9585V448.799ZM127.691 446.323H125.583L116.875 425.655H118.982L127.691 446.323ZM143.433 448.799H129.138V446.971H143.433V448.799ZM157.728 448.799H143.433V446.971H157.728V448.799ZM213.46 446.323H211.353L202.644 425.655H204.751L213.46 446.323ZM229.203 448.799H214.908V446.971H229.203V448.799ZM243.498 448.799H229.203V446.971H243.498V448.799ZM299.23 446.323H297.123L288.414 425.655H290.521L299.23 446.323ZM314.972 448.799H300.677V446.971H314.972V448.799ZM329.267 448.799H314.972V446.971H329.267V448.799ZM385 446.323H382.892L374.183 425.655H376.291L385 446.323ZM400.742 448.799H386.447V446.971H400.742V448.799ZM415.037 448.799H400.742V446.971H415.037V448.799ZM470.769 446.323H468.662L459.953 425.655H462.06L470.769 446.323ZM486.511 448.799H472.216V446.971H486.511V448.799ZM500.806 448.799H486.511V446.971H500.806V448.799ZM556.539 446.323H554.431L545.722 425.655H547.83L556.539 446.323ZM572.281 448.799H557.986V446.971H572.281V448.799ZM586.576 448.799H572.281V446.971H586.576V448.799ZM642.308 446.323H640.201L631.492 425.655H633.599L642.308 446.323ZM658.05 448.799H643.755V446.971H658.05V448.799ZM672.345 448.799H658.05V446.971H672.345V448.799ZM728.078 446.323H725.97L717.261 425.655H719.369L728.078 446.323ZM743.82 448.799H729.525V446.971H743.82V448.799ZM758.115 448.799H743.82V446.971H758.115V448.799ZM813.847 446.323H811.74L803.031 425.655H805.138L813.847 446.323ZM829.589 448.799H815.294V446.971H829.589V448.799ZM843.884 448.799H829.589V446.971H843.884V448.799ZM899.617 446.323H897.509L888.8 425.655H890.908L899.617 446.323ZM915.359 448.799H901.064V446.971H915.359V448.799ZM929.654 448.799H915.359V446.971H929.654V448.799ZM985.386 446.323H983.279L974.57 425.655H976.677L985.386 446.323ZM1001.13 448.799H986.833V446.971H1001.13V448.799ZM14.7788 478.799H0.483887V476.971H14.7788V478.799ZM29.0737 478.799H14.7788V476.971H29.0737V478.799ZM41.3501 455.655L32.6411 476.323H30.5337L39.2427 455.655H41.3501ZM84.8062 476.323H82.6987L73.9897 455.655H76.0972L84.8062 476.323ZM100.548 478.799H86.2534V476.971H100.548V478.799ZM114.843 478.799H100.548V476.971H114.843V478.799ZM127.12 455.655L118.411 476.323H116.303L125.012 455.655H127.12ZM170.576 476.323H168.468L159.759 455.655H161.867L170.576 476.323ZM186.318 478.799H172.023V476.971H186.318V478.799ZM200.613 478.799H186.318V476.971H200.613V478.799ZM212.889 455.655L204.18 476.323H202.073L210.782 455.655H212.889ZM256.345 476.323H254.238L245.529 455.655H247.636L256.345 476.323ZM272.087 478.799H257.792V476.971H272.087V478.799ZM286.382 478.799H272.087V476.971H286.382V478.799ZM298.659 455.655L289.95 476.323H287.842L296.551 455.655H298.659ZM342.115 476.323H340.007L331.298 455.655H333.406L342.115 476.323ZM357.857 478.799H343.562V476.971H357.857V478.799ZM372.152 478.799H357.857V476.971H372.152V478.799ZM384.428 455.655L375.719 476.323H373.612L382.321 455.655H384.428ZM427.884 476.323H425.777L417.068 455.655H419.175L427.884 476.323ZM443.626 478.799H429.332V476.971H443.626V478.799ZM457.921 478.799H443.626V476.971H457.921V478.799ZM470.198 455.655L461.489 476.323H459.381L468.09 455.655H470.198ZM513.654 476.323H511.546L502.837 455.655H504.945L513.654 476.323ZM529.396 478.799H515.101V476.971H529.396V478.799ZM543.691 478.799H529.396V476.971H543.691V478.799ZM555.967 455.655L547.258 476.323H545.151L553.86 455.655H555.967ZM599.423 476.323H597.316L588.607 455.655H590.714L599.423 476.323ZM615.166 478.799H600.871V476.971H615.166V478.799ZM629.46 478.799H615.166V476.971H629.46V478.799ZM641.737 455.655L633.028 476.323H630.92L639.629 455.655H641.737ZM685.193 476.323H683.085L674.376 455.655H676.484L685.193 476.323ZM700.935 478.799H686.64V476.971H700.935V478.799ZM715.23 478.799H700.935V476.971H715.23V478.799ZM727.506 455.655L718.797 476.323H716.69L725.399 455.655H727.506ZM770.962 476.323H768.855L760.146 455.655H762.253L770.962 476.323ZM786.705 478.799H772.41V476.971H786.705V478.799ZM801 478.799H786.705V476.971H801V478.799ZM813.276 455.655L804.567 476.323H802.459L811.168 455.655H813.276ZM856.732 476.323H854.625L845.916 455.655H848.023L856.732 476.323ZM872.474 478.799H858.179V476.971H872.474V478.799ZM886.769 478.799H872.474V476.971H886.769V478.799ZM899.045 455.655L890.336 476.323H888.229L896.938 455.655H899.045ZM942.501 476.323H940.394L931.685 455.655H933.792L942.501 476.323ZM958.244 478.799H943.949V476.971H958.244V478.799ZM972.539 478.799H958.244V476.971H972.539V478.799ZM984.815 455.655L976.106 476.323H973.999L982.708 455.655H984.815ZM41.9214 506.323H39.814L31.105 485.655H33.2124L41.9214 506.323ZM127.691 506.323H125.583L116.875 485.655H118.982L127.691 506.323ZM213.46 506.323H211.353L202.644 485.655H204.751L213.46 506.323ZM299.23 506.323H297.123L288.414 485.655H290.521L299.23 506.323ZM385 506.323H382.892L374.183 485.655H376.291L385 506.323ZM470.769 506.323H468.662L459.953 485.655H462.06L470.769 506.323ZM556.539 506.323H554.431L545.722 485.655H547.83L556.539 506.323ZM642.308 506.323H640.201L631.492 485.655H633.599L642.308 506.323ZM728.078 506.323H725.97L717.261 485.655H719.369L728.078 506.323ZM813.847 506.323H811.74L803.031 485.655H805.138L813.847 506.323ZM899.617 506.323H897.509L888.8 485.655H890.908L899.617 506.323ZM985.386 506.323H983.279L974.57 485.655H976.677L985.386 506.323ZM14.7788 538.799H0.483887V536.971H14.7788V538.799ZM29.0737 538.799H14.7788V536.971H29.0737V538.799ZM41.3501 515.655L32.6411 536.323H30.5337L39.2427 515.655H41.3501ZM100.548 538.799H86.2534V536.971H100.548V538.799ZM114.843 538.799H100.548V536.971H114.843V538.799ZM127.12 515.655L118.411 536.323H116.303L125.012 515.655H127.12ZM186.318 538.799H172.023V536.971H186.318V538.799ZM200.613 538.799H186.318V536.971H200.613V538.799ZM212.889 515.655L204.18 536.323H202.073L210.782 515.655H212.889ZM272.087 538.799H257.792V536.971H272.087V538.799ZM286.382 538.799H272.087V536.971H286.382V538.799ZM298.659 515.655L289.95 536.323H287.842L296.551 515.655H298.659ZM357.857 538.799H343.562V536.971H357.857V538.799ZM372.152 538.799H357.857V536.971H372.152V538.799ZM384.428 515.655L375.719 536.323H373.612L382.321 515.655H384.428ZM443.626 538.799H429.332V536.971H443.626V538.799ZM457.921 538.799H443.626V536.971H457.921V538.799ZM470.198 515.655L461.489 536.323H459.381L468.09 515.655H470.198ZM529.396 538.799H515.101V536.971H529.396V538.799ZM543.691 538.799H529.396V536.971H543.691V538.799ZM555.967 515.655L547.258 536.323H545.151L553.86 515.655H555.967ZM615.166 538.799H600.871V536.971H615.166V538.799ZM629.46 538.799H615.166V536.971H629.46V538.799ZM641.737 515.655L633.028 536.323H630.92L639.629 515.655H641.737ZM700.935 538.799H686.64V536.971H700.935V538.799ZM715.23 538.799H700.935V536.971H715.23V538.799ZM727.506 515.655L718.797 536.323H716.69L725.399 515.655H727.506ZM786.705 538.799H772.41V536.971H786.705V538.799ZM801 538.799H786.705V536.971H801V538.799ZM813.276 515.655L804.567 536.323H802.459L811.168 515.655H813.276ZM872.474 538.799H858.179V536.971H872.474V538.799ZM886.769 538.799H872.474V536.971H886.769V538.799ZM899.045 515.655L890.336 536.323H888.229L896.938 515.655H899.045ZM958.244 538.799H943.949V536.971H958.244V538.799ZM972.539 538.799H958.244V536.971H972.539V538.799ZM984.815 515.655L976.106 536.323H973.999L982.708 515.655H984.815ZM41.9214 566.323H39.814L31.105 545.655H33.2124L41.9214 566.323ZM57.6636 568.799H43.3687V566.971H57.6636V568.799ZM71.9585 568.799H57.6636V566.971H71.9585V568.799ZM84.2349 545.655L75.5259 566.323H73.4185L82.1274 545.655H84.2349ZM127.691 566.323H125.583L116.875 545.655H118.982L127.691 566.323ZM143.433 568.799H129.138V566.971H143.433V568.799ZM157.728 568.799H143.433V566.971H157.728V568.799ZM170.004 545.655L161.295 566.323H159.188L167.897 545.655H170.004ZM213.46 566.323H211.353L202.644 545.655H204.751L213.46 566.323ZM229.203 568.799H214.908V566.971H229.203V568.799ZM243.498 568.799H229.203V566.971H243.498V568.799ZM255.774 545.655L247.065 566.323H244.958L253.667 545.655H255.774ZM299.23 566.323H297.123L288.414 545.655H290.521L299.23 566.323ZM314.972 568.799H300.677V566.971H314.972V568.799ZM329.267 568.799H314.972V566.971H329.267V568.799ZM341.543 545.655L332.834 566.323H330.727L339.436 545.655H341.543ZM385 566.323H382.892L374.183 545.655H376.291L385 566.323ZM400.742 568.799H386.447V566.971H400.742V568.799ZM415.037 568.799H400.742V566.971H415.037V568.799ZM427.313 545.655L418.604 566.323H416.497L425.206 545.655H427.313ZM470.769 566.323H468.662L459.953 545.655H462.06L470.769 566.323ZM486.511 568.799H472.216V566.971H486.511V568.799ZM500.806 568.799H486.511V566.971H500.806V568.799ZM513.083 545.655L504.374 566.323H502.266L510.975 545.655H513.083ZM556.539 566.323H554.431L545.722 545.655H547.83L556.539 566.323ZM572.281 568.799H557.986V566.971H572.281V568.799ZM586.576 568.799H572.281V566.971H586.576V568.799ZM598.852 545.655L590.143 566.323H588.036L596.745 545.655H598.852ZM642.308 566.323H640.201L631.492 545.655H633.599L642.308 566.323ZM658.05 568.799H643.755V566.971H658.05V568.799ZM672.345 568.799H658.05V566.971H672.345V568.799ZM684.622 545.655L675.913 566.323H673.805L682.514 545.655H684.622ZM728.078 566.323H725.97L717.261 545.655H719.369L728.078 566.323ZM743.82 568.799H729.525V566.971H743.82V568.799ZM758.115 568.799H743.82V566.971H758.115V568.799ZM770.391 545.655L761.682 566.323H759.575L768.284 545.655H770.391ZM813.847 566.323H811.74L803.031 545.655H805.138L813.847 566.323ZM829.589 568.799H815.294V566.971H829.589V568.799ZM843.884 568.799H829.589V566.971H843.884V568.799ZM856.161 545.655L847.452 566.323H845.344L854.053 545.655H856.161ZM899.617 566.323H897.509L888.8 545.655H890.908L899.617 566.323ZM915.359 568.799H901.064V566.971H915.359V568.799ZM929.654 568.799H915.359V566.971H929.654V568.799ZM941.93 545.655L933.221 566.323H931.114L939.823 545.655H941.93ZM985.386 566.323H983.279L974.57 545.655H976.677L985.386 566.323ZM1001.13 568.799H986.833V566.971H1001.13V568.799Z" fill="#EAEAEA"/>
</g>
</svg>
