<svg width="898" height="70" viewBox="0 0 898 70" fill="none" xmlns="http://www.w3.org/2000/svg">
<path d="M17.8154 32.4062H0.22168V30.1562H17.8154V32.4062ZM27.8936 32.4062H25.3311V0.40625H27.8936V32.4062ZM53.0029 32.4062H35.4092V30.1562H53.0029V32.4062ZM70.5967 32.4062H53.0029V30.1562H70.5967V32.4062ZM88.1904 32.4062H70.5967V30.1562H88.1904V32.4062ZM98.2686 32.4062H95.7061V0.40625H98.2686V32.4062ZM123.378 32.4062H105.784V30.1562H123.378V32.4062ZM140.972 32.4062H123.378V30.1562H140.972V32.4062ZM158.565 32.4062H140.972V30.1562H158.565V32.4062ZM168.644 32.4062H166.081V0.40625H168.644V32.4062ZM193.753 32.4062H176.159V30.1562H193.753V32.4062ZM211.347 32.4062H193.753V30.1562H211.347V32.4062ZM228.94 32.4062H211.347V30.1562H228.94V32.4062ZM239.019 32.4062H236.456V0.40625H239.019V32.4062ZM264.128 32.4062H246.534V30.1562H264.128V32.4062ZM281.722 32.4062H264.128V30.1562H281.722V32.4062ZM299.315 32.4062H281.722V30.1562H299.315V32.4062ZM309.394 32.4062H306.831V0.40625H309.394V32.4062ZM334.503 32.4062H316.909V30.1562H334.503V32.4062ZM352.097 32.4062H334.503V30.1562H352.097V32.4062ZM369.69 32.4062H352.097V30.1562H369.69V32.4062ZM379.769 32.4062H377.206V0.40625H379.769V32.4062ZM404.878 32.4062H387.284V30.1562H404.878V32.4062ZM422.472 32.4062H404.878V30.1562H422.472V32.4062ZM440.065 32.4062H422.472V30.1562H440.065V32.4062ZM450.144 32.4062H447.581V0.40625H450.144V32.4062ZM475.253 32.4062H457.659V30.1562H475.253V32.4062ZM492.847 32.4062H475.253V30.1562H492.847V32.4062ZM510.44 32.4062H492.847V30.1562H510.44V32.4062ZM520.519 32.4062H517.956V0.40625H520.519V32.4062ZM545.628 32.4062H528.034V30.1562H545.628V32.4062ZM563.222 32.4062H545.628V30.1562H563.222V32.4062ZM580.815 32.4062H563.222V30.1562H580.815V32.4062ZM590.894 32.4062H588.331V0.40625H590.894V32.4062ZM616.003 32.4062H598.409V30.1562H616.003V32.4062ZM633.597 32.4062H616.003V30.1562H633.597V32.4062ZM651.19 32.4062H633.597V30.1562H651.19V32.4062ZM661.269 32.4062H658.706V0.40625H661.269V32.4062ZM686.378 32.4062H668.784V30.1562H686.378V32.4062ZM703.972 32.4062H686.378V30.1562H703.972V32.4062ZM721.565 32.4062H703.972V30.1562H721.565V32.4062ZM731.644 32.4062H729.081V0.40625H731.644V32.4062ZM756.753 32.4062H739.159V30.1562H756.753V32.4062ZM774.347 32.4062H756.753V30.1562H774.347V32.4062ZM791.94 32.4062H774.347V30.1562H791.94V32.4062ZM802.019 32.4062H799.456V0.40625H802.019V32.4062ZM827.128 32.4062H809.534V30.1562H827.128V32.4062ZM844.722 32.4062H827.128V30.1562H844.722V32.4062ZM862.315 32.4062H844.722V30.1562H862.315V32.4062ZM872.394 32.4062H869.831V0.40625H872.394V32.4062ZM897.503 32.4062H879.909V30.1562H897.503V32.4062ZM17.8154 69.4062H0.22168V67.1562H17.8154V69.4062ZM35.4092 69.4062H17.8154V67.1562H35.4092V69.4062ZM53.0029 69.4062H35.4092V67.1562H53.0029V69.4062ZM63.0811 69.4062H60.5186V37.4062H63.0811V69.4062ZM88.1904 69.4062H70.5967V67.1562H88.1904V69.4062ZM105.784 69.4062H88.1904V67.1562H105.784V69.4062ZM123.378 69.4062H105.784V67.1562H123.378V69.4062ZM133.456 69.4062H130.894V37.4062H133.456V69.4062ZM158.565 69.4062H140.972V67.1562H158.565V69.4062ZM176.159 69.4062H158.565V67.1562H176.159V69.4062ZM193.753 69.4062H176.159V67.1562H193.753V69.4062ZM203.831 69.4062H201.269V37.4062H203.831V69.4062ZM228.94 69.4062H211.347V67.1562H228.94V69.4062ZM246.534 69.4062H228.94V67.1562H246.534V69.4062ZM264.128 69.4062H246.534V67.1562H264.128V69.4062ZM274.206 69.4062H271.644V37.4062H274.206V69.4062ZM299.315 69.4062H281.722V67.1562H299.315V69.4062ZM316.909 69.4062H299.315V67.1562H316.909V69.4062ZM334.503 69.4062H316.909V67.1562H334.503V69.4062ZM344.581 69.4062H342.019V37.4062H344.581V69.4062ZM369.69 69.4062H352.097V67.1562H369.69V69.4062ZM387.284 69.4062H369.69V67.1562H387.284V69.4062ZM404.878 69.4062H387.284V67.1562H404.878V69.4062ZM414.956 69.4062H412.394V37.4062H414.956V69.4062ZM440.065 69.4062H422.472V67.1562H440.065V69.4062ZM457.659 69.4062H440.065V67.1562H457.659V69.4062ZM475.253 69.4062H457.659V67.1562H475.253V69.4062ZM485.331 69.4062H482.769V37.4062H485.331V69.4062ZM510.44 69.4062H492.847V67.1562H510.44V69.4062ZM528.034 69.4062H510.44V67.1562H528.034V69.4062ZM545.628 69.4062H528.034V67.1562H545.628V69.4062ZM555.706 69.4062H553.144V37.4062H555.706V69.4062ZM580.815 69.4062H563.222V67.1562H580.815V69.4062ZM598.409 69.4062H580.815V67.1562H598.409V69.4062ZM616.003 69.4062H598.409V67.1562H616.003V69.4062ZM626.081 69.4062H623.519V37.4062H626.081V69.4062ZM651.19 69.4062H633.597V67.1562H651.19V69.4062ZM668.784 69.4062H651.19V67.1562H668.784V69.4062ZM686.378 69.4062H668.784V67.1562H686.378V69.4062ZM696.456 69.4062H693.894V37.4062H696.456V69.4062ZM721.565 69.4062H703.972V67.1562H721.565V69.4062ZM739.159 69.4062H721.565V67.1562H739.159V69.4062ZM756.753 69.4062H739.159V67.1562H756.753V69.4062ZM766.831 69.4062H764.269V37.4062H766.831V69.4062ZM791.94 69.4062H774.347V67.1562H791.94V69.4062ZM809.534 69.4062H791.94V67.1562H809.534V69.4062ZM827.128 69.4062H809.534V67.1562H827.128V69.4062ZM837.206 69.4062H834.644V37.4062H837.206V69.4062ZM862.315 69.4062H844.722V67.1562H862.315V69.4062ZM879.909 69.4062H862.315V67.1562H879.909V69.4062ZM897.503 69.4062H879.909V67.1562H897.503V69.4062Z" fill="#EAEAEA"/>
</svg>
