<svg width="517" height="597" viewBox="0 0 517 597" fill="none" xmlns="http://www.w3.org/2000/svg">
<mask id="mask0" mask-type="alpha" maskUnits="userSpaceOnUse" x="0" y="0" width="517" height="597">
<rect x="0.859375" y="0.856445" width="515.424" height="595.471" fill="#C4C4C4"/>
</mask>
<g mask="url(#mask0)">
<path d="M-182.423 24.6055H-185.432L-176.57 3.9375H-173.549L-182.423 24.6055ZM-157.756 27.0811V24.6309H-143.461V27.0811H-157.756ZM-143.461 27.0811V24.6309H-129.166V27.0811H-143.461ZM-110.352 3.9375L-101.478 24.6055H-104.499L-113.36 3.9375H-110.352ZM-81.7617 3.9375L-72.8877 24.6055H-75.9092L-84.7705 3.9375H-81.7617ZM-71.9863 27.0811V24.6309H-57.6914V27.0811H-71.9863ZM-57.6914 27.0811V24.6309H-43.3965V27.0811H-57.6914ZM-39.4736 24.6055H-42.4824L-33.6211 3.9375H-30.5996L-39.4736 24.6055ZM-10.8838 24.6055H-13.8926L-5.03125 3.9375H-2.00977L-10.8838 24.6055ZM13.7832 27.0811V24.6309H28.0781V27.0811H13.7832ZM28.0781 27.0811V24.6309H42.373V27.0811H28.0781ZM61.1875 3.9375L70.0615 24.6055H67.04L58.1787 3.9375H61.1875ZM89.7773 3.9375L98.6514 24.6055H95.6299L86.7686 3.9375H89.7773ZM99.5527 27.0811V24.6309H113.848V27.0811H99.5527ZM113.848 27.0811V24.6309H128.143V27.0811H113.848ZM132.065 24.6055H129.057L137.918 3.9375H140.939L132.065 24.6055ZM160.655 24.6055H157.646L166.508 3.9375H169.529L160.655 24.6055ZM185.322 27.0811V24.6309H199.617V27.0811H185.322ZM199.617 27.0811V24.6309H213.912V27.0811H199.617ZM232.727 3.9375L241.601 24.6055H238.579L229.718 3.9375H232.727ZM261.316 3.9375L270.19 24.6055H267.169L258.308 3.9375H261.316ZM271.092 27.0811V24.6309H285.387V27.0811H271.092ZM285.387 27.0811V24.6309H299.682V27.0811H285.387ZM303.604 24.6055H300.596L309.457 3.9375H312.479L303.604 24.6055ZM332.194 24.6055H329.186L338.047 3.9375H341.068L332.194 24.6055ZM356.861 27.0811V24.6309H371.156V27.0811H356.861ZM371.156 27.0811V24.6309H385.451V27.0811H371.156ZM404.266 3.9375L413.14 24.6055H410.118L401.257 3.9375H404.266ZM432.855 3.9375L441.729 24.6055H438.708L429.847 3.9375H432.855ZM442.631 27.0811V24.6309H456.926V27.0811H442.631ZM456.926 27.0811V24.6309H471.221V27.0811H456.926ZM475.144 24.6055H472.135L480.996 3.9375H484.018L475.144 24.6055ZM503.733 24.6055H500.725L509.586 3.9375H512.607L503.733 24.6055ZM528.4 27.0811V24.6309H542.695V27.0811H528.4ZM542.695 27.0811V24.6309H556.99V27.0811H542.695ZM575.805 3.9375L584.679 24.6055H581.657L572.796 3.9375H575.805ZM604.395 3.9375L613.269 24.6055H610.247L601.386 3.9375H604.395ZM614.17 27.0811V24.6309H628.465V27.0811H614.17ZM628.465 27.0811V24.6309H642.76V27.0811H628.465ZM646.683 24.6055H643.674L652.535 3.9375H655.557L646.683 24.6055ZM675.272 24.6055H672.264L681.125 3.9375H684.146L675.272 24.6055ZM699.939 27.0811V24.6309H714.234V27.0811H699.939ZM714.234 27.0811V24.6309H728.529V27.0811H714.234ZM747.344 3.9375L756.218 24.6055H753.196L744.335 3.9375H747.344ZM775.934 3.9375L784.808 24.6055H781.786L772.925 3.9375H775.934ZM785.709 27.0811V24.6309H800.004V27.0811H785.709ZM-196.718 54.6055H-199.727L-190.865 33.9375H-187.844L-196.718 54.6055ZM-168.128 54.6055H-171.137L-162.275 33.9375H-159.254L-168.128 54.6055ZM-124.646 33.9375L-115.772 54.6055H-118.794L-127.655 33.9375H-124.646ZM-96.0566 33.9375L-87.1826 54.6055H-90.2041L-99.0654 33.9375H-96.0566ZM-86.2812 57.0811V54.6309H-71.9863V57.0811H-86.2812ZM-71.9863 57.0811V54.6309H-57.6914V57.0811H-71.9863ZM-57.6914 57.0811V54.6309H-43.3965V57.0811H-57.6914ZM-43.3965 57.0811V54.6309H-29.1016V57.0811H-43.3965ZM-25.1787 54.6055H-28.1875L-19.3262 33.9375H-16.3047L-25.1787 54.6055ZM3.41113 54.6055H0.402344L9.26367 33.9375H12.2852L3.41113 54.6055ZM46.8926 33.9375L55.7666 54.6055H52.7451L43.8838 33.9375H46.8926ZM75.4824 33.9375L84.3564 54.6055H81.335L72.4736 33.9375H75.4824ZM85.2578 57.0811V54.6309H99.5527V57.0811H85.2578ZM99.5527 57.0811V54.6309H113.848V57.0811H99.5527ZM113.848 57.0811V54.6309H128.143V57.0811H113.848ZM128.143 57.0811V54.6309H142.438V57.0811H128.143ZM146.36 54.6055H143.352L152.213 33.9375H155.234L146.36 54.6055ZM174.95 54.6055H171.941L180.803 33.9375H183.824L174.95 54.6055ZM218.432 33.9375L227.306 54.6055H224.284L215.423 33.9375H218.432ZM247.021 33.9375L255.896 54.6055H252.874L244.013 33.9375H247.021ZM256.797 57.0811V54.6309H271.092V57.0811H256.797ZM271.092 57.0811V54.6309H285.387V57.0811H271.092ZM285.387 57.0811V54.6309H299.682V57.0811H285.387ZM299.682 57.0811V54.6309H313.977V57.0811H299.682ZM317.899 54.6055H314.891L323.752 33.9375H326.773L317.899 54.6055ZM346.489 54.6055H343.48L352.342 33.9375H355.363L346.489 54.6055ZM389.971 33.9375L398.845 54.6055H395.823L386.962 33.9375H389.971ZM418.561 33.9375L427.435 54.6055H424.413L415.552 33.9375H418.561ZM428.336 57.0811V54.6309H442.631V57.0811H428.336ZM442.631 57.0811V54.6309H456.926V57.0811H442.631ZM456.926 57.0811V54.6309H471.221V57.0811H456.926ZM471.221 57.0811V54.6309H485.516V57.0811H471.221ZM489.438 54.6055H486.43L495.291 33.9375H498.312L489.438 54.6055ZM518.028 54.6055H515.02L523.881 33.9375H526.902L518.028 54.6055ZM561.51 33.9375L570.384 54.6055H567.362L558.501 33.9375H561.51ZM590.1 33.9375L598.974 54.6055H595.952L587.091 33.9375H590.1ZM599.875 57.0811V54.6309H614.17V57.0811H599.875ZM614.17 57.0811V54.6309H628.465V57.0811H614.17ZM628.465 57.0811V54.6309H642.76V57.0811H628.465ZM642.76 57.0811V54.6309H657.055V57.0811H642.76ZM660.978 54.6055H657.969L666.83 33.9375H669.852L660.978 54.6055ZM689.567 54.6055H686.559L695.42 33.9375H698.441L689.567 54.6055ZM733.049 33.9375L741.923 54.6055H738.901L730.04 33.9375H733.049ZM761.639 33.9375L770.513 54.6055H767.491L758.63 33.9375H761.639ZM771.414 57.0811V54.6309H785.709V57.0811H771.414ZM785.709 57.0811V54.6309H800.004V57.0811H785.709ZM-196.121 63.9375L-187.247 84.6055H-190.269L-199.13 63.9375H-196.121ZM-167.531 63.9375L-158.657 84.6055H-161.679L-170.54 63.9375H-167.531ZM-157.756 87.0811V84.6309H-143.461V87.0811H-157.756ZM-143.461 87.0811V84.6309H-129.166V87.0811H-143.461ZM-125.243 84.6055H-128.252L-119.391 63.9375H-116.369L-125.243 84.6055ZM-96.6533 84.6055H-99.6621L-90.8008 63.9375H-87.7793L-96.6533 84.6055ZM-71.9863 87.0811V84.6309H-57.6914V87.0811H-71.9863ZM-57.6914 87.0811V84.6309H-43.3965V87.0811H-57.6914ZM-24.582 63.9375L-15.708 84.6055H-18.7295L-27.5908 63.9375H-24.582ZM4.00781 63.9375L12.8818 84.6055H9.86035L0.999023 63.9375H4.00781ZM13.7832 87.0811V84.6309H28.0781V87.0811H13.7832ZM28.0781 87.0811V84.6309H42.373V87.0811H28.0781ZM46.2959 84.6055H43.2871L52.1484 63.9375H55.1699L46.2959 84.6055ZM74.8857 84.6055H71.877L80.7383 63.9375H83.7598L74.8857 84.6055ZM99.5527 87.0811V84.6309H113.848V87.0811H99.5527ZM113.848 87.0811V84.6309H128.143V87.0811H113.848ZM146.957 63.9375L155.831 84.6055H152.81L143.948 63.9375H146.957ZM175.547 63.9375L184.421 84.6055H181.399L172.538 63.9375H175.547ZM185.322 87.0811V84.6309H199.617V87.0811H185.322ZM199.617 87.0811V84.6309H213.912V87.0811H199.617ZM217.835 84.6055H214.826L223.688 63.9375H226.709L217.835 84.6055ZM246.425 84.6055H243.416L252.277 63.9375H255.299L246.425 84.6055ZM271.092 87.0811V84.6309H285.387V87.0811H271.092ZM285.387 87.0811V84.6309H299.682V87.0811H285.387ZM318.496 63.9375L327.37 84.6055H324.349L315.487 63.9375H318.496ZM347.086 63.9375L355.96 84.6055H352.938L344.077 63.9375H347.086ZM356.861 87.0811V84.6309H371.156V87.0811H356.861ZM371.156 87.0811V84.6309H385.451V87.0811H371.156ZM389.374 84.6055H386.365L395.227 63.9375H398.248L389.374 84.6055ZM417.964 84.6055H414.955L423.816 63.9375H426.838L417.964 84.6055ZM442.631 87.0811V84.6309H456.926V87.0811H442.631ZM456.926 87.0811V84.6309H471.221V87.0811H456.926ZM490.035 63.9375L498.909 84.6055H495.888L487.026 63.9375H490.035ZM518.625 63.9375L527.499 84.6055H524.478L515.616 63.9375H518.625ZM528.4 87.0811V84.6309H542.695V87.0811H528.4ZM542.695 87.0811V84.6309H556.99V87.0811H542.695ZM560.913 84.6055H557.904L566.766 63.9375H569.787L560.913 84.6055ZM589.503 84.6055H586.494L595.355 63.9375H598.377L589.503 84.6055ZM614.17 87.0811V84.6309H628.465V87.0811H614.17ZM628.465 87.0811V84.6309H642.76V87.0811H628.465ZM661.574 63.9375L670.448 84.6055H667.427L658.565 63.9375H661.574ZM690.164 63.9375L699.038 84.6055H696.017L687.155 63.9375H690.164ZM699.939 87.0811V84.6309H714.234V87.0811H699.939ZM714.234 87.0811V84.6309H728.529V87.0811H714.234ZM732.452 84.6055H729.443L738.305 63.9375H741.326L732.452 84.6055ZM761.042 84.6055H758.033L766.895 63.9375H769.916L761.042 84.6055ZM785.709 87.0811V84.6309H800.004V87.0811H785.709ZM-181.826 93.9375L-172.952 114.605H-175.974L-184.835 93.9375H-181.826ZM-172.051 117.081V114.631H-157.756V117.081H-172.051ZM-157.756 117.081V114.631H-143.461V117.081H-157.756ZM-143.461 117.081V114.631H-129.166V117.081H-143.461ZM-129.166 117.081V114.631H-114.871V117.081H-129.166ZM-110.948 114.605H-113.957L-105.096 93.9375H-102.074L-110.948 114.605ZM-82.3584 114.605H-85.3672L-76.5059 93.9375H-73.4844L-82.3584 114.605ZM-38.877 93.9375L-30.0029 114.605H-33.0244L-41.8857 93.9375H-38.877ZM-10.2871 93.9375L-1.41309 114.605H-4.43457L-13.2959 93.9375H-10.2871ZM-0.511719 117.081V114.631H13.7832V117.081H-0.511719ZM13.7832 117.081V114.631H28.0781V117.081H13.7832ZM28.0781 117.081V114.631H42.373V117.081H28.0781ZM42.373 117.081V114.631H56.668V117.081H42.373ZM60.5908 114.605H57.582L66.4434 93.9375H69.4648L60.5908 114.605ZM89.1807 114.605H86.1719L95.0332 93.9375H98.0547L89.1807 114.605ZM132.662 93.9375L141.536 114.605H138.515L129.653 93.9375H132.662ZM161.252 93.9375L170.126 114.605H167.104L158.243 93.9375H161.252ZM171.027 117.081V114.631H185.322V117.081H171.027ZM185.322 117.081V114.631H199.617V117.081H185.322ZM199.617 117.081V114.631H213.912V117.081H199.617ZM213.912 117.081V114.631H228.207V117.081H213.912ZM232.13 114.605H229.121L237.982 93.9375H241.004L232.13 114.605ZM260.72 114.605H257.711L266.572 93.9375H269.594L260.72 114.605ZM304.201 93.9375L313.075 114.605H310.054L301.192 93.9375H304.201ZM332.791 93.9375L341.665 114.605H338.644L329.782 93.9375H332.791ZM342.566 117.081V114.631H356.861V117.081H342.566ZM356.861 117.081V114.631H371.156V117.081H356.861ZM371.156 117.081V114.631H385.451V117.081H371.156ZM385.451 117.081V114.631H399.746V117.081H385.451ZM403.669 114.605H400.66L409.521 93.9375H412.543L403.669 114.605ZM432.259 114.605H429.25L438.111 93.9375H441.133L432.259 114.605ZM475.74 93.9375L484.614 114.605H481.593L472.731 93.9375H475.74ZM504.33 93.9375L513.204 114.605H510.183L501.321 93.9375H504.33ZM514.105 117.081V114.631H528.4V117.081H514.105ZM528.4 117.081V114.631H542.695V117.081H528.4ZM542.695 117.081V114.631H556.99V117.081H542.695ZM556.99 117.081V114.631H571.285V117.081H556.99ZM575.208 114.605H572.199L581.061 93.9375H584.082L575.208 114.605ZM603.798 114.605H600.789L609.65 93.9375H612.672L603.798 114.605ZM647.279 93.9375L656.153 114.605H653.132L644.271 93.9375H647.279ZM675.869 93.9375L684.743 114.605H681.722L672.86 93.9375H675.869ZM685.645 117.081V114.631H699.939V117.081H685.645ZM699.939 117.081V114.631H714.234V117.081H699.939ZM714.234 117.081V114.631H728.529V117.081H714.234ZM728.529 117.081V114.631H742.824V117.081H728.529ZM746.747 114.605H743.738L752.6 93.9375H755.621L746.747 114.605ZM775.337 114.605H772.328L781.189 93.9375H784.211L775.337 114.605ZM-182.423 144.605H-185.432L-176.57 123.938H-173.549L-182.423 144.605ZM-157.756 147.081V144.631H-143.461V147.081H-157.756ZM-143.461 147.081V144.631H-129.166V147.081H-143.461ZM-110.352 123.938L-101.478 144.605H-104.499L-113.36 123.938H-110.352ZM-81.7617 123.938L-72.8877 144.605H-75.9092L-84.7705 123.938H-81.7617ZM-71.9863 147.081V144.631H-57.6914V147.081H-71.9863ZM-57.6914 147.081V144.631H-43.3965V147.081H-57.6914ZM-39.4736 144.605H-42.4824L-33.6211 123.938H-30.5996L-39.4736 144.605ZM-10.8838 144.605H-13.8926L-5.03125 123.938H-2.00977L-10.8838 144.605ZM13.7832 147.081V144.631H28.0781V147.081H13.7832ZM28.0781 147.081V144.631H42.373V147.081H28.0781ZM61.1875 123.938L70.0615 144.605H67.04L58.1787 123.938H61.1875ZM89.7773 123.938L98.6514 144.605H95.6299L86.7686 123.938H89.7773ZM99.5527 147.081V144.631H113.848V147.081H99.5527ZM113.848 147.081V144.631H128.143V147.081H113.848ZM132.065 144.605H129.057L137.918 123.938H140.939L132.065 144.605ZM160.655 144.605H157.646L166.508 123.938H169.529L160.655 144.605ZM185.322 147.081V144.631H199.617V147.081H185.322ZM199.617 147.081V144.631H213.912V147.081H199.617ZM232.727 123.938L241.601 144.605H238.579L229.718 123.938H232.727ZM261.316 123.938L270.19 144.605H267.169L258.308 123.938H261.316ZM271.092 147.081V144.631H285.387V147.081H271.092ZM285.387 147.081V144.631H299.682V147.081H285.387ZM303.604 144.605H300.596L309.457 123.938H312.479L303.604 144.605ZM332.194 144.605H329.186L338.047 123.938H341.068L332.194 144.605ZM356.861 147.081V144.631H371.156V147.081H356.861ZM371.156 147.081V144.631H385.451V147.081H371.156ZM404.266 123.938L413.14 144.605H410.118L401.257 123.938H404.266ZM432.855 123.938L441.729 144.605H438.708L429.847 123.938H432.855ZM442.631 147.081V144.631H456.926V147.081H442.631ZM456.926 147.081V144.631H471.221V147.081H456.926ZM475.144 144.605H472.135L480.996 123.938H484.018L475.144 144.605ZM503.733 144.605H500.725L509.586 123.938H512.607L503.733 144.605ZM528.4 147.081V144.631H542.695V147.081H528.4ZM542.695 147.081V144.631H556.99V147.081H542.695ZM575.805 123.938L584.679 144.605H581.657L572.796 123.938H575.805ZM604.395 123.938L613.269 144.605H610.247L601.386 123.938H604.395ZM614.17 147.081V144.631H628.465V147.081H614.17ZM628.465 147.081V144.631H642.76V147.081H628.465ZM646.683 144.605H643.674L652.535 123.938H655.557L646.683 144.605ZM675.272 144.605H672.264L681.125 123.938H684.146L675.272 144.605ZM699.939 147.081V144.631H714.234V147.081H699.939ZM714.234 147.081V144.631H728.529V147.081H714.234ZM747.344 123.938L756.218 144.605H753.196L744.335 123.938H747.344ZM775.934 123.938L784.808 144.605H781.786L772.925 123.938H775.934ZM785.709 147.081V144.631H800.004V147.081H785.709ZM-196.718 174.605H-199.727L-190.865 153.938H-187.844L-196.718 174.605ZM-168.128 174.605H-171.137L-162.275 153.938H-159.254L-168.128 174.605ZM-124.646 153.938L-115.772 174.605H-118.794L-127.655 153.938H-124.646ZM-96.0566 153.938L-87.1826 174.605H-90.2041L-99.0654 153.938H-96.0566ZM-86.2812 177.081V174.631H-71.9863V177.081H-86.2812ZM-71.9863 177.081V174.631H-57.6914V177.081H-71.9863ZM-57.6914 177.081V174.631H-43.3965V177.081H-57.6914ZM-43.3965 177.081V174.631H-29.1016V177.081H-43.3965ZM-25.1787 174.605H-28.1875L-19.3262 153.938H-16.3047L-25.1787 174.605ZM3.41113 174.605H0.402344L9.26367 153.938H12.2852L3.41113 174.605ZM46.8926 153.938L55.7666 174.605H52.7451L43.8838 153.938H46.8926ZM75.4824 153.938L84.3564 174.605H81.335L72.4736 153.938H75.4824ZM85.2578 177.081V174.631H99.5527V177.081H85.2578ZM99.5527 177.081V174.631H113.848V177.081H99.5527ZM113.848 177.081V174.631H128.143V177.081H113.848ZM128.143 177.081V174.631H142.438V177.081H128.143ZM146.36 174.605H143.352L152.213 153.938H155.234L146.36 174.605ZM174.95 174.605H171.941L180.803 153.938H183.824L174.95 174.605ZM218.432 153.938L227.306 174.605H224.284L215.423 153.938H218.432ZM247.021 153.938L255.896 174.605H252.874L244.013 153.938H247.021ZM256.797 177.081V174.631H271.092V177.081H256.797ZM271.092 177.081V174.631H285.387V177.081H271.092ZM285.387 177.081V174.631H299.682V177.081H285.387ZM299.682 177.081V174.631H313.977V177.081H299.682ZM317.899 174.605H314.891L323.752 153.938H326.773L317.899 174.605ZM346.489 174.605H343.48L352.342 153.938H355.363L346.489 174.605ZM389.971 153.938L398.845 174.605H395.823L386.962 153.938H389.971ZM418.561 153.938L427.435 174.605H424.413L415.552 153.938H418.561ZM428.336 177.081V174.631H442.631V177.081H428.336ZM442.631 177.081V174.631H456.926V177.081H442.631ZM456.926 177.081V174.631H471.221V177.081H456.926ZM471.221 177.081V174.631H485.516V177.081H471.221ZM489.438 174.605H486.43L495.291 153.938H498.312L489.438 174.605ZM518.028 174.605H515.02L523.881 153.938H526.902L518.028 174.605ZM561.51 153.938L570.384 174.605H567.362L558.501 153.938H561.51ZM590.1 153.938L598.974 174.605H595.952L587.091 153.938H590.1ZM599.875 177.081V174.631H614.17V177.081H599.875ZM614.17 177.081V174.631H628.465V177.081H614.17ZM628.465 177.081V174.631H642.76V177.081H628.465ZM642.76 177.081V174.631H657.055V177.081H642.76ZM660.978 174.605H657.969L666.83 153.938H669.852L660.978 174.605ZM689.567 174.605H686.559L695.42 153.938H698.441L689.567 174.605ZM733.049 153.938L741.923 174.605H738.901L730.04 153.938H733.049ZM761.639 153.938L770.513 174.605H767.491L758.63 153.938H761.639ZM771.414 177.081V174.631H785.709V177.081H771.414ZM785.709 177.081V174.631H800.004V177.081H785.709ZM-196.121 183.938L-187.247 204.605H-190.269L-199.13 183.938H-196.121ZM-167.531 183.938L-158.657 204.605H-161.679L-170.54 183.938H-167.531ZM-157.756 207.081V204.631H-143.461V207.081H-157.756ZM-143.461 207.081V204.631H-129.166V207.081H-143.461ZM-125.243 204.605H-128.252L-119.391 183.938H-116.369L-125.243 204.605ZM-96.6533 204.605H-99.6621L-90.8008 183.938H-87.7793L-96.6533 204.605ZM-71.9863 207.081V204.631H-57.6914V207.081H-71.9863ZM-57.6914 207.081V204.631H-43.3965V207.081H-57.6914ZM-24.582 183.938L-15.708 204.605H-18.7295L-27.5908 183.938H-24.582ZM4.00781 183.938L12.8818 204.605H9.86035L0.999023 183.938H4.00781ZM13.7832 207.081V204.631H28.0781V207.081H13.7832ZM28.0781 207.081V204.631H42.373V207.081H28.0781ZM46.2959 204.605H43.2871L52.1484 183.938H55.1699L46.2959 204.605ZM74.8857 204.605H71.877L80.7383 183.938H83.7598L74.8857 204.605ZM99.5527 207.081V204.631H113.848V207.081H99.5527ZM113.848 207.081V204.631H128.143V207.081H113.848ZM146.957 183.938L155.831 204.605H152.81L143.948 183.938H146.957ZM175.547 183.938L184.421 204.605H181.399L172.538 183.938H175.547ZM185.322 207.081V204.631H199.617V207.081H185.322ZM199.617 207.081V204.631H213.912V207.081H199.617ZM217.835 204.605H214.826L223.688 183.938H226.709L217.835 204.605ZM246.425 204.605H243.416L252.277 183.938H255.299L246.425 204.605ZM271.092 207.081V204.631H285.387V207.081H271.092ZM285.387 207.081V204.631H299.682V207.081H285.387ZM318.496 183.938L327.37 204.605H324.349L315.487 183.938H318.496ZM347.086 183.938L355.96 204.605H352.938L344.077 183.938H347.086ZM356.861 207.081V204.631H371.156V207.081H356.861ZM371.156 207.081V204.631H385.451V207.081H371.156ZM389.374 204.605H386.365L395.227 183.938H398.248L389.374 204.605ZM417.964 204.605H414.955L423.816 183.938H426.838L417.964 204.605ZM442.631 207.081V204.631H456.926V207.081H442.631ZM456.926 207.081V204.631H471.221V207.081H456.926ZM490.035 183.938L498.909 204.605H495.888L487.026 183.938H490.035ZM518.625 183.938L527.499 204.605H524.478L515.616 183.938H518.625ZM528.4 207.081V204.631H542.695V207.081H528.4ZM542.695 207.081V204.631H556.99V207.081H542.695ZM560.913 204.605H557.904L566.766 183.938H569.787L560.913 204.605ZM589.503 204.605H586.494L595.355 183.938H598.377L589.503 204.605ZM614.17 207.081V204.631H628.465V207.081H614.17ZM628.465 207.081V204.631H642.76V207.081H628.465ZM661.574 183.938L670.448 204.605H667.427L658.565 183.938H661.574ZM690.164 183.938L699.038 204.605H696.017L687.155 183.938H690.164ZM699.939 207.081V204.631H714.234V207.081H699.939ZM714.234 207.081V204.631H728.529V207.081H714.234ZM732.452 204.605H729.443L738.305 183.938H741.326L732.452 204.605ZM761.042 204.605H758.033L766.895 183.938H769.916L761.042 204.605ZM785.709 207.081V204.631H800.004V207.081H785.709ZM-181.826 213.938L-172.952 234.605H-175.974L-184.835 213.938H-181.826ZM-172.051 237.081V234.631H-157.756V237.081H-172.051ZM-157.756 237.081V234.631H-143.461V237.081H-157.756ZM-143.461 237.081V234.631H-129.166V237.081H-143.461ZM-129.166 237.081V234.631H-114.871V237.081H-129.166ZM-110.948 234.605H-113.957L-105.096 213.938H-102.074L-110.948 234.605ZM-82.3584 234.605H-85.3672L-76.5059 213.938H-73.4844L-82.3584 234.605ZM-38.877 213.938L-30.0029 234.605H-33.0244L-41.8857 213.938H-38.877ZM-10.2871 213.938L-1.41309 234.605H-4.43457L-13.2959 213.938H-10.2871ZM-0.511719 237.081V234.631H13.7832V237.081H-0.511719ZM13.7832 237.081V234.631H28.0781V237.081H13.7832ZM28.0781 237.081V234.631H42.373V237.081H28.0781ZM42.373 237.081V234.631H56.668V237.081H42.373ZM60.5908 234.605H57.582L66.4434 213.938H69.4648L60.5908 234.605ZM89.1807 234.605H86.1719L95.0332 213.938H98.0547L89.1807 234.605ZM132.662 213.938L141.536 234.605H138.515L129.653 213.938H132.662ZM161.252 213.938L170.126 234.605H167.104L158.243 213.938H161.252ZM171.027 237.081V234.631H185.322V237.081H171.027ZM185.322 237.081V234.631H199.617V237.081H185.322ZM199.617 237.081V234.631H213.912V237.081H199.617ZM213.912 237.081V234.631H228.207V237.081H213.912ZM232.13 234.605H229.121L237.982 213.938H241.004L232.13 234.605ZM260.72 234.605H257.711L266.572 213.938H269.594L260.72 234.605ZM304.201 213.938L313.075 234.605H310.054L301.192 213.938H304.201ZM332.791 213.938L341.665 234.605H338.644L329.782 213.938H332.791ZM342.566 237.081V234.631H356.861V237.081H342.566ZM356.861 237.081V234.631H371.156V237.081H356.861ZM371.156 237.081V234.631H385.451V237.081H371.156ZM385.451 237.081V234.631H399.746V237.081H385.451ZM403.669 234.605H400.66L409.521 213.938H412.543L403.669 234.605ZM432.259 234.605H429.25L438.111 213.938H441.133L432.259 234.605ZM475.74 213.938L484.614 234.605H481.593L472.731 213.938H475.74ZM504.33 213.938L513.204 234.605H510.183L501.321 213.938H504.33ZM514.105 237.081V234.631H528.4V237.081H514.105ZM528.4 237.081V234.631H542.695V237.081H528.4ZM542.695 237.081V234.631H556.99V237.081H542.695ZM556.99 237.081V234.631H571.285V237.081H556.99ZM575.208 234.605H572.199L581.061 213.938H584.082L575.208 234.605ZM603.798 234.605H600.789L609.65 213.938H612.672L603.798 234.605ZM647.279 213.938L656.153 234.605H653.132L644.271 213.938H647.279ZM675.869 213.938L684.743 234.605H681.722L672.86 213.938H675.869ZM685.645 237.081V234.631H699.939V237.081H685.645ZM699.939 237.081V234.631H714.234V237.081H699.939ZM714.234 237.081V234.631H728.529V237.081H714.234ZM728.529 237.081V234.631H742.824V237.081H728.529ZM746.747 234.605H743.738L752.6 213.938H755.621L746.747 234.605ZM775.337 234.605H772.328L781.189 213.938H784.211L775.337 234.605ZM-182.423 264.605H-185.432L-176.57 243.938H-173.549L-182.423 264.605ZM-157.756 267.081V264.631H-143.461V267.081H-157.756ZM-143.461 267.081V264.631H-129.166V267.081H-143.461ZM-110.352 243.938L-101.478 264.605H-104.499L-113.36 243.938H-110.352ZM-81.7617 243.938L-72.8877 264.605H-75.9092L-84.7705 243.938H-81.7617ZM-71.9863 267.081V264.631H-57.6914V267.081H-71.9863ZM-57.6914 267.081V264.631H-43.3965V267.081H-57.6914ZM-39.4736 264.605H-42.4824L-33.6211 243.938H-30.5996L-39.4736 264.605ZM-10.8838 264.605H-13.8926L-5.03125 243.938H-2.00977L-10.8838 264.605ZM13.7832 267.081V264.631H28.0781V267.081H13.7832ZM28.0781 267.081V264.631H42.373V267.081H28.0781ZM61.1875 243.938L70.0615 264.605H67.04L58.1787 243.938H61.1875ZM89.7773 243.938L98.6514 264.605H95.6299L86.7686 243.938H89.7773ZM99.5527 267.081V264.631H113.848V267.081H99.5527ZM113.848 267.081V264.631H128.143V267.081H113.848ZM132.065 264.605H129.057L137.918 243.938H140.939L132.065 264.605ZM160.655 264.605H157.646L166.508 243.938H169.529L160.655 264.605ZM185.322 267.081V264.631H199.617V267.081H185.322ZM199.617 267.081V264.631H213.912V267.081H199.617ZM232.727 243.938L241.601 264.605H238.579L229.718 243.938H232.727ZM261.316 243.938L270.19 264.605H267.169L258.308 243.938H261.316ZM271.092 267.081V264.631H285.387V267.081H271.092ZM285.387 267.081V264.631H299.682V267.081H285.387ZM303.604 264.605H300.596L309.457 243.938H312.479L303.604 264.605ZM332.194 264.605H329.186L338.047 243.938H341.068L332.194 264.605ZM356.861 267.081V264.631H371.156V267.081H356.861ZM371.156 267.081V264.631H385.451V267.081H371.156ZM404.266 243.938L413.14 264.605H410.118L401.257 243.938H404.266ZM432.855 243.938L441.729 264.605H438.708L429.847 243.938H432.855ZM442.631 267.081V264.631H456.926V267.081H442.631ZM456.926 267.081V264.631H471.221V267.081H456.926ZM475.144 264.605H472.135L480.996 243.938H484.018L475.144 264.605ZM503.733 264.605H500.725L509.586 243.938H512.607L503.733 264.605ZM528.4 267.081V264.631H542.695V267.081H528.4ZM542.695 267.081V264.631H556.99V267.081H542.695ZM575.805 243.938L584.679 264.605H581.657L572.796 243.938H575.805ZM604.395 243.938L613.269 264.605H610.247L601.386 243.938H604.395ZM614.17 267.081V264.631H628.465V267.081H614.17ZM628.465 267.081V264.631H642.76V267.081H628.465ZM646.683 264.605H643.674L652.535 243.938H655.557L646.683 264.605ZM675.272 264.605H672.264L681.125 243.938H684.146L675.272 264.605ZM699.939 267.081V264.631H714.234V267.081H699.939ZM714.234 267.081V264.631H728.529V267.081H714.234ZM747.344 243.938L756.218 264.605H753.196L744.335 243.938H747.344ZM775.934 243.938L784.808 264.605H781.786L772.925 243.938H775.934ZM785.709 267.081V264.631H800.004V267.081H785.709ZM-196.718 294.605H-199.727L-190.865 273.938H-187.844L-196.718 294.605ZM-168.128 294.605H-171.137L-162.275 273.938H-159.254L-168.128 294.605ZM-124.646 273.938L-115.772 294.605H-118.794L-127.655 273.938H-124.646ZM-96.0566 273.938L-87.1826 294.605H-90.2041L-99.0654 273.938H-96.0566ZM-86.2812 297.081V294.631H-71.9863V297.081H-86.2812ZM-71.9863 297.081V294.631H-57.6914V297.081H-71.9863ZM-57.6914 297.081V294.631H-43.3965V297.081H-57.6914ZM-43.3965 297.081V294.631H-29.1016V297.081H-43.3965ZM-25.1787 294.605H-28.1875L-19.3262 273.938H-16.3047L-25.1787 294.605ZM3.41113 294.605H0.402344L9.26367 273.938H12.2852L3.41113 294.605ZM46.8926 273.938L55.7666 294.605H52.7451L43.8838 273.938H46.8926ZM75.4824 273.938L84.3564 294.605H81.335L72.4736 273.938H75.4824ZM85.2578 297.081V294.631H99.5527V297.081H85.2578ZM99.5527 297.081V294.631H113.848V297.081H99.5527ZM113.848 297.081V294.631H128.143V297.081H113.848ZM128.143 297.081V294.631H142.438V297.081H128.143ZM146.36 294.605H143.352L152.213 273.938H155.234L146.36 294.605ZM174.95 294.605H171.941L180.803 273.938H183.824L174.95 294.605ZM218.432 273.938L227.306 294.605H224.284L215.423 273.938H218.432ZM247.021 273.938L255.896 294.605H252.874L244.013 273.938H247.021ZM256.797 297.081V294.631H271.092V297.081H256.797ZM271.092 297.081V294.631H285.387V297.081H271.092ZM285.387 297.081V294.631H299.682V297.081H285.387ZM299.682 297.081V294.631H313.977V297.081H299.682ZM317.899 294.605H314.891L323.752 273.938H326.773L317.899 294.605ZM346.489 294.605H343.48L352.342 273.938H355.363L346.489 294.605ZM389.971 273.938L398.845 294.605H395.823L386.962 273.938H389.971ZM418.561 273.938L427.435 294.605H424.413L415.552 273.938H418.561ZM428.336 297.081V294.631H442.631V297.081H428.336ZM442.631 297.081V294.631H456.926V297.081H442.631ZM456.926 297.081V294.631H471.221V297.081H456.926ZM471.221 297.081V294.631H485.516V297.081H471.221ZM489.438 294.605H486.43L495.291 273.938H498.312L489.438 294.605ZM518.028 294.605H515.02L523.881 273.938H526.902L518.028 294.605ZM561.51 273.938L570.384 294.605H567.362L558.501 273.938H561.51ZM590.1 273.938L598.974 294.605H595.952L587.091 273.938H590.1ZM599.875 297.081V294.631H614.17V297.081H599.875ZM614.17 297.081V294.631H628.465V297.081H614.17ZM628.465 297.081V294.631H642.76V297.081H628.465ZM642.76 297.081V294.631H657.055V297.081H642.76ZM660.978 294.605H657.969L666.83 273.938H669.852L660.978 294.605ZM689.567 294.605H686.559L695.42 273.938H698.441L689.567 294.605ZM733.049 273.938L741.923 294.605H738.901L730.04 273.938H733.049ZM761.639 273.938L770.513 294.605H767.491L758.63 273.938H761.639ZM771.414 297.081V294.631H785.709V297.081H771.414ZM785.709 297.081V294.631H800.004V297.081H785.709ZM-196.121 303.938L-187.247 324.605H-190.269L-199.13 303.938H-196.121ZM-167.531 303.938L-158.657 324.605H-161.679L-170.54 303.938H-167.531ZM-157.756 327.081V324.631H-143.461V327.081H-157.756ZM-143.461 327.081V324.631H-129.166V327.081H-143.461ZM-125.243 324.605H-128.252L-119.391 303.938H-116.369L-125.243 324.605ZM-96.6533 324.605H-99.6621L-90.8008 303.938H-87.7793L-96.6533 324.605ZM-71.9863 327.081V324.631H-57.6914V327.081H-71.9863ZM-57.6914 327.081V324.631H-43.3965V327.081H-57.6914ZM-24.582 303.938L-15.708 324.605H-18.7295L-27.5908 303.938H-24.582ZM4.00781 303.938L12.8818 324.605H9.86035L0.999023 303.938H4.00781ZM13.7832 327.081V324.631H28.0781V327.081H13.7832ZM28.0781 327.081V324.631H42.373V327.081H28.0781ZM46.2959 324.605H43.2871L52.1484 303.938H55.1699L46.2959 324.605ZM74.8857 324.605H71.877L80.7383 303.938H83.7598L74.8857 324.605ZM99.5527 327.081V324.631H113.848V327.081H99.5527ZM113.848 327.081V324.631H128.143V327.081H113.848ZM146.957 303.938L155.831 324.605H152.81L143.948 303.938H146.957ZM175.547 303.938L184.421 324.605H181.399L172.538 303.938H175.547ZM185.322 327.081V324.631H199.617V327.081H185.322ZM199.617 327.081V324.631H213.912V327.081H199.617ZM217.835 324.605H214.826L223.688 303.938H226.709L217.835 324.605ZM246.425 324.605H243.416L252.277 303.938H255.299L246.425 324.605ZM271.092 327.081V324.631H285.387V327.081H271.092ZM285.387 327.081V324.631H299.682V327.081H285.387ZM318.496 303.938L327.37 324.605H324.349L315.487 303.938H318.496ZM347.086 303.938L355.96 324.605H352.938L344.077 303.938H347.086ZM356.861 327.081V324.631H371.156V327.081H356.861ZM371.156 327.081V324.631H385.451V327.081H371.156ZM389.374 324.605H386.365L395.227 303.938H398.248L389.374 324.605ZM417.964 324.605H414.955L423.816 303.938H426.838L417.964 324.605ZM442.631 327.081V324.631H456.926V327.081H442.631ZM456.926 327.081V324.631H471.221V327.081H456.926ZM490.035 303.938L498.909 324.605H495.888L487.026 303.938H490.035ZM518.625 303.938L527.499 324.605H524.478L515.616 303.938H518.625ZM528.4 327.081V324.631H542.695V327.081H528.4ZM542.695 327.081V324.631H556.99V327.081H542.695ZM560.913 324.605H557.904L566.766 303.938H569.787L560.913 324.605ZM589.503 324.605H586.494L595.355 303.938H598.377L589.503 324.605ZM614.17 327.081V324.631H628.465V327.081H614.17ZM628.465 327.081V324.631H642.76V327.081H628.465ZM661.574 303.938L670.448 324.605H667.427L658.565 303.938H661.574ZM690.164 303.938L699.038 324.605H696.017L687.155 303.938H690.164ZM699.939 327.081V324.631H714.234V327.081H699.939ZM714.234 327.081V324.631H728.529V327.081H714.234ZM732.452 324.605H729.443L738.305 303.938H741.326L732.452 324.605ZM761.042 324.605H758.033L766.895 303.938H769.916L761.042 324.605ZM785.709 327.081V324.631H800.004V327.081H785.709ZM-181.826 333.938L-172.952 354.605H-175.974L-184.835 333.938H-181.826ZM-172.051 357.081V354.631H-157.756V357.081H-172.051ZM-157.756 357.081V354.631H-143.461V357.081H-157.756ZM-143.461 357.081V354.631H-129.166V357.081H-143.461ZM-129.166 357.081V354.631H-114.871V357.081H-129.166ZM-110.948 354.605H-113.957L-105.096 333.938H-102.074L-110.948 354.605ZM-82.3584 354.605H-85.3672L-76.5059 333.938H-73.4844L-82.3584 354.605ZM-38.877 333.938L-30.0029 354.605H-33.0244L-41.8857 333.938H-38.877ZM-10.2871 333.938L-1.41309 354.605H-4.43457L-13.2959 333.938H-10.2871ZM-0.511719 357.081V354.631H13.7832V357.081H-0.511719ZM13.7832 357.081V354.631H28.0781V357.081H13.7832ZM28.0781 357.081V354.631H42.373V357.081H28.0781ZM42.373 357.081V354.631H56.668V357.081H42.373ZM60.5908 354.605H57.582L66.4434 333.938H69.4648L60.5908 354.605ZM89.1807 354.605H86.1719L95.0332 333.938H98.0547L89.1807 354.605ZM132.662 333.938L141.536 354.605H138.515L129.653 333.938H132.662ZM161.252 333.938L170.126 354.605H167.104L158.243 333.938H161.252ZM171.027 357.081V354.631H185.322V357.081H171.027ZM185.322 357.081V354.631H199.617V357.081H185.322ZM199.617 357.081V354.631H213.912V357.081H199.617ZM213.912 357.081V354.631H228.207V357.081H213.912ZM232.13 354.605H229.121L237.982 333.938H241.004L232.13 354.605ZM260.72 354.605H257.711L266.572 333.938H269.594L260.72 354.605ZM304.201 333.938L313.075 354.605H310.054L301.192 333.938H304.201ZM332.791 333.938L341.665 354.605H338.644L329.782 333.938H332.791ZM342.566 357.081V354.631H356.861V357.081H342.566ZM356.861 357.081V354.631H371.156V357.081H356.861ZM371.156 357.081V354.631H385.451V357.081H371.156ZM385.451 357.081V354.631H399.746V357.081H385.451ZM403.669 354.605H400.66L409.521 333.938H412.543L403.669 354.605ZM432.259 354.605H429.25L438.111 333.938H441.133L432.259 354.605ZM475.74 333.938L484.614 354.605H481.593L472.731 333.938H475.74ZM504.33 333.938L513.204 354.605H510.183L501.321 333.938H504.33ZM514.105 357.081V354.631H528.4V357.081H514.105ZM528.4 357.081V354.631H542.695V357.081H528.4ZM542.695 357.081V354.631H556.99V357.081H542.695ZM556.99 357.081V354.631H571.285V357.081H556.99ZM575.208 354.605H572.199L581.061 333.938H584.082L575.208 354.605ZM603.798 354.605H600.789L609.65 333.938H612.672L603.798 354.605ZM647.279 333.938L656.153 354.605H653.132L644.271 333.938H647.279ZM675.869 333.938L684.743 354.605H681.722L672.86 333.938H675.869ZM685.645 357.081V354.631H699.939V357.081H685.645ZM699.939 357.081V354.631H714.234V357.081H699.939ZM714.234 357.081V354.631H728.529V357.081H714.234ZM728.529 357.081V354.631H742.824V357.081H728.529ZM746.747 354.605H743.738L752.6 333.938H755.621L746.747 354.605ZM775.337 354.605H772.328L781.189 333.938H784.211L775.337 354.605ZM-182.423 384.605H-185.432L-176.57 363.938H-173.549L-182.423 384.605ZM-157.756 387.081V384.631H-143.461V387.081H-157.756ZM-143.461 387.081V384.631H-129.166V387.081H-143.461ZM-110.352 363.938L-101.478 384.605H-104.499L-113.36 363.938H-110.352ZM-81.7617 363.938L-72.8877 384.605H-75.9092L-84.7705 363.938H-81.7617ZM-71.9863 387.081V384.631H-57.6914V387.081H-71.9863ZM-57.6914 387.081V384.631H-43.3965V387.081H-57.6914ZM-39.4736 384.605H-42.4824L-33.6211 363.938H-30.5996L-39.4736 384.605ZM-10.8838 384.605H-13.8926L-5.03125 363.938H-2.00977L-10.8838 384.605ZM13.7832 387.081V384.631H28.0781V387.081H13.7832ZM28.0781 387.081V384.631H42.373V387.081H28.0781ZM61.1875 363.938L70.0615 384.605H67.04L58.1787 363.938H61.1875ZM89.7773 363.938L98.6514 384.605H95.6299L86.7686 363.938H89.7773ZM99.5527 387.081V384.631H113.848V387.081H99.5527ZM113.848 387.081V384.631H128.143V387.081H113.848ZM132.065 384.605H129.057L137.918 363.938H140.939L132.065 384.605ZM160.655 384.605H157.646L166.508 363.938H169.529L160.655 384.605ZM185.322 387.081V384.631H199.617V387.081H185.322ZM199.617 387.081V384.631H213.912V387.081H199.617ZM232.727 363.938L241.601 384.605H238.579L229.718 363.938H232.727ZM261.316 363.938L270.19 384.605H267.169L258.308 363.938H261.316ZM271.092 387.081V384.631H285.387V387.081H271.092ZM285.387 387.081V384.631H299.682V387.081H285.387ZM303.604 384.605H300.596L309.457 363.938H312.479L303.604 384.605ZM332.194 384.605H329.186L338.047 363.938H341.068L332.194 384.605ZM356.861 387.081V384.631H371.156V387.081H356.861ZM371.156 387.081V384.631H385.451V387.081H371.156ZM404.266 363.938L413.14 384.605H410.118L401.257 363.938H404.266ZM432.855 363.938L441.729 384.605H438.708L429.847 363.938H432.855ZM442.631 387.081V384.631H456.926V387.081H442.631ZM456.926 387.081V384.631H471.221V387.081H456.926ZM475.144 384.605H472.135L480.996 363.938H484.018L475.144 384.605ZM503.733 384.605H500.725L509.586 363.938H512.607L503.733 384.605ZM528.4 387.081V384.631H542.695V387.081H528.4ZM542.695 387.081V384.631H556.99V387.081H542.695ZM575.805 363.938L584.679 384.605H581.657L572.796 363.938H575.805ZM604.395 363.938L613.269 384.605H610.247L601.386 363.938H604.395ZM614.17 387.081V384.631H628.465V387.081H614.17ZM628.465 387.081V384.631H642.76V387.081H628.465ZM646.683 384.605H643.674L652.535 363.938H655.557L646.683 384.605ZM675.272 384.605H672.264L681.125 363.938H684.146L675.272 384.605ZM699.939 387.081V384.631H714.234V387.081H699.939ZM714.234 387.081V384.631H728.529V387.081H714.234ZM747.344 363.938L756.218 384.605H753.196L744.335 363.938H747.344ZM775.934 363.938L784.808 384.605H781.786L772.925 363.938H775.934ZM785.709 387.081V384.631H800.004V387.081H785.709ZM-196.718 414.605H-199.727L-190.865 393.938H-187.844L-196.718 414.605ZM-168.128 414.605H-171.137L-162.275 393.938H-159.254L-168.128 414.605ZM-124.646 393.938L-115.772 414.605H-118.794L-127.655 393.938H-124.646ZM-96.0566 393.938L-87.1826 414.605H-90.2041L-99.0654 393.938H-96.0566ZM-86.2812 417.081V414.631H-71.9863V417.081H-86.2812ZM-71.9863 417.081V414.631H-57.6914V417.081H-71.9863ZM-57.6914 417.081V414.631H-43.3965V417.081H-57.6914ZM-43.3965 417.081V414.631H-29.1016V417.081H-43.3965ZM-25.1787 414.605H-28.1875L-19.3262 393.938H-16.3047L-25.1787 414.605ZM3.41113 414.605H0.402344L9.26367 393.938H12.2852L3.41113 414.605ZM46.8926 393.938L55.7666 414.605H52.7451L43.8838 393.938H46.8926ZM75.4824 393.938L84.3564 414.605H81.335L72.4736 393.938H75.4824ZM85.2578 417.081V414.631H99.5527V417.081H85.2578ZM99.5527 417.081V414.631H113.848V417.081H99.5527ZM113.848 417.081V414.631H128.143V417.081H113.848ZM128.143 417.081V414.631H142.438V417.081H128.143ZM146.36 414.605H143.352L152.213 393.938H155.234L146.36 414.605ZM174.95 414.605H171.941L180.803 393.938H183.824L174.95 414.605ZM218.432 393.938L227.306 414.605H224.284L215.423 393.938H218.432ZM247.021 393.938L255.896 414.605H252.874L244.013 393.938H247.021ZM256.797 417.081V414.631H271.092V417.081H256.797ZM271.092 417.081V414.631H285.387V417.081H271.092ZM285.387 417.081V414.631H299.682V417.081H285.387ZM299.682 417.081V414.631H313.977V417.081H299.682ZM317.899 414.605H314.891L323.752 393.938H326.773L317.899 414.605ZM346.489 414.605H343.48L352.342 393.938H355.363L346.489 414.605ZM389.971 393.938L398.845 414.605H395.823L386.962 393.938H389.971ZM418.561 393.938L427.435 414.605H424.413L415.552 393.938H418.561ZM428.336 417.081V414.631H442.631V417.081H428.336ZM442.631 417.081V414.631H456.926V417.081H442.631ZM456.926 417.081V414.631H471.221V417.081H456.926ZM471.221 417.081V414.631H485.516V417.081H471.221ZM489.438 414.605H486.43L495.291 393.938H498.312L489.438 414.605ZM518.028 414.605H515.02L523.881 393.938H526.902L518.028 414.605ZM561.51 393.938L570.384 414.605H567.362L558.501 393.938H561.51ZM590.1 393.938L598.974 414.605H595.952L587.091 393.938H590.1ZM599.875 417.081V414.631H614.17V417.081H599.875ZM614.17 417.081V414.631H628.465V417.081H614.17ZM628.465 417.081V414.631H642.76V417.081H628.465ZM642.76 417.081V414.631H657.055V417.081H642.76ZM660.978 414.605H657.969L666.83 393.938H669.852L660.978 414.605ZM689.567 414.605H686.559L695.42 393.938H698.441L689.567 414.605ZM733.049 393.938L741.923 414.605H738.901L730.04 393.938H733.049ZM761.639 393.938L770.513 414.605H767.491L758.63 393.938H761.639ZM771.414 417.081V414.631H785.709V417.081H771.414ZM785.709 417.081V414.631H800.004V417.081H785.709ZM-196.121 423.938L-187.247 444.605H-190.269L-199.13 423.938H-196.121ZM-167.531 423.938L-158.657 444.605H-161.679L-170.54 423.938H-167.531ZM-157.756 447.081V444.631H-143.461V447.081H-157.756ZM-143.461 447.081V444.631H-129.166V447.081H-143.461ZM-125.243 444.605H-128.252L-119.391 423.938H-116.369L-125.243 444.605ZM-96.6533 444.605H-99.6621L-90.8008 423.938H-87.7793L-96.6533 444.605ZM-71.9863 447.081V444.631H-57.6914V447.081H-71.9863ZM-57.6914 447.081V444.631H-43.3965V447.081H-57.6914ZM-24.582 423.938L-15.708 444.605H-18.7295L-27.5908 423.938H-24.582ZM4.00781 423.938L12.8818 444.605H9.86035L0.999023 423.938H4.00781ZM13.7832 447.081V444.631H28.0781V447.081H13.7832ZM28.0781 447.081V444.631H42.373V447.081H28.0781ZM46.2959 444.605H43.2871L52.1484 423.938H55.1699L46.2959 444.605ZM74.8857 444.605H71.877L80.7383 423.938H83.7598L74.8857 444.605ZM99.5527 447.081V444.631H113.848V447.081H99.5527ZM113.848 447.081V444.631H128.143V447.081H113.848ZM146.957 423.938L155.831 444.605H152.81L143.948 423.938H146.957ZM175.547 423.938L184.421 444.605H181.399L172.538 423.938H175.547ZM185.322 447.081V444.631H199.617V447.081H185.322ZM199.617 447.081V444.631H213.912V447.081H199.617ZM217.835 444.605H214.826L223.688 423.938H226.709L217.835 444.605ZM246.425 444.605H243.416L252.277 423.938H255.299L246.425 444.605ZM271.092 447.081V444.631H285.387V447.081H271.092ZM285.387 447.081V444.631H299.682V447.081H285.387ZM318.496 423.938L327.37 444.605H324.349L315.487 423.938H318.496ZM347.086 423.938L355.96 444.605H352.938L344.077 423.938H347.086ZM356.861 447.081V444.631H371.156V447.081H356.861ZM371.156 447.081V444.631H385.451V447.081H371.156ZM389.374 444.605H386.365L395.227 423.938H398.248L389.374 444.605ZM417.964 444.605H414.955L423.816 423.938H426.838L417.964 444.605ZM442.631 447.081V444.631H456.926V447.081H442.631ZM456.926 447.081V444.631H471.221V447.081H456.926ZM490.035 423.938L498.909 444.605H495.888L487.026 423.938H490.035ZM518.625 423.938L527.499 444.605H524.478L515.616 423.938H518.625ZM528.4 447.081V444.631H542.695V447.081H528.4ZM542.695 447.081V444.631H556.99V447.081H542.695ZM560.913 444.605H557.904L566.766 423.938H569.787L560.913 444.605ZM589.503 444.605H586.494L595.355 423.938H598.377L589.503 444.605ZM614.17 447.081V444.631H628.465V447.081H614.17ZM628.465 447.081V444.631H642.76V447.081H628.465ZM661.574 423.938L670.448 444.605H667.427L658.565 423.938H661.574ZM690.164 423.938L699.038 444.605H696.017L687.155 423.938H690.164ZM699.939 447.081V444.631H714.234V447.081H699.939ZM714.234 447.081V444.631H728.529V447.081H714.234ZM732.452 444.605H729.443L738.305 423.938H741.326L732.452 444.605ZM761.042 444.605H758.033L766.895 423.938H769.916L761.042 444.605ZM785.709 447.081V444.631H800.004V447.081H785.709ZM-181.826 453.938L-172.952 474.605H-175.974L-184.835 453.938H-181.826ZM-172.051 477.081V474.631H-157.756V477.081H-172.051ZM-157.756 477.081V474.631H-143.461V477.081H-157.756ZM-143.461 477.081V474.631H-129.166V477.081H-143.461ZM-129.166 477.081V474.631H-114.871V477.081H-129.166ZM-110.948 474.605H-113.957L-105.096 453.938H-102.074L-110.948 474.605ZM-82.3584 474.605H-85.3672L-76.5059 453.938H-73.4844L-82.3584 474.605ZM-38.877 453.938L-30.0029 474.605H-33.0244L-41.8857 453.938H-38.877ZM-10.2871 453.938L-1.41309 474.605H-4.43457L-13.2959 453.938H-10.2871ZM-0.511719 477.081V474.631H13.7832V477.081H-0.511719ZM13.7832 477.081V474.631H28.0781V477.081H13.7832ZM28.0781 477.081V474.631H42.373V477.081H28.0781ZM42.373 477.081V474.631H56.668V477.081H42.373ZM60.5908 474.605H57.582L66.4434 453.938H69.4648L60.5908 474.605ZM89.1807 474.605H86.1719L95.0332 453.938H98.0547L89.1807 474.605ZM132.662 453.938L141.536 474.605H138.515L129.653 453.938H132.662ZM161.252 453.938L170.126 474.605H167.104L158.243 453.938H161.252ZM171.027 477.081V474.631H185.322V477.081H171.027ZM185.322 477.081V474.631H199.617V477.081H185.322ZM199.617 477.081V474.631H213.912V477.081H199.617ZM213.912 477.081V474.631H228.207V477.081H213.912ZM232.13 474.605H229.121L237.982 453.938H241.004L232.13 474.605ZM260.72 474.605H257.711L266.572 453.938H269.594L260.72 474.605ZM304.201 453.938L313.075 474.605H310.054L301.192 453.938H304.201ZM332.791 453.938L341.665 474.605H338.644L329.782 453.938H332.791ZM342.566 477.081V474.631H356.861V477.081H342.566ZM356.861 477.081V474.631H371.156V477.081H356.861ZM371.156 477.081V474.631H385.451V477.081H371.156ZM385.451 477.081V474.631H399.746V477.081H385.451ZM403.669 474.605H400.66L409.521 453.938H412.543L403.669 474.605ZM432.259 474.605H429.25L438.111 453.938H441.133L432.259 474.605ZM475.74 453.938L484.614 474.605H481.593L472.731 453.938H475.74ZM504.33 453.938L513.204 474.605H510.183L501.321 453.938H504.33ZM514.105 477.081V474.631H528.4V477.081H514.105ZM528.4 477.081V474.631H542.695V477.081H528.4ZM542.695 477.081V474.631H556.99V477.081H542.695ZM556.99 477.081V474.631H571.285V477.081H556.99ZM575.208 474.605H572.199L581.061 453.938H584.082L575.208 474.605ZM603.798 474.605H600.789L609.65 453.938H612.672L603.798 474.605ZM647.279 453.938L656.153 474.605H653.132L644.271 453.938H647.279ZM675.869 453.938L684.743 474.605H681.722L672.86 453.938H675.869ZM685.645 477.081V474.631H699.939V477.081H685.645ZM699.939 477.081V474.631H714.234V477.081H699.939ZM714.234 477.081V474.631H728.529V477.081H714.234ZM728.529 477.081V474.631H742.824V477.081H728.529ZM746.747 474.605H743.738L752.6 453.938H755.621L746.747 474.605ZM775.337 474.605H772.328L781.189 453.938H784.211L775.337 474.605ZM-182.423 504.605H-185.432L-176.57 483.938H-173.549L-182.423 504.605ZM-157.756 507.081V504.631H-143.461V507.081H-157.756ZM-143.461 507.081V504.631H-129.166V507.081H-143.461ZM-110.352 483.938L-101.478 504.605H-104.499L-113.36 483.938H-110.352ZM-81.7617 483.938L-72.8877 504.605H-75.9092L-84.7705 483.938H-81.7617ZM-71.9863 507.081V504.631H-57.6914V507.081H-71.9863ZM-57.6914 507.081V504.631H-43.3965V507.081H-57.6914ZM-39.4736 504.605H-42.4824L-33.6211 483.938H-30.5996L-39.4736 504.605ZM-10.8838 504.605H-13.8926L-5.03125 483.938H-2.00977L-10.8838 504.605ZM13.7832 507.081V504.631H28.0781V507.081H13.7832ZM28.0781 507.081V504.631H42.373V507.081H28.0781ZM61.1875 483.938L70.0615 504.605H67.04L58.1787 483.938H61.1875ZM89.7773 483.938L98.6514 504.605H95.6299L86.7686 483.938H89.7773ZM99.5527 507.081V504.631H113.848V507.081H99.5527ZM113.848 507.081V504.631H128.143V507.081H113.848ZM132.065 504.605H129.057L137.918 483.938H140.939L132.065 504.605ZM160.655 504.605H157.646L166.508 483.938H169.529L160.655 504.605ZM185.322 507.081V504.631H199.617V507.081H185.322ZM199.617 507.081V504.631H213.912V507.081H199.617ZM232.727 483.938L241.601 504.605H238.579L229.718 483.938H232.727ZM261.316 483.938L270.19 504.605H267.169L258.308 483.938H261.316ZM271.092 507.081V504.631H285.387V507.081H271.092ZM285.387 507.081V504.631H299.682V507.081H285.387ZM303.604 504.605H300.596L309.457 483.938H312.479L303.604 504.605ZM332.194 504.605H329.186L338.047 483.938H341.068L332.194 504.605ZM356.861 507.081V504.631H371.156V507.081H356.861ZM371.156 507.081V504.631H385.451V507.081H371.156ZM404.266 483.938L413.14 504.605H410.118L401.257 483.938H404.266ZM432.855 483.938L441.729 504.605H438.708L429.847 483.938H432.855ZM442.631 507.081V504.631H456.926V507.081H442.631ZM456.926 507.081V504.631H471.221V507.081H456.926ZM475.144 504.605H472.135L480.996 483.938H484.018L475.144 504.605ZM503.733 504.605H500.725L509.586 483.938H512.607L503.733 504.605ZM528.4 507.081V504.631H542.695V507.081H528.4ZM542.695 507.081V504.631H556.99V507.081H542.695ZM575.805 483.938L584.679 504.605H581.657L572.796 483.938H575.805ZM604.395 483.938L613.269 504.605H610.247L601.386 483.938H604.395ZM614.17 507.081V504.631H628.465V507.081H614.17ZM628.465 507.081V504.631H642.76V507.081H628.465ZM646.683 504.605H643.674L652.535 483.938H655.557L646.683 504.605ZM675.272 504.605H672.264L681.125 483.938H684.146L675.272 504.605ZM699.939 507.081V504.631H714.234V507.081H699.939ZM714.234 507.081V504.631H728.529V507.081H714.234ZM747.344 483.938L756.218 504.605H753.196L744.335 483.938H747.344ZM775.934 483.938L784.808 504.605H781.786L772.925 483.938H775.934ZM785.709 507.081V504.631H800.004V507.081H785.709ZM-196.718 534.605H-199.727L-190.865 513.938H-187.844L-196.718 534.605ZM-168.128 534.605H-171.137L-162.275 513.938H-159.254L-168.128 534.605ZM-124.646 513.938L-115.772 534.605H-118.794L-127.655 513.938H-124.646ZM-96.0566 513.938L-87.1826 534.605H-90.2041L-99.0654 513.938H-96.0566ZM-86.2812 537.081V534.631H-71.9863V537.081H-86.2812ZM-71.9863 537.081V534.631H-57.6914V537.081H-71.9863ZM-57.6914 537.081V534.631H-43.3965V537.081H-57.6914ZM-43.3965 537.081V534.631H-29.1016V537.081H-43.3965ZM-25.1787 534.605H-28.1875L-19.3262 513.938H-16.3047L-25.1787 534.605ZM3.41113 534.605H0.402344L9.26367 513.938H12.2852L3.41113 534.605ZM46.8926 513.938L55.7666 534.605H52.7451L43.8838 513.938H46.8926ZM75.4824 513.938L84.3564 534.605H81.335L72.4736 513.938H75.4824ZM85.2578 537.081V534.631H99.5527V537.081H85.2578ZM99.5527 537.081V534.631H113.848V537.081H99.5527ZM113.848 537.081V534.631H128.143V537.081H113.848ZM128.143 537.081V534.631H142.438V537.081H128.143ZM146.36 534.605H143.352L152.213 513.938H155.234L146.36 534.605ZM174.95 534.605H171.941L180.803 513.938H183.824L174.95 534.605ZM218.432 513.938L227.306 534.605H224.284L215.423 513.938H218.432ZM247.021 513.938L255.896 534.605H252.874L244.013 513.938H247.021ZM256.797 537.081V534.631H271.092V537.081H256.797ZM271.092 537.081V534.631H285.387V537.081H271.092ZM285.387 537.081V534.631H299.682V537.081H285.387ZM299.682 537.081V534.631H313.977V537.081H299.682ZM317.899 534.605H314.891L323.752 513.938H326.773L317.899 534.605ZM346.489 534.605H343.48L352.342 513.938H355.363L346.489 534.605ZM389.971 513.938L398.845 534.605H395.823L386.962 513.938H389.971ZM418.561 513.938L427.435 534.605H424.413L415.552 513.938H418.561ZM428.336 537.081V534.631H442.631V537.081H428.336ZM442.631 537.081V534.631H456.926V537.081H442.631ZM456.926 537.081V534.631H471.221V537.081H456.926ZM471.221 537.081V534.631H485.516V537.081H471.221ZM489.438 534.605H486.43L495.291 513.938H498.312L489.438 534.605ZM518.028 534.605H515.02L523.881 513.938H526.902L518.028 534.605ZM561.51 513.938L570.384 534.605H567.362L558.501 513.938H561.51ZM590.1 513.938L598.974 534.605H595.952L587.091 513.938H590.1ZM599.875 537.081V534.631H614.17V537.081H599.875ZM614.17 537.081V534.631H628.465V537.081H614.17ZM628.465 537.081V534.631H642.76V537.081H628.465ZM642.76 537.081V534.631H657.055V537.081H642.76ZM660.978 534.605H657.969L666.83 513.938H669.852L660.978 534.605ZM689.567 534.605H686.559L695.42 513.938H698.441L689.567 534.605ZM733.049 513.938L741.923 534.605H738.901L730.04 513.938H733.049ZM761.639 513.938L770.513 534.605H767.491L758.63 513.938H761.639ZM771.414 537.081V534.631H785.709V537.081H771.414ZM785.709 537.081V534.631H800.004V537.081H785.709ZM-196.121 543.938L-187.247 564.605H-190.269L-199.13 543.938H-196.121ZM-167.531 543.938L-158.657 564.605H-161.679L-170.54 543.938H-167.531ZM-157.756 567.081V564.631H-143.461V567.081H-157.756ZM-143.461 567.081V564.631H-129.166V567.081H-143.461ZM-125.243 564.605H-128.252L-119.391 543.938H-116.369L-125.243 564.605ZM-96.6533 564.605H-99.6621L-90.8008 543.938H-87.7793L-96.6533 564.605ZM-71.9863 567.081V564.631H-57.6914V567.081H-71.9863ZM-57.6914 567.081V564.631H-43.3965V567.081H-57.6914ZM-24.582 543.938L-15.708 564.605H-18.7295L-27.5908 543.938H-24.582ZM4.00781 543.938L12.8818 564.605H9.86035L0.999023 543.938H4.00781ZM13.7832 567.081V564.631H28.0781V567.081H13.7832ZM28.0781 567.081V564.631H42.373V567.081H28.0781ZM46.2959 564.605H43.2871L52.1484 543.938H55.1699L46.2959 564.605ZM74.8857 564.605H71.877L80.7383 543.938H83.7598L74.8857 564.605ZM99.5527 567.081V564.631H113.848V567.081H99.5527ZM113.848 567.081V564.631H128.143V567.081H113.848ZM146.957 543.938L155.831 564.605H152.81L143.948 543.938H146.957ZM175.547 543.938L184.421 564.605H181.399L172.538 543.938H175.547ZM185.322 567.081V564.631H199.617V567.081H185.322ZM199.617 567.081V564.631H213.912V567.081H199.617ZM217.835 564.605H214.826L223.688 543.938H226.709L217.835 564.605ZM246.425 564.605H243.416L252.277 543.938H255.299L246.425 564.605ZM271.092 567.081V564.631H285.387V567.081H271.092ZM285.387 567.081V564.631H299.682V567.081H285.387ZM318.496 543.938L327.37 564.605H324.349L315.487 543.938H318.496ZM347.086 543.938L355.96 564.605H352.938L344.077 543.938H347.086ZM356.861 567.081V564.631H371.156V567.081H356.861ZM371.156 567.081V564.631H385.451V567.081H371.156ZM389.374 564.605H386.365L395.227 543.938H398.248L389.374 564.605ZM417.964 564.605H414.955L423.816 543.938H426.838L417.964 564.605ZM442.631 567.081V564.631H456.926V567.081H442.631ZM456.926 567.081V564.631H471.221V567.081H456.926ZM490.035 543.938L498.909 564.605H495.888L487.026 543.938H490.035ZM518.625 543.938L527.499 564.605H524.478L515.616 543.938H518.625ZM528.4 567.081V564.631H542.695V567.081H528.4ZM542.695 567.081V564.631H556.99V567.081H542.695ZM560.913 564.605H557.904L566.766 543.938H569.787L560.913 564.605ZM589.503 564.605H586.494L595.355 543.938H598.377L589.503 564.605ZM614.17 567.081V564.631H628.465V567.081H614.17ZM628.465 567.081V564.631H642.76V567.081H628.465ZM661.574 543.938L670.448 564.605H667.427L658.565 543.938H661.574ZM690.164 543.938L699.038 564.605H696.017L687.155 543.938H690.164ZM699.939 567.081V564.631H714.234V567.081H699.939ZM714.234 567.081V564.631H728.529V567.081H714.234ZM732.452 564.605H729.443L738.305 543.938H741.326L732.452 564.605ZM761.042 564.605H758.033L766.895 543.938H769.916L761.042 564.605ZM785.709 567.081V564.631H800.004V567.081H785.709ZM-181.826 573.938L-172.952 594.605H-175.974L-184.835 573.938H-181.826ZM-172.051 597.081V594.631H-157.756V597.081H-172.051ZM-157.756 597.081V594.631H-143.461V597.081H-157.756ZM-143.461 597.081V594.631H-129.166V597.081H-143.461ZM-129.166 597.081V594.631H-114.871V597.081H-129.166ZM-110.948 594.605H-113.957L-105.096 573.938H-102.074L-110.948 594.605ZM-82.3584 594.605H-85.3672L-76.5059 573.938H-73.4844L-82.3584 594.605ZM-38.877 573.938L-30.0029 594.605H-33.0244L-41.8857 573.938H-38.877ZM-10.2871 573.938L-1.41309 594.605H-4.43457L-13.2959 573.938H-10.2871ZM-0.511719 597.081V594.631H13.7832V597.081H-0.511719ZM13.7832 597.081V594.631H28.0781V597.081H13.7832ZM28.0781 597.081V594.631H42.373V597.081H28.0781ZM42.373 597.081V594.631H56.668V597.081H42.373ZM60.5908 594.605H57.582L66.4434 573.938H69.4648L60.5908 594.605ZM89.1807 594.605H86.1719L95.0332 573.938H98.0547L89.1807 594.605ZM132.662 573.938L141.536 594.605H138.515L129.653 573.938H132.662ZM161.252 573.938L170.126 594.605H167.104L158.243 573.938H161.252ZM171.027 597.081V594.631H185.322V597.081H171.027ZM185.322 597.081V594.631H199.617V597.081H185.322ZM199.617 597.081V594.631H213.912V597.081H199.617ZM213.912 597.081V594.631H228.207V597.081H213.912ZM232.13 594.605H229.121L237.982 573.938H241.004L232.13 594.605ZM260.72 594.605H257.711L266.572 573.938H269.594L260.72 594.605ZM304.201 573.938L313.075 594.605H310.054L301.192 573.938H304.201ZM332.791 573.938L341.665 594.605H338.644L329.782 573.938H332.791ZM342.566 597.081V594.631H356.861V597.081H342.566ZM356.861 597.081V594.631H371.156V597.081H356.861ZM371.156 597.081V594.631H385.451V597.081H371.156ZM385.451 597.081V594.631H399.746V597.081H385.451ZM403.669 594.605H400.66L409.521 573.938H412.543L403.669 594.605ZM432.259 594.605H429.25L438.111 573.938H441.133L432.259 594.605ZM475.74 573.938L484.614 594.605H481.593L472.731 573.938H475.74ZM504.33 573.938L513.204 594.605H510.183L501.321 573.938H504.33ZM514.105 597.081V594.631H528.4V597.081H514.105ZM528.4 597.081V594.631H542.695V597.081H528.4ZM542.695 597.081V594.631H556.99V597.081H542.695ZM556.99 597.081V594.631H571.285V597.081H556.99ZM575.208 594.605H572.199L581.061 573.938H584.082L575.208 594.605ZM603.798 594.605H600.789L609.65 573.938H612.672L603.798 594.605ZM647.279 573.938L656.153 594.605H653.132L644.271 573.938H647.279ZM675.869 573.938L684.743 594.605H681.722L672.86 573.938H675.869ZM685.645 597.081V594.631H699.939V597.081H685.645ZM699.939 597.081V594.631H714.234V597.081H699.939ZM714.234 597.081V594.631H728.529V597.081H714.234ZM728.529 597.081V594.631H742.824V597.081H728.529ZM746.747 594.605H743.738L752.6 573.938H755.621L746.747 594.605ZM775.337 594.605H772.328L781.189 573.938H784.211L775.337 594.605ZM-182.423 624.605H-185.432L-176.57 603.938H-173.549L-182.423 624.605ZM-157.756 627.081V624.631H-143.461V627.081H-157.756ZM-143.461 627.081V624.631H-129.166V627.081H-143.461ZM-110.352 603.938L-101.478 624.605H-104.499L-113.36 603.938H-110.352ZM-81.7617 603.938L-72.8877 624.605H-75.9092L-84.7705 603.938H-81.7617ZM-71.9863 627.081V624.631H-57.6914V627.081H-71.9863ZM-57.6914 627.081V624.631H-43.3965V627.081H-57.6914ZM-39.4736 624.605H-42.4824L-33.6211 603.938H-30.5996L-39.4736 624.605ZM-10.8838 624.605H-13.8926L-5.03125 603.938H-2.00977L-10.8838 624.605ZM13.7832 627.081V624.631H28.0781V627.081H13.7832ZM28.0781 627.081V624.631H42.373V627.081H28.0781ZM61.1875 603.938L70.0615 624.605H67.04L58.1787 603.938H61.1875ZM89.7773 603.938L98.6514 624.605H95.6299L86.7686 603.938H89.7773ZM99.5527 627.081V624.631H113.848V627.081H99.5527ZM113.848 627.081V624.631H128.143V627.081H113.848ZM132.065 624.605H129.057L137.918 603.938H140.939L132.065 624.605ZM160.655 624.605H157.646L166.508 603.938H169.529L160.655 624.605ZM185.322 627.081V624.631H199.617V627.081H185.322ZM199.617 627.081V624.631H213.912V627.081H199.617ZM232.727 603.938L241.601 624.605H238.579L229.718 603.938H232.727ZM261.316 603.938L270.19 624.605H267.169L258.308 603.938H261.316ZM271.092 627.081V624.631H285.387V627.081H271.092ZM285.387 627.081V624.631H299.682V627.081H285.387ZM303.604 624.605H300.596L309.457 603.938H312.479L303.604 624.605ZM332.194 624.605H329.186L338.047 603.938H341.068L332.194 624.605ZM356.861 627.081V624.631H371.156V627.081H356.861ZM371.156 627.081V624.631H385.451V627.081H371.156ZM404.266 603.938L413.14 624.605H410.118L401.257 603.938H404.266ZM432.855 603.938L441.729 624.605H438.708L429.847 603.938H432.855ZM442.631 627.081V624.631H456.926V627.081H442.631ZM456.926 627.081V624.631H471.221V627.081H456.926ZM475.144 624.605H472.135L480.996 603.938H484.018L475.144 624.605ZM503.733 624.605H500.725L509.586 603.938H512.607L503.733 624.605ZM528.4 627.081V624.631H542.695V627.081H528.4ZM542.695 627.081V624.631H556.99V627.081H542.695ZM575.805 603.938L584.679 624.605H581.657L572.796 603.938H575.805ZM604.395 603.938L613.269 624.605H610.247L601.386 603.938H604.395ZM614.17 627.081V624.631H628.465V627.081H614.17ZM628.465 627.081V624.631H642.76V627.081H628.465ZM646.683 624.605H643.674L652.535 603.938H655.557L646.683 624.605ZM675.272 624.605H672.264L681.125 603.938H684.146L675.272 624.605ZM699.939 627.081V624.631H714.234V627.081H699.939ZM714.234 627.081V624.631H728.529V627.081H714.234ZM747.344 603.938L756.218 624.605H753.196L744.335 603.938H747.344ZM775.934 603.938L784.808 624.605H781.786L772.925 603.938H775.934ZM785.709 627.081V624.631H800.004V627.081H785.709ZM-196.718 654.605H-199.727L-190.865 633.938H-187.844L-196.718 654.605ZM-168.128 654.605H-171.137L-162.275 633.938H-159.254L-168.128 654.605ZM-124.646 633.938L-115.772 654.605H-118.794L-127.655 633.938H-124.646ZM-96.0566 633.938L-87.1826 654.605H-90.2041L-99.0654 633.938H-96.0566ZM-86.2812 657.081V654.631H-71.9863V657.081H-86.2812ZM-71.9863 657.081V654.631H-57.6914V657.081H-71.9863ZM-57.6914 657.081V654.631H-43.3965V657.081H-57.6914ZM-43.3965 657.081V654.631H-29.1016V657.081H-43.3965ZM-25.1787 654.605H-28.1875L-19.3262 633.938H-16.3047L-25.1787 654.605ZM3.41113 654.605H0.402344L9.26367 633.938H12.2852L3.41113 654.605ZM46.8926 633.938L55.7666 654.605H52.7451L43.8838 633.938H46.8926ZM75.4824 633.938L84.3564 654.605H81.335L72.4736 633.938H75.4824ZM85.2578 657.081V654.631H99.5527V657.081H85.2578ZM99.5527 657.081V654.631H113.848V657.081H99.5527ZM113.848 657.081V654.631H128.143V657.081H113.848ZM128.143 657.081V654.631H142.438V657.081H128.143ZM146.36 654.605H143.352L152.213 633.938H155.234L146.36 654.605ZM174.95 654.605H171.941L180.803 633.938H183.824L174.95 654.605ZM218.432 633.938L227.306 654.605H224.284L215.423 633.938H218.432ZM247.021 633.938L255.896 654.605H252.874L244.013 633.938H247.021ZM256.797 657.081V654.631H271.092V657.081H256.797ZM271.092 657.081V654.631H285.387V657.081H271.092ZM285.387 657.081V654.631H299.682V657.081H285.387ZM299.682 657.081V654.631H313.977V657.081H299.682ZM317.899 654.605H314.891L323.752 633.938H326.773L317.899 654.605ZM346.489 654.605H343.48L352.342 633.938H355.363L346.489 654.605ZM389.971 633.938L398.845 654.605H395.823L386.962 633.938H389.971ZM418.561 633.938L427.435 654.605H424.413L415.552 633.938H418.561ZM428.336 657.081V654.631H442.631V657.081H428.336ZM442.631 657.081V654.631H456.926V657.081H442.631ZM456.926 657.081V654.631H471.221V657.081H456.926ZM471.221 657.081V654.631H485.516V657.081H471.221ZM489.438 654.605H486.43L495.291 633.938H498.312L489.438 654.605ZM518.028 654.605H515.02L523.881 633.938H526.902L518.028 654.605ZM561.51 633.938L570.384 654.605H567.362L558.501 633.938H561.51ZM590.1 633.938L598.974 654.605H595.952L587.091 633.938H590.1ZM599.875 657.081V654.631H614.17V657.081H599.875ZM614.17 657.081V654.631H628.465V657.081H614.17ZM628.465 657.081V654.631H642.76V657.081H628.465ZM642.76 657.081V654.631H657.055V657.081H642.76ZM660.978 654.605H657.969L666.83 633.938H669.852L660.978 654.605ZM689.567 654.605H686.559L695.42 633.938H698.441L689.567 654.605ZM733.049 633.938L741.923 654.605H738.901L730.04 633.938H733.049ZM761.639 633.938L770.513 654.605H767.491L758.63 633.938H761.639ZM771.414 657.081V654.631H785.709V657.081H771.414ZM785.709 657.081V654.631H800.004V657.081H785.709Z" fill="#EAEAEA"/>
</g>
</svg>
