<svg width="713" height="327" viewBox="0 0 713 327" fill="none" xmlns="http://www.w3.org/2000/svg">
<mask id="mask0" mask-type="alpha" maskUnits="userSpaceOnUse" x="0" y="0" width="713" height="327">
<rect x="0.674316" y="0.96582" width="711.668" height="325.248" fill="#C4C4C4"/>
</mask>
<g mask="url(#mask0)">
<path d="M15.3955 24.6953H12.3867L21.248 4.02734H24.2695L15.3955 24.6953ZM40.0625 27.1709V24.7207H54.3574V27.1709H40.0625ZM54.3574 27.1709V24.7207H68.6523V27.1709H54.3574ZM87.4668 4.02734L96.3408 24.6953H93.3193L84.458 4.02734H87.4668ZM116.057 4.02734L124.931 24.6953H121.909L113.048 4.02734H116.057ZM125.832 27.1709V24.7207H140.127V27.1709H125.832ZM140.127 27.1709V24.7207H154.422V27.1709H140.127ZM158.345 24.6953H155.336L164.197 4.02734H167.219L158.345 24.6953ZM186.935 24.6953H183.926L192.787 4.02734H195.809L186.935 24.6953ZM211.602 27.1709V24.7207H225.896V27.1709H211.602ZM225.896 27.1709V24.7207H240.191V27.1709H225.896ZM259.006 4.02734L267.88 24.6953H264.858L255.997 4.02734H259.006ZM287.596 4.02734L296.47 24.6953H293.448L284.587 4.02734H287.596ZM297.371 27.1709V24.7207H311.666V27.1709H297.371ZM311.666 27.1709V24.7207H325.961V27.1709H311.666ZM329.884 24.6953H326.875L335.736 4.02734H338.758L329.884 24.6953ZM358.474 24.6953H355.465L364.326 4.02734H367.348L358.474 24.6953ZM383.141 27.1709V24.7207H397.436V27.1709H383.141ZM397.436 27.1709V24.7207H411.73V27.1709H397.436ZM430.545 4.02734L439.419 24.6953H436.397L427.536 4.02734H430.545ZM459.135 4.02734L468.009 24.6953H464.987L456.126 4.02734H459.135ZM468.91 27.1709V24.7207H483.205V27.1709H468.91ZM483.205 27.1709V24.7207H497.5V27.1709H483.205ZM501.423 24.6953H498.414L507.275 4.02734H510.297L501.423 24.6953ZM530.013 24.6953H527.004L535.865 4.02734H538.887L530.013 24.6953ZM554.68 27.1709V24.7207H568.975V27.1709H554.68ZM568.975 27.1709V24.7207H583.27V27.1709H568.975ZM602.084 4.02734L610.958 24.6953H607.937L599.075 4.02734H602.084ZM630.674 4.02734L639.548 24.6953H636.526L627.665 4.02734H630.674ZM640.449 27.1709V24.7207H654.744V27.1709H640.449ZM654.744 27.1709V24.7207H669.039V27.1709H654.744ZM672.962 24.6953H669.953L678.814 4.02734H681.836L672.962 24.6953ZM701.552 24.6953H698.543L707.404 4.02734H710.426L701.552 24.6953ZM726.219 27.1709V24.7207H740.514V27.1709H726.219ZM740.514 27.1709V24.7207H754.809V27.1709H740.514ZM773.623 4.02734L782.497 24.6953H779.476L770.614 4.02734H773.623ZM802.213 4.02734L811.087 24.6953H808.065L799.204 4.02734H802.213ZM811.988 27.1709V24.7207H826.283V27.1709H811.988ZM826.283 27.1709V24.7207H840.578V27.1709H826.283ZM844.501 24.6953H841.492L850.354 4.02734H853.375L844.501 24.6953ZM873.091 24.6953H870.082L878.943 4.02734H881.965L873.091 24.6953ZM897.758 27.1709V24.7207H912.053V27.1709H897.758ZM912.053 27.1709V24.7207H926.348V27.1709H912.053ZM945.162 4.02734L954.036 24.6953H951.015L942.153 4.02734H945.162ZM973.752 4.02734L982.626 24.6953H979.604L970.743 4.02734H973.752ZM983.527 27.1709V24.7207H997.822V27.1709H983.527ZM1.10059 54.6953H-1.9082L6.95312 34.0273H9.97461L1.10059 54.6953ZM29.6904 54.6953H26.6816L35.543 34.0273H38.5645L29.6904 54.6953ZM73.1719 34.0273L82.0459 54.6953H79.0244L70.1631 34.0273H73.1719ZM101.762 34.0273L110.636 54.6953H107.614L98.7529 34.0273H101.762ZM111.537 57.1709V54.7207H125.832V57.1709H111.537ZM125.832 57.1709V54.7207H140.127V57.1709H125.832ZM140.127 57.1709V54.7207H154.422V57.1709H140.127ZM154.422 57.1709V54.7207H168.717V57.1709H154.422ZM172.64 54.6953H169.631L178.492 34.0273H181.514L172.64 54.6953ZM201.229 54.6953H198.221L207.082 34.0273H210.104L201.229 54.6953ZM244.711 34.0273L253.585 54.6953H250.563L241.702 34.0273H244.711ZM273.301 34.0273L282.175 54.6953H279.153L270.292 34.0273H273.301ZM283.076 57.1709V54.7207H297.371V57.1709H283.076ZM297.371 57.1709V54.7207H311.666V57.1709H297.371ZM311.666 57.1709V54.7207H325.961V57.1709H311.666ZM325.961 57.1709V54.7207H340.256V57.1709H325.961ZM344.179 54.6953H341.17L350.031 34.0273H353.053L344.179 54.6953ZM372.769 54.6953H369.76L378.621 34.0273H381.643L372.769 54.6953ZM416.25 34.0273L425.124 54.6953H422.103L413.241 34.0273H416.25ZM444.84 34.0273L453.714 54.6953H450.692L441.831 34.0273H444.84ZM454.615 57.1709V54.7207H468.91V57.1709H454.615ZM468.91 57.1709V54.7207H483.205V57.1709H468.91ZM483.205 57.1709V54.7207H497.5V57.1709H483.205ZM497.5 57.1709V54.7207H511.795V57.1709H497.5ZM515.718 54.6953H512.709L521.57 34.0273H524.592L515.718 54.6953ZM544.308 54.6953H541.299L550.16 34.0273H553.182L544.308 54.6953ZM587.789 34.0273L596.663 54.6953H593.642L584.78 34.0273H587.789ZM616.379 34.0273L625.253 54.6953H622.231L613.37 34.0273H616.379ZM626.154 57.1709V54.7207H640.449V57.1709H626.154ZM640.449 57.1709V54.7207H654.744V57.1709H640.449ZM654.744 57.1709V54.7207H669.039V57.1709H654.744ZM669.039 57.1709V54.7207H683.334V57.1709H669.039ZM687.257 54.6953H684.248L693.109 34.0273H696.131L687.257 54.6953ZM715.847 54.6953H712.838L721.699 34.0273H724.721L715.847 54.6953ZM759.328 34.0273L768.202 54.6953H765.181L756.319 34.0273H759.328ZM787.918 34.0273L796.792 54.6953H793.771L784.909 34.0273H787.918ZM797.693 57.1709V54.7207H811.988V57.1709H797.693ZM811.988 57.1709V54.7207H826.283V57.1709H811.988ZM826.283 57.1709V54.7207H840.578V57.1709H826.283ZM840.578 57.1709V54.7207H854.873V57.1709H840.578ZM858.796 54.6953H855.787L864.648 34.0273H867.67L858.796 54.6953ZM887.386 54.6953H884.377L893.238 34.0273H896.26L887.386 54.6953ZM930.867 34.0273L939.741 54.6953H936.72L927.858 34.0273H930.867ZM959.457 34.0273L968.331 54.6953H965.31L956.448 34.0273H959.457ZM969.232 57.1709V54.7207H983.527V57.1709H969.232ZM983.527 57.1709V54.7207H997.822V57.1709H983.527ZM1.69727 64.0273L10.5713 84.6953H7.5498L-1.31152 64.0273H1.69727ZM30.2871 64.0273L39.1611 84.6953H36.1396L27.2783 64.0273H30.2871ZM40.0625 87.1709V84.7207H54.3574V87.1709H40.0625ZM54.3574 87.1709V84.7207H68.6523V87.1709H54.3574ZM72.5752 84.6953H69.5664L78.4277 64.0273H81.4492L72.5752 84.6953ZM101.165 84.6953H98.1562L107.018 64.0273H110.039L101.165 84.6953ZM125.832 87.1709V84.7207H140.127V87.1709H125.832ZM140.127 87.1709V84.7207H154.422V87.1709H140.127ZM173.236 64.0273L182.11 84.6953H179.089L170.228 64.0273H173.236ZM201.826 64.0273L210.7 84.6953H207.679L198.817 64.0273H201.826ZM211.602 87.1709V84.7207H225.896V87.1709H211.602ZM225.896 87.1709V84.7207H240.191V87.1709H225.896ZM244.114 84.6953H241.105L249.967 64.0273H252.988L244.114 84.6953ZM272.704 84.6953H269.695L278.557 64.0273H281.578L272.704 84.6953ZM297.371 87.1709V84.7207H311.666V87.1709H297.371ZM311.666 87.1709V84.7207H325.961V87.1709H311.666ZM344.775 64.0273L353.649 84.6953H350.628L341.767 64.0273H344.775ZM373.365 64.0273L382.239 84.6953H379.218L370.356 64.0273H373.365ZM383.141 87.1709V84.7207H397.436V87.1709H383.141ZM397.436 87.1709V84.7207H411.73V87.1709H397.436ZM415.653 84.6953H412.645L421.506 64.0273H424.527L415.653 84.6953ZM444.243 84.6953H441.234L450.096 64.0273H453.117L444.243 84.6953ZM468.91 87.1709V84.7207H483.205V87.1709H468.91ZM483.205 87.1709V84.7207H497.5V87.1709H483.205ZM516.314 64.0273L525.188 84.6953H522.167L513.306 64.0273H516.314ZM544.904 64.0273L553.778 84.6953H550.757L541.896 64.0273H544.904ZM554.68 87.1709V84.7207H568.975V87.1709H554.68ZM568.975 87.1709V84.7207H583.27V87.1709H568.975ZM587.192 84.6953H584.184L593.045 64.0273H596.066L587.192 84.6953ZM615.782 84.6953H612.773L621.635 64.0273H624.656L615.782 84.6953ZM640.449 87.1709V84.7207H654.744V87.1709H640.449ZM654.744 87.1709V84.7207H669.039V87.1709H654.744ZM687.854 64.0273L696.728 84.6953H693.706L684.845 64.0273H687.854ZM716.443 64.0273L725.317 84.6953H722.296L713.435 64.0273H716.443ZM726.219 87.1709V84.7207H740.514V87.1709H726.219ZM740.514 87.1709V84.7207H754.809V87.1709H740.514ZM758.731 84.6953H755.723L764.584 64.0273H767.605L758.731 84.6953ZM787.321 84.6953H784.312L793.174 64.0273H796.195L787.321 84.6953ZM811.988 87.1709V84.7207H826.283V87.1709H811.988ZM826.283 87.1709V84.7207H840.578V87.1709H826.283ZM859.393 64.0273L868.267 84.6953H865.245L856.384 64.0273H859.393ZM887.982 64.0273L896.856 84.6953H893.835L884.974 64.0273H887.982ZM897.758 87.1709V84.7207H912.053V87.1709H897.758ZM912.053 87.1709V84.7207H926.348V87.1709H912.053ZM930.271 84.6953H927.262L936.123 64.0273H939.145L930.271 84.6953ZM958.86 84.6953H955.852L964.713 64.0273H967.734L958.86 84.6953ZM983.527 87.1709V84.7207H997.822V87.1709H983.527ZM15.9922 94.0273L24.8662 114.695H21.8447L12.9834 94.0273H15.9922ZM25.7676 117.171V114.721H40.0625V117.171H25.7676ZM40.0625 117.171V114.721H54.3574V117.171H40.0625ZM54.3574 117.171V114.721H68.6523V117.171H54.3574ZM68.6523 117.171V114.721H82.9473V117.171H68.6523ZM86.8701 114.695H83.8613L92.7227 94.0273H95.7441L86.8701 114.695ZM115.46 114.695H112.451L121.312 94.0273H124.334L115.46 114.695ZM158.941 94.0273L167.815 114.695H164.794L155.933 94.0273H158.941ZM187.531 94.0273L196.405 114.695H193.384L184.522 94.0273H187.531ZM197.307 117.171V114.721H211.602V117.171H197.307ZM211.602 117.171V114.721H225.896V117.171H211.602ZM225.896 117.171V114.721H240.191V117.171H225.896ZM240.191 117.171V114.721H254.486V117.171H240.191ZM258.409 114.695H255.4L264.262 94.0273H267.283L258.409 114.695ZM286.999 114.695H283.99L292.852 94.0273H295.873L286.999 114.695ZM330.48 94.0273L339.354 114.695H336.333L327.472 94.0273H330.48ZM359.07 94.0273L367.944 114.695H364.923L356.062 94.0273H359.07ZM368.846 117.171V114.721H383.141V117.171H368.846ZM383.141 117.171V114.721H397.436V117.171H383.141ZM397.436 117.171V114.721H411.73V117.171H397.436ZM411.73 117.171V114.721H426.025V117.171H411.73ZM429.948 114.695H426.939L435.801 94.0273H438.822L429.948 114.695ZM458.538 114.695H455.529L464.391 94.0273H467.412L458.538 114.695ZM502.02 94.0273L510.894 114.695H507.872L499.011 94.0273H502.02ZM530.609 94.0273L539.483 114.695H536.462L527.601 94.0273H530.609ZM540.385 117.171V114.721H554.68V117.171H540.385ZM554.68 117.171V114.721H568.975V117.171H554.68ZM568.975 117.171V114.721H583.27V117.171H568.975ZM583.27 117.171V114.721H597.564V117.171H583.27ZM601.487 114.695H598.479L607.34 94.0273H610.361L601.487 114.695ZM630.077 114.695H627.068L635.93 94.0273H638.951L630.077 114.695ZM673.559 94.0273L682.433 114.695H679.411L670.55 94.0273H673.559ZM702.148 94.0273L711.022 114.695H708.001L699.14 94.0273H702.148ZM711.924 117.171V114.721H726.219V117.171H711.924ZM726.219 117.171V114.721H740.514V117.171H726.219ZM740.514 117.171V114.721H754.809V117.171H740.514ZM754.809 117.171V114.721H769.104V117.171H754.809ZM773.026 114.695H770.018L778.879 94.0273H781.9L773.026 114.695ZM801.616 114.695H798.607L807.469 94.0273H810.49L801.616 114.695ZM845.098 94.0273L853.972 114.695H850.95L842.089 94.0273H845.098ZM873.688 94.0273L882.562 114.695H879.54L870.679 94.0273H873.688ZM883.463 117.171V114.721H897.758V117.171H883.463ZM897.758 117.171V114.721H912.053V117.171H897.758ZM912.053 117.171V114.721H926.348V117.171H912.053ZM926.348 117.171V114.721H940.643V117.171H926.348ZM944.565 114.695H941.557L950.418 94.0273H953.439L944.565 114.695ZM973.155 114.695H970.146L979.008 94.0273H982.029L973.155 114.695ZM15.3955 144.695H12.3867L21.248 124.027H24.2695L15.3955 144.695ZM40.0625 147.171V144.721H54.3574V147.171H40.0625ZM54.3574 147.171V144.721H68.6523V147.171H54.3574ZM87.4668 124.027L96.3408 144.695H93.3193L84.458 124.027H87.4668ZM116.057 124.027L124.931 144.695H121.909L113.048 124.027H116.057ZM125.832 147.171V144.721H140.127V147.171H125.832ZM140.127 147.171V144.721H154.422V147.171H140.127ZM158.345 144.695H155.336L164.197 124.027H167.219L158.345 144.695ZM186.935 144.695H183.926L192.787 124.027H195.809L186.935 144.695ZM211.602 147.171V144.721H225.896V147.171H211.602ZM225.896 147.171V144.721H240.191V147.171H225.896ZM259.006 124.027L267.88 144.695H264.858L255.997 124.027H259.006ZM287.596 124.027L296.47 144.695H293.448L284.587 124.027H287.596ZM297.371 147.171V144.721H311.666V147.171H297.371ZM311.666 147.171V144.721H325.961V147.171H311.666ZM329.884 144.695H326.875L335.736 124.027H338.758L329.884 144.695ZM358.474 144.695H355.465L364.326 124.027H367.348L358.474 144.695ZM383.141 147.171V144.721H397.436V147.171H383.141ZM397.436 147.171V144.721H411.73V147.171H397.436ZM430.545 124.027L439.419 144.695H436.397L427.536 124.027H430.545ZM459.135 124.027L468.009 144.695H464.987L456.126 124.027H459.135ZM468.91 147.171V144.721H483.205V147.171H468.91ZM483.205 147.171V144.721H497.5V147.171H483.205ZM501.423 144.695H498.414L507.275 124.027H510.297L501.423 144.695ZM530.013 144.695H527.004L535.865 124.027H538.887L530.013 144.695ZM554.68 147.171V144.721H568.975V147.171H554.68ZM568.975 147.171V144.721H583.27V147.171H568.975ZM602.084 124.027L610.958 144.695H607.937L599.075 124.027H602.084ZM630.674 124.027L639.548 144.695H636.526L627.665 124.027H630.674ZM640.449 147.171V144.721H654.744V147.171H640.449ZM654.744 147.171V144.721H669.039V147.171H654.744ZM672.962 144.695H669.953L678.814 124.027H681.836L672.962 144.695ZM701.552 144.695H698.543L707.404 124.027H710.426L701.552 144.695ZM726.219 147.171V144.721H740.514V147.171H726.219ZM740.514 147.171V144.721H754.809V147.171H740.514ZM773.623 124.027L782.497 144.695H779.476L770.614 124.027H773.623ZM802.213 124.027L811.087 144.695H808.065L799.204 124.027H802.213ZM811.988 147.171V144.721H826.283V147.171H811.988ZM826.283 147.171V144.721H840.578V147.171H826.283ZM844.501 144.695H841.492L850.354 124.027H853.375L844.501 144.695ZM873.091 144.695H870.082L878.943 124.027H881.965L873.091 144.695ZM897.758 147.171V144.721H912.053V147.171H897.758ZM912.053 147.171V144.721H926.348V147.171H912.053ZM945.162 124.027L954.036 144.695H951.015L942.153 124.027H945.162ZM973.752 124.027L982.626 144.695H979.604L970.743 124.027H973.752ZM983.527 147.171V144.721H997.822V147.171H983.527ZM1.10059 174.695H-1.9082L6.95312 154.027H9.97461L1.10059 174.695ZM29.6904 174.695H26.6816L35.543 154.027H38.5645L29.6904 174.695ZM73.1719 154.027L82.0459 174.695H79.0244L70.1631 154.027H73.1719ZM101.762 154.027L110.636 174.695H107.614L98.7529 154.027H101.762ZM111.537 177.171V174.721H125.832V177.171H111.537ZM125.832 177.171V174.721H140.127V177.171H125.832ZM140.127 177.171V174.721H154.422V177.171H140.127ZM154.422 177.171V174.721H168.717V177.171H154.422ZM172.64 174.695H169.631L178.492 154.027H181.514L172.64 174.695ZM201.229 174.695H198.221L207.082 154.027H210.104L201.229 174.695ZM244.711 154.027L253.585 174.695H250.563L241.702 154.027H244.711ZM273.301 154.027L282.175 174.695H279.153L270.292 154.027H273.301ZM283.076 177.171V174.721H297.371V177.171H283.076ZM297.371 177.171V174.721H311.666V177.171H297.371ZM311.666 177.171V174.721H325.961V177.171H311.666ZM325.961 177.171V174.721H340.256V177.171H325.961ZM344.179 174.695H341.17L350.031 154.027H353.053L344.179 174.695ZM372.769 174.695H369.76L378.621 154.027H381.643L372.769 174.695ZM416.25 154.027L425.124 174.695H422.103L413.241 154.027H416.25ZM444.84 154.027L453.714 174.695H450.692L441.831 154.027H444.84ZM454.615 177.171V174.721H468.91V177.171H454.615ZM468.91 177.171V174.721H483.205V177.171H468.91ZM483.205 177.171V174.721H497.5V177.171H483.205ZM497.5 177.171V174.721H511.795V177.171H497.5ZM515.718 174.695H512.709L521.57 154.027H524.592L515.718 174.695ZM544.308 174.695H541.299L550.16 154.027H553.182L544.308 174.695ZM587.789 154.027L596.663 174.695H593.642L584.78 154.027H587.789ZM616.379 154.027L625.253 174.695H622.231L613.37 154.027H616.379ZM626.154 177.171V174.721H640.449V177.171H626.154ZM640.449 177.171V174.721H654.744V177.171H640.449ZM654.744 177.171V174.721H669.039V177.171H654.744ZM669.039 177.171V174.721H683.334V177.171H669.039ZM687.257 174.695H684.248L693.109 154.027H696.131L687.257 174.695ZM715.847 174.695H712.838L721.699 154.027H724.721L715.847 174.695ZM759.328 154.027L768.202 174.695H765.181L756.319 154.027H759.328ZM787.918 154.027L796.792 174.695H793.771L784.909 154.027H787.918ZM797.693 177.171V174.721H811.988V177.171H797.693ZM811.988 177.171V174.721H826.283V177.171H811.988ZM826.283 177.171V174.721H840.578V177.171H826.283ZM840.578 177.171V174.721H854.873V177.171H840.578ZM858.796 174.695H855.787L864.648 154.027H867.67L858.796 174.695ZM887.386 174.695H884.377L893.238 154.027H896.26L887.386 174.695ZM930.867 154.027L939.741 174.695H936.72L927.858 154.027H930.867ZM959.457 154.027L968.331 174.695H965.31L956.448 154.027H959.457ZM969.232 177.171V174.721H983.527V177.171H969.232ZM983.527 177.171V174.721H997.822V177.171H983.527ZM1.69727 184.027L10.5713 204.695H7.5498L-1.31152 184.027H1.69727ZM30.2871 184.027L39.1611 204.695H36.1396L27.2783 184.027H30.2871ZM40.0625 207.171V204.721H54.3574V207.171H40.0625ZM54.3574 207.171V204.721H68.6523V207.171H54.3574ZM72.5752 204.695H69.5664L78.4277 184.027H81.4492L72.5752 204.695ZM101.165 204.695H98.1562L107.018 184.027H110.039L101.165 204.695ZM125.832 207.171V204.721H140.127V207.171H125.832ZM140.127 207.171V204.721H154.422V207.171H140.127ZM173.236 184.027L182.11 204.695H179.089L170.228 184.027H173.236ZM201.826 184.027L210.7 204.695H207.679L198.817 184.027H201.826ZM211.602 207.171V204.721H225.896V207.171H211.602ZM225.896 207.171V204.721H240.191V207.171H225.896ZM244.114 204.695H241.105L249.967 184.027H252.988L244.114 204.695ZM272.704 204.695H269.695L278.557 184.027H281.578L272.704 204.695ZM297.371 207.171V204.721H311.666V207.171H297.371ZM311.666 207.171V204.721H325.961V207.171H311.666ZM344.775 184.027L353.649 204.695H350.628L341.767 184.027H344.775ZM373.365 184.027L382.239 204.695H379.218L370.356 184.027H373.365ZM383.141 207.171V204.721H397.436V207.171H383.141ZM397.436 207.171V204.721H411.73V207.171H397.436ZM415.653 204.695H412.645L421.506 184.027H424.527L415.653 204.695ZM444.243 204.695H441.234L450.096 184.027H453.117L444.243 204.695ZM468.91 207.171V204.721H483.205V207.171H468.91ZM483.205 207.171V204.721H497.5V207.171H483.205ZM516.314 184.027L525.188 204.695H522.167L513.306 184.027H516.314ZM544.904 184.027L553.778 204.695H550.757L541.896 184.027H544.904ZM554.68 207.171V204.721H568.975V207.171H554.68ZM568.975 207.171V204.721H583.27V207.171H568.975ZM587.192 204.695H584.184L593.045 184.027H596.066L587.192 204.695ZM615.782 204.695H612.773L621.635 184.027H624.656L615.782 204.695ZM640.449 207.171V204.721H654.744V207.171H640.449ZM654.744 207.171V204.721H669.039V207.171H654.744ZM687.854 184.027L696.728 204.695H693.706L684.845 184.027H687.854ZM716.443 184.027L725.317 204.695H722.296L713.435 184.027H716.443ZM726.219 207.171V204.721H740.514V207.171H726.219ZM740.514 207.171V204.721H754.809V207.171H740.514ZM758.731 204.695H755.723L764.584 184.027H767.605L758.731 204.695ZM787.321 204.695H784.312L793.174 184.027H796.195L787.321 204.695ZM811.988 207.171V204.721H826.283V207.171H811.988ZM826.283 207.171V204.721H840.578V207.171H826.283ZM859.393 184.027L868.267 204.695H865.245L856.384 184.027H859.393ZM887.982 184.027L896.856 204.695H893.835L884.974 184.027H887.982ZM897.758 207.171V204.721H912.053V207.171H897.758ZM912.053 207.171V204.721H926.348V207.171H912.053ZM930.271 204.695H927.262L936.123 184.027H939.145L930.271 204.695ZM958.86 204.695H955.852L964.713 184.027H967.734L958.86 204.695ZM983.527 207.171V204.721H997.822V207.171H983.527ZM15.9922 214.027L24.8662 234.695H21.8447L12.9834 214.027H15.9922ZM25.7676 237.171V234.721H40.0625V237.171H25.7676ZM40.0625 237.171V234.721H54.3574V237.171H40.0625ZM54.3574 237.171V234.721H68.6523V237.171H54.3574ZM68.6523 237.171V234.721H82.9473V237.171H68.6523ZM86.8701 234.695H83.8613L92.7227 214.027H95.7441L86.8701 234.695ZM115.46 234.695H112.451L121.312 214.027H124.334L115.46 234.695ZM158.941 214.027L167.815 234.695H164.794L155.933 214.027H158.941ZM187.531 214.027L196.405 234.695H193.384L184.522 214.027H187.531ZM197.307 237.171V234.721H211.602V237.171H197.307ZM211.602 237.171V234.721H225.896V237.171H211.602ZM225.896 237.171V234.721H240.191V237.171H225.896ZM240.191 237.171V234.721H254.486V237.171H240.191ZM258.409 234.695H255.4L264.262 214.027H267.283L258.409 234.695ZM286.999 234.695H283.99L292.852 214.027H295.873L286.999 234.695ZM330.48 214.027L339.354 234.695H336.333L327.472 214.027H330.48ZM359.07 214.027L367.944 234.695H364.923L356.062 214.027H359.07ZM368.846 237.171V234.721H383.141V237.171H368.846ZM383.141 237.171V234.721H397.436V237.171H383.141ZM397.436 237.171V234.721H411.73V237.171H397.436ZM411.73 237.171V234.721H426.025V237.171H411.73ZM429.948 234.695H426.939L435.801 214.027H438.822L429.948 234.695ZM458.538 234.695H455.529L464.391 214.027H467.412L458.538 234.695ZM502.02 214.027L510.894 234.695H507.872L499.011 214.027H502.02ZM530.609 214.027L539.483 234.695H536.462L527.601 214.027H530.609ZM540.385 237.171V234.721H554.68V237.171H540.385ZM554.68 237.171V234.721H568.975V237.171H554.68ZM568.975 237.171V234.721H583.27V237.171H568.975ZM583.27 237.171V234.721H597.564V237.171H583.27ZM601.487 234.695H598.479L607.34 214.027H610.361L601.487 234.695ZM630.077 234.695H627.068L635.93 214.027H638.951L630.077 234.695ZM673.559 214.027L682.433 234.695H679.411L670.55 214.027H673.559ZM702.148 214.027L711.022 234.695H708.001L699.14 214.027H702.148ZM711.924 237.171V234.721H726.219V237.171H711.924ZM726.219 237.171V234.721H740.514V237.171H726.219ZM740.514 237.171V234.721H754.809V237.171H740.514ZM754.809 237.171V234.721H769.104V237.171H754.809ZM773.026 234.695H770.018L778.879 214.027H781.9L773.026 234.695ZM801.616 234.695H798.607L807.469 214.027H810.49L801.616 234.695ZM845.098 214.027L853.972 234.695H850.95L842.089 214.027H845.098ZM873.688 214.027L882.562 234.695H879.54L870.679 214.027H873.688ZM883.463 237.171V234.721H897.758V237.171H883.463ZM897.758 237.171V234.721H912.053V237.171H897.758ZM912.053 237.171V234.721H926.348V237.171H912.053ZM926.348 237.171V234.721H940.643V237.171H926.348ZM944.565 234.695H941.557L950.418 214.027H953.439L944.565 234.695ZM973.155 234.695H970.146L979.008 214.027H982.029L973.155 234.695ZM15.3955 264.695H12.3867L21.248 244.027H24.2695L15.3955 264.695ZM40.0625 267.171V264.721H54.3574V267.171H40.0625ZM54.3574 267.171V264.721H68.6523V267.171H54.3574ZM87.4668 244.027L96.3408 264.695H93.3193L84.458 244.027H87.4668ZM116.057 244.027L124.931 264.695H121.909L113.048 244.027H116.057ZM125.832 267.171V264.721H140.127V267.171H125.832ZM140.127 267.171V264.721H154.422V267.171H140.127ZM158.345 264.695H155.336L164.197 244.027H167.219L158.345 264.695ZM186.935 264.695H183.926L192.787 244.027H195.809L186.935 264.695ZM211.602 267.171V264.721H225.896V267.171H211.602ZM225.896 267.171V264.721H240.191V267.171H225.896ZM259.006 244.027L267.88 264.695H264.858L255.997 244.027H259.006ZM287.596 244.027L296.47 264.695H293.448L284.587 244.027H287.596ZM297.371 267.171V264.721H311.666V267.171H297.371ZM311.666 267.171V264.721H325.961V267.171H311.666ZM329.884 264.695H326.875L335.736 244.027H338.758L329.884 264.695ZM358.474 264.695H355.465L364.326 244.027H367.348L358.474 264.695ZM383.141 267.171V264.721H397.436V267.171H383.141ZM397.436 267.171V264.721H411.73V267.171H397.436ZM430.545 244.027L439.419 264.695H436.397L427.536 244.027H430.545ZM459.135 244.027L468.009 264.695H464.987L456.126 244.027H459.135ZM468.91 267.171V264.721H483.205V267.171H468.91ZM483.205 267.171V264.721H497.5V267.171H483.205ZM501.423 264.695H498.414L507.275 244.027H510.297L501.423 264.695ZM530.013 264.695H527.004L535.865 244.027H538.887L530.013 264.695ZM554.68 267.171V264.721H568.975V267.171H554.68ZM568.975 267.171V264.721H583.27V267.171H568.975ZM602.084 244.027L610.958 264.695H607.937L599.075 244.027H602.084ZM630.674 244.027L639.548 264.695H636.526L627.665 244.027H630.674ZM640.449 267.171V264.721H654.744V267.171H640.449ZM654.744 267.171V264.721H669.039V267.171H654.744ZM672.962 264.695H669.953L678.814 244.027H681.836L672.962 264.695ZM701.552 264.695H698.543L707.404 244.027H710.426L701.552 264.695ZM726.219 267.171V264.721H740.514V267.171H726.219ZM740.514 267.171V264.721H754.809V267.171H740.514ZM773.623 244.027L782.497 264.695H779.476L770.614 244.027H773.623ZM802.213 244.027L811.087 264.695H808.065L799.204 244.027H802.213ZM811.988 267.171V264.721H826.283V267.171H811.988ZM826.283 267.171V264.721H840.578V267.171H826.283ZM844.501 264.695H841.492L850.354 244.027H853.375L844.501 264.695ZM873.091 264.695H870.082L878.943 244.027H881.965L873.091 264.695ZM897.758 267.171V264.721H912.053V267.171H897.758ZM912.053 267.171V264.721H926.348V267.171H912.053ZM945.162 244.027L954.036 264.695H951.015L942.153 244.027H945.162ZM973.752 244.027L982.626 264.695H979.604L970.743 244.027H973.752ZM983.527 267.171V264.721H997.822V267.171H983.527ZM1.10059 294.695H-1.9082L6.95312 274.027H9.97461L1.10059 294.695ZM29.6904 294.695H26.6816L35.543 274.027H38.5645L29.6904 294.695ZM73.1719 274.027L82.0459 294.695H79.0244L70.1631 274.027H73.1719ZM101.762 274.027L110.636 294.695H107.614L98.7529 274.027H101.762ZM111.537 297.171V294.721H125.832V297.171H111.537ZM125.832 297.171V294.721H140.127V297.171H125.832ZM140.127 297.171V294.721H154.422V297.171H140.127ZM154.422 297.171V294.721H168.717V297.171H154.422ZM172.64 294.695H169.631L178.492 274.027H181.514L172.64 294.695ZM201.229 294.695H198.221L207.082 274.027H210.104L201.229 294.695ZM244.711 274.027L253.585 294.695H250.563L241.702 274.027H244.711ZM273.301 274.027L282.175 294.695H279.153L270.292 274.027H273.301ZM283.076 297.171V294.721H297.371V297.171H283.076ZM297.371 297.171V294.721H311.666V297.171H297.371ZM311.666 297.171V294.721H325.961V297.171H311.666ZM325.961 297.171V294.721H340.256V297.171H325.961ZM344.179 294.695H341.17L350.031 274.027H353.053L344.179 294.695ZM372.769 294.695H369.76L378.621 274.027H381.643L372.769 294.695ZM416.25 274.027L425.124 294.695H422.103L413.241 274.027H416.25ZM444.84 274.027L453.714 294.695H450.692L441.831 274.027H444.84ZM454.615 297.171V294.721H468.91V297.171H454.615ZM468.91 297.171V294.721H483.205V297.171H468.91ZM483.205 297.171V294.721H497.5V297.171H483.205ZM497.5 297.171V294.721H511.795V297.171H497.5ZM515.718 294.695H512.709L521.57 274.027H524.592L515.718 294.695ZM544.308 294.695H541.299L550.16 274.027H553.182L544.308 294.695ZM587.789 274.027L596.663 294.695H593.642L584.78 274.027H587.789ZM616.379 274.027L625.253 294.695H622.231L613.37 274.027H616.379ZM626.154 297.171V294.721H640.449V297.171H626.154ZM640.449 297.171V294.721H654.744V297.171H640.449ZM654.744 297.171V294.721H669.039V297.171H654.744ZM669.039 297.171V294.721H683.334V297.171H669.039ZM687.257 294.695H684.248L693.109 274.027H696.131L687.257 294.695ZM715.847 294.695H712.838L721.699 274.027H724.721L715.847 294.695ZM759.328 274.027L768.202 294.695H765.181L756.319 274.027H759.328ZM787.918 274.027L796.792 294.695H793.771L784.909 274.027H787.918ZM797.693 297.171V294.721H811.988V297.171H797.693ZM811.988 297.171V294.721H826.283V297.171H811.988ZM826.283 297.171V294.721H840.578V297.171H826.283ZM840.578 297.171V294.721H854.873V297.171H840.578ZM858.796 294.695H855.787L864.648 274.027H867.67L858.796 294.695ZM887.386 294.695H884.377L893.238 274.027H896.26L887.386 294.695ZM930.867 274.027L939.741 294.695H936.72L927.858 274.027H930.867ZM959.457 274.027L968.331 294.695H965.31L956.448 274.027H959.457ZM969.232 297.171V294.721H983.527V297.171H969.232ZM983.527 297.171V294.721H997.822V297.171H983.527ZM1.69727 304.027L10.5713 324.695H7.5498L-1.31152 304.027H1.69727ZM30.2871 304.027L39.1611 324.695H36.1396L27.2783 304.027H30.2871ZM40.0625 327.171V324.721H54.3574V327.171H40.0625ZM54.3574 327.171V324.721H68.6523V327.171H54.3574ZM72.5752 324.695H69.5664L78.4277 304.027H81.4492L72.5752 324.695ZM101.165 324.695H98.1562L107.018 304.027H110.039L101.165 324.695ZM125.832 327.171V324.721H140.127V327.171H125.832ZM140.127 327.171V324.721H154.422V327.171H140.127ZM173.236 304.027L182.11 324.695H179.089L170.228 304.027H173.236ZM201.826 304.027L210.7 324.695H207.679L198.817 304.027H201.826ZM211.602 327.171V324.721H225.896V327.171H211.602ZM225.896 327.171V324.721H240.191V327.171H225.896ZM244.114 324.695H241.105L249.967 304.027H252.988L244.114 324.695ZM272.704 324.695H269.695L278.557 304.027H281.578L272.704 324.695ZM297.371 327.171V324.721H311.666V327.171H297.371ZM311.666 327.171V324.721H325.961V327.171H311.666ZM344.775 304.027L353.649 324.695H350.628L341.767 304.027H344.775ZM373.365 304.027L382.239 324.695H379.218L370.356 304.027H373.365ZM383.141 327.171V324.721H397.436V327.171H383.141ZM397.436 327.171V324.721H411.73V327.171H397.436ZM415.653 324.695H412.645L421.506 304.027H424.527L415.653 324.695ZM444.243 324.695H441.234L450.096 304.027H453.117L444.243 324.695ZM468.91 327.171V324.721H483.205V327.171H468.91ZM483.205 327.171V324.721H497.5V327.171H483.205ZM516.314 304.027L525.188 324.695H522.167L513.306 304.027H516.314ZM544.904 304.027L553.778 324.695H550.757L541.896 304.027H544.904ZM554.68 327.171V324.721H568.975V327.171H554.68ZM568.975 327.171V324.721H583.27V327.171H568.975ZM587.192 324.695H584.184L593.045 304.027H596.066L587.192 324.695ZM615.782 324.695H612.773L621.635 304.027H624.656L615.782 324.695ZM640.449 327.171V324.721H654.744V327.171H640.449ZM654.744 327.171V324.721H669.039V327.171H654.744ZM687.854 304.027L696.728 324.695H693.706L684.845 304.027H687.854ZM716.443 304.027L725.317 324.695H722.296L713.435 304.027H716.443ZM726.219 327.171V324.721H740.514V327.171H726.219ZM740.514 327.171V324.721H754.809V327.171H740.514ZM758.731 324.695H755.723L764.584 304.027H767.605L758.731 324.695ZM787.321 324.695H784.312L793.174 304.027H796.195L787.321 324.695ZM811.988 327.171V324.721H826.283V327.171H811.988ZM826.283 327.171V324.721H840.578V327.171H826.283ZM859.393 304.027L868.267 324.695H865.245L856.384 304.027H859.393ZM887.982 304.027L896.856 324.695H893.835L884.974 304.027H887.982ZM897.758 327.171V324.721H912.053V327.171H897.758ZM912.053 327.171V324.721H926.348V327.171H912.053ZM930.271 324.695H927.262L936.123 304.027H939.145L930.271 324.695ZM958.86 324.695H955.852L964.713 304.027H967.734L958.86 324.695ZM983.527 327.171V324.721H997.822V327.171H983.527ZM15.9922 334.027L24.8662 354.695H21.8447L12.9834 334.027H15.9922ZM25.7676 357.171V354.721H40.0625V357.171H25.7676ZM40.0625 357.171V354.721H54.3574V357.171H40.0625ZM54.3574 357.171V354.721H68.6523V357.171H54.3574ZM68.6523 357.171V354.721H82.9473V357.171H68.6523ZM86.8701 354.695H83.8613L92.7227 334.027H95.7441L86.8701 354.695ZM115.46 354.695H112.451L121.312 334.027H124.334L115.46 354.695ZM158.941 334.027L167.815 354.695H164.794L155.933 334.027H158.941ZM187.531 334.027L196.405 354.695H193.384L184.522 334.027H187.531ZM197.307 357.171V354.721H211.602V357.171H197.307ZM211.602 357.171V354.721H225.896V357.171H211.602ZM225.896 357.171V354.721H240.191V357.171H225.896ZM240.191 357.171V354.721H254.486V357.171H240.191ZM258.409 354.695H255.4L264.262 334.027H267.283L258.409 354.695ZM286.999 354.695H283.99L292.852 334.027H295.873L286.999 354.695ZM330.48 334.027L339.354 354.695H336.333L327.472 334.027H330.48ZM359.07 334.027L367.944 354.695H364.923L356.062 334.027H359.07ZM368.846 357.171V354.721H383.141V357.171H368.846ZM383.141 357.171V354.721H397.436V357.171H383.141ZM397.436 357.171V354.721H411.73V357.171H397.436ZM411.73 357.171V354.721H426.025V357.171H411.73ZM429.948 354.695H426.939L435.801 334.027H438.822L429.948 354.695ZM458.538 354.695H455.529L464.391 334.027H467.412L458.538 354.695ZM502.02 334.027L510.894 354.695H507.872L499.011 334.027H502.02ZM530.609 334.027L539.483 354.695H536.462L527.601 334.027H530.609ZM540.385 357.171V354.721H554.68V357.171H540.385ZM554.68 357.171V354.721H568.975V357.171H554.68ZM568.975 357.171V354.721H583.27V357.171H568.975ZM583.27 357.171V354.721H597.564V357.171H583.27ZM601.487 354.695H598.479L607.34 334.027H610.361L601.487 354.695ZM630.077 354.695H627.068L635.93 334.027H638.951L630.077 354.695ZM673.559 334.027L682.433 354.695H679.411L670.55 334.027H673.559ZM702.148 334.027L711.022 354.695H708.001L699.14 334.027H702.148ZM711.924 357.171V354.721H726.219V357.171H711.924ZM726.219 357.171V354.721H740.514V357.171H726.219ZM740.514 357.171V354.721H754.809V357.171H740.514ZM754.809 357.171V354.721H769.104V357.171H754.809ZM773.026 354.695H770.018L778.879 334.027H781.9L773.026 354.695ZM801.616 354.695H798.607L807.469 334.027H810.49L801.616 354.695ZM845.098 334.027L853.972 354.695H850.95L842.089 334.027H845.098ZM873.688 334.027L882.562 354.695H879.54L870.679 334.027H873.688ZM883.463 357.171V354.721H897.758V357.171H883.463ZM897.758 357.171V354.721H912.053V357.171H897.758ZM912.053 357.171V354.721H926.348V357.171H912.053ZM926.348 357.171V354.721H940.643V357.171H926.348ZM944.565 354.695H941.557L950.418 334.027H953.439L944.565 354.695ZM973.155 354.695H970.146L979.008 334.027H982.029L973.155 354.695ZM15.3955 384.695H12.3867L21.248 364.027H24.2695L15.3955 384.695ZM40.0625 387.171V384.721H54.3574V387.171H40.0625ZM54.3574 387.171V384.721H68.6523V387.171H54.3574ZM87.4668 364.027L96.3408 384.695H93.3193L84.458 364.027H87.4668ZM116.057 364.027L124.931 384.695H121.909L113.048 364.027H116.057ZM125.832 387.171V384.721H140.127V387.171H125.832ZM140.127 387.171V384.721H154.422V387.171H140.127ZM158.345 384.695H155.336L164.197 364.027H167.219L158.345 384.695ZM186.935 384.695H183.926L192.787 364.027H195.809L186.935 384.695ZM211.602 387.171V384.721H225.896V387.171H211.602ZM225.896 387.171V384.721H240.191V387.171H225.896ZM259.006 364.027L267.88 384.695H264.858L255.997 364.027H259.006ZM287.596 364.027L296.47 384.695H293.448L284.587 364.027H287.596ZM297.371 387.171V384.721H311.666V387.171H297.371ZM311.666 387.171V384.721H325.961V387.171H311.666ZM329.884 384.695H326.875L335.736 364.027H338.758L329.884 384.695ZM358.474 384.695H355.465L364.326 364.027H367.348L358.474 384.695ZM383.141 387.171V384.721H397.436V387.171H383.141ZM397.436 387.171V384.721H411.73V387.171H397.436ZM430.545 364.027L439.419 384.695H436.397L427.536 364.027H430.545ZM459.135 364.027L468.009 384.695H464.987L456.126 364.027H459.135ZM468.91 387.171V384.721H483.205V387.171H468.91ZM483.205 387.171V384.721H497.5V387.171H483.205ZM501.423 384.695H498.414L507.275 364.027H510.297L501.423 384.695ZM530.013 384.695H527.004L535.865 364.027H538.887L530.013 384.695ZM554.68 387.171V384.721H568.975V387.171H554.68ZM568.975 387.171V384.721H583.27V387.171H568.975ZM602.084 364.027L610.958 384.695H607.937L599.075 364.027H602.084ZM630.674 364.027L639.548 384.695H636.526L627.665 364.027H630.674ZM640.449 387.171V384.721H654.744V387.171H640.449ZM654.744 387.171V384.721H669.039V387.171H654.744ZM672.962 384.695H669.953L678.814 364.027H681.836L672.962 384.695ZM701.552 384.695H698.543L707.404 364.027H710.426L701.552 384.695ZM726.219 387.171V384.721H740.514V387.171H726.219ZM740.514 387.171V384.721H754.809V387.171H740.514ZM773.623 364.027L782.497 384.695H779.476L770.614 364.027H773.623ZM802.213 364.027L811.087 384.695H808.065L799.204 364.027H802.213ZM811.988 387.171V384.721H826.283V387.171H811.988ZM826.283 387.171V384.721H840.578V387.171H826.283ZM844.501 384.695H841.492L850.354 364.027H853.375L844.501 384.695ZM873.091 384.695H870.082L878.943 364.027H881.965L873.091 384.695ZM897.758 387.171V384.721H912.053V387.171H897.758ZM912.053 387.171V384.721H926.348V387.171H912.053ZM945.162 364.027L954.036 384.695H951.015L942.153 364.027H945.162ZM973.752 364.027L982.626 384.695H979.604L970.743 364.027H973.752ZM983.527 387.171V384.721H997.822V387.171H983.527ZM1.10059 414.695H-1.9082L6.95312 394.027H9.97461L1.10059 414.695ZM29.6904 414.695H26.6816L35.543 394.027H38.5645L29.6904 414.695ZM73.1719 394.027L82.0459 414.695H79.0244L70.1631 394.027H73.1719ZM101.762 394.027L110.636 414.695H107.614L98.7529 394.027H101.762ZM111.537 417.171V414.721H125.832V417.171H111.537ZM125.832 417.171V414.721H140.127V417.171H125.832ZM140.127 417.171V414.721H154.422V417.171H140.127ZM154.422 417.171V414.721H168.717V417.171H154.422ZM172.64 414.695H169.631L178.492 394.027H181.514L172.64 414.695ZM201.229 414.695H198.221L207.082 394.027H210.104L201.229 414.695ZM244.711 394.027L253.585 414.695H250.563L241.702 394.027H244.711ZM273.301 394.027L282.175 414.695H279.153L270.292 394.027H273.301ZM283.076 417.171V414.721H297.371V417.171H283.076ZM297.371 417.171V414.721H311.666V417.171H297.371ZM311.666 417.171V414.721H325.961V417.171H311.666ZM325.961 417.171V414.721H340.256V417.171H325.961ZM344.179 414.695H341.17L350.031 394.027H353.053L344.179 414.695ZM372.769 414.695H369.76L378.621 394.027H381.643L372.769 414.695ZM416.25 394.027L425.124 414.695H422.103L413.241 394.027H416.25ZM444.84 394.027L453.714 414.695H450.692L441.831 394.027H444.84ZM454.615 417.171V414.721H468.91V417.171H454.615ZM468.91 417.171V414.721H483.205V417.171H468.91ZM483.205 417.171V414.721H497.5V417.171H483.205ZM497.5 417.171V414.721H511.795V417.171H497.5ZM515.718 414.695H512.709L521.57 394.027H524.592L515.718 414.695ZM544.308 414.695H541.299L550.16 394.027H553.182L544.308 414.695ZM587.789 394.027L596.663 414.695H593.642L584.78 394.027H587.789ZM616.379 394.027L625.253 414.695H622.231L613.37 394.027H616.379ZM626.154 417.171V414.721H640.449V417.171H626.154ZM640.449 417.171V414.721H654.744V417.171H640.449ZM654.744 417.171V414.721H669.039V417.171H654.744ZM669.039 417.171V414.721H683.334V417.171H669.039ZM687.257 414.695H684.248L693.109 394.027H696.131L687.257 414.695ZM715.847 414.695H712.838L721.699 394.027H724.721L715.847 414.695ZM759.328 394.027L768.202 414.695H765.181L756.319 394.027H759.328ZM787.918 394.027L796.792 414.695H793.771L784.909 394.027H787.918ZM797.693 417.171V414.721H811.988V417.171H797.693ZM811.988 417.171V414.721H826.283V417.171H811.988ZM826.283 417.171V414.721H840.578V417.171H826.283ZM840.578 417.171V414.721H854.873V417.171H840.578ZM858.796 414.695H855.787L864.648 394.027H867.67L858.796 414.695ZM887.386 414.695H884.377L893.238 394.027H896.26L887.386 414.695ZM930.867 394.027L939.741 414.695H936.72L927.858 394.027H930.867ZM959.457 394.027L968.331 414.695H965.31L956.448 394.027H959.457ZM969.232 417.171V414.721H983.527V417.171H969.232ZM983.527 417.171V414.721H997.822V417.171H983.527ZM1.69727 424.027L10.5713 444.695H7.5498L-1.31152 424.027H1.69727ZM30.2871 424.027L39.1611 444.695H36.1396L27.2783 424.027H30.2871ZM40.0625 447.171V444.721H54.3574V447.171H40.0625ZM54.3574 447.171V444.721H68.6523V447.171H54.3574ZM72.5752 444.695H69.5664L78.4277 424.027H81.4492L72.5752 444.695ZM101.165 444.695H98.1562L107.018 424.027H110.039L101.165 444.695ZM125.832 447.171V444.721H140.127V447.171H125.832ZM140.127 447.171V444.721H154.422V447.171H140.127ZM173.236 424.027L182.11 444.695H179.089L170.228 424.027H173.236ZM201.826 424.027L210.7 444.695H207.679L198.817 424.027H201.826ZM211.602 447.171V444.721H225.896V447.171H211.602ZM225.896 447.171V444.721H240.191V447.171H225.896ZM244.114 444.695H241.105L249.967 424.027H252.988L244.114 444.695ZM272.704 444.695H269.695L278.557 424.027H281.578L272.704 444.695ZM297.371 447.171V444.721H311.666V447.171H297.371ZM311.666 447.171V444.721H325.961V447.171H311.666ZM344.775 424.027L353.649 444.695H350.628L341.767 424.027H344.775ZM373.365 424.027L382.239 444.695H379.218L370.356 424.027H373.365ZM383.141 447.171V444.721H397.436V447.171H383.141ZM397.436 447.171V444.721H411.73V447.171H397.436ZM415.653 444.695H412.645L421.506 424.027H424.527L415.653 444.695ZM444.243 444.695H441.234L450.096 424.027H453.117L444.243 444.695ZM468.91 447.171V444.721H483.205V447.171H468.91ZM483.205 447.171V444.721H497.5V447.171H483.205ZM516.314 424.027L525.188 444.695H522.167L513.306 424.027H516.314ZM544.904 424.027L553.778 444.695H550.757L541.896 424.027H544.904ZM554.68 447.171V444.721H568.975V447.171H554.68ZM568.975 447.171V444.721H583.27V447.171H568.975ZM587.192 444.695H584.184L593.045 424.027H596.066L587.192 444.695ZM615.782 444.695H612.773L621.635 424.027H624.656L615.782 444.695ZM640.449 447.171V444.721H654.744V447.171H640.449ZM654.744 447.171V444.721H669.039V447.171H654.744ZM687.854 424.027L696.728 444.695H693.706L684.845 424.027H687.854ZM716.443 424.027L725.317 444.695H722.296L713.435 424.027H716.443ZM726.219 447.171V444.721H740.514V447.171H726.219ZM740.514 447.171V444.721H754.809V447.171H740.514ZM758.731 444.695H755.723L764.584 424.027H767.605L758.731 444.695ZM787.321 444.695H784.312L793.174 424.027H796.195L787.321 444.695ZM811.988 447.171V444.721H826.283V447.171H811.988ZM826.283 447.171V444.721H840.578V447.171H826.283ZM859.393 424.027L868.267 444.695H865.245L856.384 424.027H859.393ZM887.982 424.027L896.856 444.695H893.835L884.974 424.027H887.982ZM897.758 447.171V444.721H912.053V447.171H897.758ZM912.053 447.171V444.721H926.348V447.171H912.053ZM930.271 444.695H927.262L936.123 424.027H939.145L930.271 444.695ZM958.86 444.695H955.852L964.713 424.027H967.734L958.86 444.695ZM983.527 447.171V444.721H997.822V447.171H983.527ZM15.9922 454.027L24.8662 474.695H21.8447L12.9834 454.027H15.9922ZM25.7676 477.171V474.721H40.0625V477.171H25.7676ZM40.0625 477.171V474.721H54.3574V477.171H40.0625ZM54.3574 477.171V474.721H68.6523V477.171H54.3574ZM68.6523 477.171V474.721H82.9473V477.171H68.6523ZM86.8701 474.695H83.8613L92.7227 454.027H95.7441L86.8701 474.695ZM115.46 474.695H112.451L121.312 454.027H124.334L115.46 474.695ZM158.941 454.027L167.815 474.695H164.794L155.933 454.027H158.941ZM187.531 454.027L196.405 474.695H193.384L184.522 454.027H187.531ZM197.307 477.171V474.721H211.602V477.171H197.307ZM211.602 477.171V474.721H225.896V477.171H211.602ZM225.896 477.171V474.721H240.191V477.171H225.896ZM240.191 477.171V474.721H254.486V477.171H240.191ZM258.409 474.695H255.4L264.262 454.027H267.283L258.409 474.695ZM286.999 474.695H283.99L292.852 454.027H295.873L286.999 474.695ZM330.48 454.027L339.354 474.695H336.333L327.472 454.027H330.48ZM359.07 454.027L367.944 474.695H364.923L356.062 454.027H359.07ZM368.846 477.171V474.721H383.141V477.171H368.846ZM383.141 477.171V474.721H397.436V477.171H383.141ZM397.436 477.171V474.721H411.73V477.171H397.436ZM411.73 477.171V474.721H426.025V477.171H411.73ZM429.948 474.695H426.939L435.801 454.027H438.822L429.948 474.695ZM458.538 474.695H455.529L464.391 454.027H467.412L458.538 474.695ZM502.02 454.027L510.894 474.695H507.872L499.011 454.027H502.02ZM530.609 454.027L539.483 474.695H536.462L527.601 454.027H530.609ZM540.385 477.171V474.721H554.68V477.171H540.385ZM554.68 477.171V474.721H568.975V477.171H554.68ZM568.975 477.171V474.721H583.27V477.171H568.975ZM583.27 477.171V474.721H597.564V477.171H583.27ZM601.487 474.695H598.479L607.34 454.027H610.361L601.487 474.695ZM630.077 474.695H627.068L635.93 454.027H638.951L630.077 474.695ZM673.559 454.027L682.433 474.695H679.411L670.55 454.027H673.559ZM702.148 454.027L711.022 474.695H708.001L699.14 454.027H702.148ZM711.924 477.171V474.721H726.219V477.171H711.924ZM726.219 477.171V474.721H740.514V477.171H726.219ZM740.514 477.171V474.721H754.809V477.171H740.514ZM754.809 477.171V474.721H769.104V477.171H754.809ZM773.026 474.695H770.018L778.879 454.027H781.9L773.026 474.695ZM801.616 474.695H798.607L807.469 454.027H810.49L801.616 474.695ZM845.098 454.027L853.972 474.695H850.95L842.089 454.027H845.098ZM873.688 454.027L882.562 474.695H879.54L870.679 454.027H873.688ZM883.463 477.171V474.721H897.758V477.171H883.463ZM897.758 477.171V474.721H912.053V477.171H897.758ZM912.053 477.171V474.721H926.348V477.171H912.053ZM926.348 477.171V474.721H940.643V477.171H926.348ZM944.565 474.695H941.557L950.418 454.027H953.439L944.565 474.695ZM973.155 474.695H970.146L979.008 454.027H982.029L973.155 474.695ZM15.3955 504.695H12.3867L21.248 484.027H24.2695L15.3955 504.695ZM40.0625 507.171V504.721H54.3574V507.171H40.0625ZM54.3574 507.171V504.721H68.6523V507.171H54.3574ZM87.4668 484.027L96.3408 504.695H93.3193L84.458 484.027H87.4668ZM116.057 484.027L124.931 504.695H121.909L113.048 484.027H116.057ZM125.832 507.171V504.721H140.127V507.171H125.832ZM140.127 507.171V504.721H154.422V507.171H140.127ZM158.345 504.695H155.336L164.197 484.027H167.219L158.345 504.695ZM186.935 504.695H183.926L192.787 484.027H195.809L186.935 504.695ZM211.602 507.171V504.721H225.896V507.171H211.602ZM225.896 507.171V504.721H240.191V507.171H225.896ZM259.006 484.027L267.88 504.695H264.858L255.997 484.027H259.006ZM287.596 484.027L296.47 504.695H293.448L284.587 484.027H287.596ZM297.371 507.171V504.721H311.666V507.171H297.371ZM311.666 507.171V504.721H325.961V507.171H311.666ZM329.884 504.695H326.875L335.736 484.027H338.758L329.884 504.695ZM358.474 504.695H355.465L364.326 484.027H367.348L358.474 504.695ZM383.141 507.171V504.721H397.436V507.171H383.141ZM397.436 507.171V504.721H411.73V507.171H397.436ZM430.545 484.027L439.419 504.695H436.397L427.536 484.027H430.545ZM459.135 484.027L468.009 504.695H464.987L456.126 484.027H459.135ZM468.91 507.171V504.721H483.205V507.171H468.91ZM483.205 507.171V504.721H497.5V507.171H483.205ZM501.423 504.695H498.414L507.275 484.027H510.297L501.423 504.695ZM530.013 504.695H527.004L535.865 484.027H538.887L530.013 504.695ZM554.68 507.171V504.721H568.975V507.171H554.68ZM568.975 507.171V504.721H583.27V507.171H568.975ZM602.084 484.027L610.958 504.695H607.937L599.075 484.027H602.084ZM630.674 484.027L639.548 504.695H636.526L627.665 484.027H630.674ZM640.449 507.171V504.721H654.744V507.171H640.449ZM654.744 507.171V504.721H669.039V507.171H654.744ZM672.962 504.695H669.953L678.814 484.027H681.836L672.962 504.695ZM701.552 504.695H698.543L707.404 484.027H710.426L701.552 504.695ZM726.219 507.171V504.721H740.514V507.171H726.219ZM740.514 507.171V504.721H754.809V507.171H740.514ZM773.623 484.027L782.497 504.695H779.476L770.614 484.027H773.623ZM802.213 484.027L811.087 504.695H808.065L799.204 484.027H802.213ZM811.988 507.171V504.721H826.283V507.171H811.988ZM826.283 507.171V504.721H840.578V507.171H826.283ZM844.501 504.695H841.492L850.354 484.027H853.375L844.501 504.695ZM873.091 504.695H870.082L878.943 484.027H881.965L873.091 504.695ZM897.758 507.171V504.721H912.053V507.171H897.758ZM912.053 507.171V504.721H926.348V507.171H912.053ZM945.162 484.027L954.036 504.695H951.015L942.153 484.027H945.162ZM973.752 484.027L982.626 504.695H979.604L970.743 484.027H973.752ZM983.527 507.171V504.721H997.822V507.171H983.527ZM1.10059 534.695H-1.9082L6.95312 514.027H9.97461L1.10059 534.695ZM29.6904 534.695H26.6816L35.543 514.027H38.5645L29.6904 534.695ZM73.1719 514.027L82.0459 534.695H79.0244L70.1631 514.027H73.1719ZM101.762 514.027L110.636 534.695H107.614L98.7529 514.027H101.762ZM111.537 537.171V534.721H125.832V537.171H111.537ZM125.832 537.171V534.721H140.127V537.171H125.832ZM140.127 537.171V534.721H154.422V537.171H140.127ZM154.422 537.171V534.721H168.717V537.171H154.422ZM172.64 534.695H169.631L178.492 514.027H181.514L172.64 534.695ZM201.229 534.695H198.221L207.082 514.027H210.104L201.229 534.695ZM244.711 514.027L253.585 534.695H250.563L241.702 514.027H244.711ZM273.301 514.027L282.175 534.695H279.153L270.292 514.027H273.301ZM283.076 537.171V534.721H297.371V537.171H283.076ZM297.371 537.171V534.721H311.666V537.171H297.371ZM311.666 537.171V534.721H325.961V537.171H311.666ZM325.961 537.171V534.721H340.256V537.171H325.961ZM344.179 534.695H341.17L350.031 514.027H353.053L344.179 534.695ZM372.769 534.695H369.76L378.621 514.027H381.643L372.769 534.695ZM416.25 514.027L425.124 534.695H422.103L413.241 514.027H416.25ZM444.84 514.027L453.714 534.695H450.692L441.831 514.027H444.84ZM454.615 537.171V534.721H468.91V537.171H454.615ZM468.91 537.171V534.721H483.205V537.171H468.91ZM483.205 537.171V534.721H497.5V537.171H483.205ZM497.5 537.171V534.721H511.795V537.171H497.5ZM515.718 534.695H512.709L521.57 514.027H524.592L515.718 534.695ZM544.308 534.695H541.299L550.16 514.027H553.182L544.308 534.695ZM587.789 514.027L596.663 534.695H593.642L584.78 514.027H587.789ZM616.379 514.027L625.253 534.695H622.231L613.37 514.027H616.379ZM626.154 537.171V534.721H640.449V537.171H626.154ZM640.449 537.171V534.721H654.744V537.171H640.449ZM654.744 537.171V534.721H669.039V537.171H654.744ZM669.039 537.171V534.721H683.334V537.171H669.039ZM687.257 534.695H684.248L693.109 514.027H696.131L687.257 534.695ZM715.847 534.695H712.838L721.699 514.027H724.721L715.847 534.695ZM759.328 514.027L768.202 534.695H765.181L756.319 514.027H759.328ZM787.918 514.027L796.792 534.695H793.771L784.909 514.027H787.918ZM797.693 537.171V534.721H811.988V537.171H797.693ZM811.988 537.171V534.721H826.283V537.171H811.988ZM826.283 537.171V534.721H840.578V537.171H826.283ZM840.578 537.171V534.721H854.873V537.171H840.578ZM858.796 534.695H855.787L864.648 514.027H867.67L858.796 534.695ZM887.386 534.695H884.377L893.238 514.027H896.26L887.386 534.695ZM930.867 514.027L939.741 534.695H936.72L927.858 514.027H930.867ZM959.457 514.027L968.331 534.695H965.31L956.448 514.027H959.457ZM969.232 537.171V534.721H983.527V537.171H969.232ZM983.527 537.171V534.721H997.822V537.171H983.527ZM1.69727 544.027L10.5713 564.695H7.5498L-1.31152 544.027H1.69727ZM30.2871 544.027L39.1611 564.695H36.1396L27.2783 544.027H30.2871ZM40.0625 567.171V564.721H54.3574V567.171H40.0625ZM54.3574 567.171V564.721H68.6523V567.171H54.3574ZM72.5752 564.695H69.5664L78.4277 544.027H81.4492L72.5752 564.695ZM101.165 564.695H98.1562L107.018 544.027H110.039L101.165 564.695ZM125.832 567.171V564.721H140.127V567.171H125.832ZM140.127 567.171V564.721H154.422V567.171H140.127ZM173.236 544.027L182.11 564.695H179.089L170.228 544.027H173.236ZM201.826 544.027L210.7 564.695H207.679L198.817 544.027H201.826ZM211.602 567.171V564.721H225.896V567.171H211.602ZM225.896 567.171V564.721H240.191V567.171H225.896ZM244.114 564.695H241.105L249.967 544.027H252.988L244.114 564.695ZM272.704 564.695H269.695L278.557 544.027H281.578L272.704 564.695ZM297.371 567.171V564.721H311.666V567.171H297.371ZM311.666 567.171V564.721H325.961V567.171H311.666ZM344.775 544.027L353.649 564.695H350.628L341.767 544.027H344.775ZM373.365 544.027L382.239 564.695H379.218L370.356 544.027H373.365ZM383.141 567.171V564.721H397.436V567.171H383.141ZM397.436 567.171V564.721H411.73V567.171H397.436ZM415.653 564.695H412.645L421.506 544.027H424.527L415.653 564.695ZM444.243 564.695H441.234L450.096 544.027H453.117L444.243 564.695ZM468.91 567.171V564.721H483.205V567.171H468.91ZM483.205 567.171V564.721H497.5V567.171H483.205ZM516.314 544.027L525.188 564.695H522.167L513.306 544.027H516.314ZM544.904 544.027L553.778 564.695H550.757L541.896 544.027H544.904ZM554.68 567.171V564.721H568.975V567.171H554.68ZM568.975 567.171V564.721H583.27V567.171H568.975ZM587.192 564.695H584.184L593.045 544.027H596.066L587.192 564.695ZM615.782 564.695H612.773L621.635 544.027H624.656L615.782 564.695ZM640.449 567.171V564.721H654.744V567.171H640.449ZM654.744 567.171V564.721H669.039V567.171H654.744ZM687.854 544.027L696.728 564.695H693.706L684.845 544.027H687.854ZM716.443 544.027L725.317 564.695H722.296L713.435 544.027H716.443ZM726.219 567.171V564.721H740.514V567.171H726.219ZM740.514 567.171V564.721H754.809V567.171H740.514ZM758.731 564.695H755.723L764.584 544.027H767.605L758.731 564.695ZM787.321 564.695H784.312L793.174 544.027H796.195L787.321 564.695ZM811.988 567.171V564.721H826.283V567.171H811.988ZM826.283 567.171V564.721H840.578V567.171H826.283ZM859.393 544.027L868.267 564.695H865.245L856.384 544.027H859.393ZM887.982 544.027L896.856 564.695H893.835L884.974 544.027H887.982ZM897.758 567.171V564.721H912.053V567.171H897.758ZM912.053 567.171V564.721H926.348V567.171H912.053ZM930.271 564.695H927.262L936.123 544.027H939.145L930.271 564.695ZM958.86 564.695H955.852L964.713 544.027H967.734L958.86 564.695ZM983.527 567.171V564.721H997.822V567.171H983.527ZM15.9922 574.027L24.8662 594.695H21.8447L12.9834 574.027H15.9922ZM25.7676 597.171V594.721H40.0625V597.171H25.7676ZM40.0625 597.171V594.721H54.3574V597.171H40.0625ZM54.3574 597.171V594.721H68.6523V597.171H54.3574ZM68.6523 597.171V594.721H82.9473V597.171H68.6523ZM86.8701 594.695H83.8613L92.7227 574.027H95.7441L86.8701 594.695ZM115.46 594.695H112.451L121.312 574.027H124.334L115.46 594.695ZM158.941 574.027L167.815 594.695H164.794L155.933 574.027H158.941ZM187.531 574.027L196.405 594.695H193.384L184.522 574.027H187.531ZM197.307 597.171V594.721H211.602V597.171H197.307ZM211.602 597.171V594.721H225.896V597.171H211.602ZM225.896 597.171V594.721H240.191V597.171H225.896ZM240.191 597.171V594.721H254.486V597.171H240.191ZM258.409 594.695H255.4L264.262 574.027H267.283L258.409 594.695ZM286.999 594.695H283.99L292.852 574.027H295.873L286.999 594.695ZM330.48 574.027L339.354 594.695H336.333L327.472 574.027H330.48ZM359.07 574.027L367.944 594.695H364.923L356.062 574.027H359.07ZM368.846 597.171V594.721H383.141V597.171H368.846ZM383.141 597.171V594.721H397.436V597.171H383.141ZM397.436 597.171V594.721H411.73V597.171H397.436ZM411.73 597.171V594.721H426.025V597.171H411.73ZM429.948 594.695H426.939L435.801 574.027H438.822L429.948 594.695ZM458.538 594.695H455.529L464.391 574.027H467.412L458.538 594.695ZM502.02 574.027L510.894 594.695H507.872L499.011 574.027H502.02ZM530.609 574.027L539.483 594.695H536.462L527.601 574.027H530.609ZM540.385 597.171V594.721H554.68V597.171H540.385ZM554.68 597.171V594.721H568.975V597.171H554.68ZM568.975 597.171V594.721H583.27V597.171H568.975ZM583.27 597.171V594.721H597.564V597.171H583.27ZM601.487 594.695H598.479L607.34 574.027H610.361L601.487 594.695ZM630.077 594.695H627.068L635.93 574.027H638.951L630.077 594.695ZM673.559 574.027L682.433 594.695H679.411L670.55 574.027H673.559ZM702.148 574.027L711.022 594.695H708.001L699.14 574.027H702.148ZM711.924 597.171V594.721H726.219V597.171H711.924ZM726.219 597.171V594.721H740.514V597.171H726.219ZM740.514 597.171V594.721H754.809V597.171H740.514ZM754.809 597.171V594.721H769.104V597.171H754.809ZM773.026 594.695H770.018L778.879 574.027H781.9L773.026 594.695ZM801.616 594.695H798.607L807.469 574.027H810.49L801.616 594.695ZM845.098 574.027L853.972 594.695H850.95L842.089 574.027H845.098ZM873.688 574.027L882.562 594.695H879.54L870.679 574.027H873.688ZM883.463 597.171V594.721H897.758V597.171H883.463ZM897.758 597.171V594.721H912.053V597.171H897.758ZM912.053 597.171V594.721H926.348V597.171H912.053ZM926.348 597.171V594.721H940.643V597.171H926.348ZM944.565 594.695H941.557L950.418 574.027H953.439L944.565 594.695ZM973.155 594.695H970.146L979.008 574.027H982.029L973.155 594.695ZM15.3955 624.695H12.3867L21.248 604.027H24.2695L15.3955 624.695ZM40.0625 627.171V624.721H54.3574V627.171H40.0625ZM54.3574 627.171V624.721H68.6523V627.171H54.3574ZM87.4668 604.027L96.3408 624.695H93.3193L84.458 604.027H87.4668ZM116.057 604.027L124.931 624.695H121.909L113.048 604.027H116.057ZM125.832 627.171V624.721H140.127V627.171H125.832ZM140.127 627.171V624.721H154.422V627.171H140.127ZM158.345 624.695H155.336L164.197 604.027H167.219L158.345 624.695ZM186.935 624.695H183.926L192.787 604.027H195.809L186.935 624.695ZM211.602 627.171V624.721H225.896V627.171H211.602ZM225.896 627.171V624.721H240.191V627.171H225.896ZM259.006 604.027L267.88 624.695H264.858L255.997 604.027H259.006ZM287.596 604.027L296.47 624.695H293.448L284.587 604.027H287.596ZM297.371 627.171V624.721H311.666V627.171H297.371ZM311.666 627.171V624.721H325.961V627.171H311.666ZM329.884 624.695H326.875L335.736 604.027H338.758L329.884 624.695ZM358.474 624.695H355.465L364.326 604.027H367.348L358.474 624.695ZM383.141 627.171V624.721H397.436V627.171H383.141ZM397.436 627.171V624.721H411.73V627.171H397.436ZM430.545 604.027L439.419 624.695H436.397L427.536 604.027H430.545ZM459.135 604.027L468.009 624.695H464.987L456.126 604.027H459.135ZM468.91 627.171V624.721H483.205V627.171H468.91ZM483.205 627.171V624.721H497.5V627.171H483.205ZM501.423 624.695H498.414L507.275 604.027H510.297L501.423 624.695ZM530.013 624.695H527.004L535.865 604.027H538.887L530.013 624.695ZM554.68 627.171V624.721H568.975V627.171H554.68ZM568.975 627.171V624.721H583.27V627.171H568.975ZM602.084 604.027L610.958 624.695H607.937L599.075 604.027H602.084ZM630.674 604.027L639.548 624.695H636.526L627.665 604.027H630.674ZM640.449 627.171V624.721H654.744V627.171H640.449ZM654.744 627.171V624.721H669.039V627.171H654.744ZM672.962 624.695H669.953L678.814 604.027H681.836L672.962 624.695ZM701.552 624.695H698.543L707.404 604.027H710.426L701.552 624.695ZM726.219 627.171V624.721H740.514V627.171H726.219ZM740.514 627.171V624.721H754.809V627.171H740.514ZM773.623 604.027L782.497 624.695H779.476L770.614 604.027H773.623ZM802.213 604.027L811.087 624.695H808.065L799.204 604.027H802.213ZM811.988 627.171V624.721H826.283V627.171H811.988ZM826.283 627.171V624.721H840.578V627.171H826.283ZM844.501 624.695H841.492L850.354 604.027H853.375L844.501 624.695ZM873.091 624.695H870.082L878.943 604.027H881.965L873.091 624.695ZM897.758 627.171V624.721H912.053V627.171H897.758ZM912.053 627.171V624.721H926.348V627.171H912.053ZM945.162 604.027L954.036 624.695H951.015L942.153 604.027H945.162ZM973.752 604.027L982.626 624.695H979.604L970.743 604.027H973.752ZM983.527 627.171V624.721H997.822V627.171H983.527ZM1.10059 654.695H-1.9082L6.95312 634.027H9.97461L1.10059 654.695ZM29.6904 654.695H26.6816L35.543 634.027H38.5645L29.6904 654.695ZM73.1719 634.027L82.0459 654.695H79.0244L70.1631 634.027H73.1719ZM101.762 634.027L110.636 654.695H107.614L98.7529 634.027H101.762ZM111.537 657.171V654.721H125.832V657.171H111.537ZM125.832 657.171V654.721H140.127V657.171H125.832ZM140.127 657.171V654.721H154.422V657.171H140.127ZM154.422 657.171V654.721H168.717V657.171H154.422ZM172.64 654.695H169.631L178.492 634.027H181.514L172.64 654.695ZM201.229 654.695H198.221L207.082 634.027H210.104L201.229 654.695ZM244.711 634.027L253.585 654.695H250.563L241.702 634.027H244.711ZM273.301 634.027L282.175 654.695H279.153L270.292 634.027H273.301ZM283.076 657.171V654.721H297.371V657.171H283.076ZM297.371 657.171V654.721H311.666V657.171H297.371ZM311.666 657.171V654.721H325.961V657.171H311.666ZM325.961 657.171V654.721H340.256V657.171H325.961ZM344.179 654.695H341.17L350.031 634.027H353.053L344.179 654.695ZM372.769 654.695H369.76L378.621 634.027H381.643L372.769 654.695ZM416.25 634.027L425.124 654.695H422.103L413.241 634.027H416.25ZM444.84 634.027L453.714 654.695H450.692L441.831 634.027H444.84ZM454.615 657.171V654.721H468.91V657.171H454.615ZM468.91 657.171V654.721H483.205V657.171H468.91ZM483.205 657.171V654.721H497.5V657.171H483.205ZM497.5 657.171V654.721H511.795V657.171H497.5ZM515.718 654.695H512.709L521.57 634.027H524.592L515.718 654.695ZM544.308 654.695H541.299L550.16 634.027H553.182L544.308 654.695ZM587.789 634.027L596.663 654.695H593.642L584.78 634.027H587.789ZM616.379 634.027L625.253 654.695H622.231L613.37 634.027H616.379ZM626.154 657.171V654.721H640.449V657.171H626.154ZM640.449 657.171V654.721H654.744V657.171H640.449ZM654.744 657.171V654.721H669.039V657.171H654.744ZM669.039 657.171V654.721H683.334V657.171H669.039ZM687.257 654.695H684.248L693.109 634.027H696.131L687.257 654.695ZM715.847 654.695H712.838L721.699 634.027H724.721L715.847 654.695ZM759.328 634.027L768.202 654.695H765.181L756.319 634.027H759.328ZM787.918 634.027L796.792 654.695H793.771L784.909 634.027H787.918ZM797.693 657.171V654.721H811.988V657.171H797.693ZM811.988 657.171V654.721H826.283V657.171H811.988ZM826.283 657.171V654.721H840.578V657.171H826.283ZM840.578 657.171V654.721H854.873V657.171H840.578ZM858.796 654.695H855.787L864.648 634.027H867.67L858.796 654.695ZM887.386 654.695H884.377L893.238 634.027H896.26L887.386 654.695ZM930.867 634.027L939.741 654.695H936.72L927.858 634.027H930.867ZM959.457 634.027L968.331 654.695H965.31L956.448 634.027H959.457ZM969.232 657.171V654.721H983.527V657.171H969.232ZM983.527 657.171V654.721H997.822V657.171H983.527Z" fill="#EAEAEA"/>
</g>
</svg>
