<svg width="455" height="641" viewBox="0 0 455 641" fill="none" xmlns="http://www.w3.org/2000/svg">
<mask id="mask0" mask-type="alpha" maskUnits="userSpaceOnUse" x="0" y="0" width="455" height="641">
<rect x="0.178711" y="0.281616" width="454.63" height="640.579" fill="#C4C4C4"/>
</mask>
<g mask="url(#mask0)">
<path d="M41.6162 19.8951H39.5088L30.7998 -0.772827H32.9072L41.6162 19.8951ZM57.3584 22.3707H43.0635V20.5426H57.3584V22.3707ZM71.6533 22.3707H57.3584V20.5426H71.6533V22.3707ZM127.386 19.8951H125.278L116.569 -0.772827H118.677L127.386 19.8951ZM143.128 22.3707H128.833V20.5426H143.128V22.3707ZM157.423 22.3707H143.128V20.5426H157.423V22.3707ZM213.155 19.8951H211.048L202.339 -0.772827H204.446L213.155 19.8951ZM228.897 22.3707H214.603V20.5426H228.897V22.3707ZM243.192 22.3707H228.897V20.5426H243.192V22.3707ZM298.925 19.8951H296.817L288.108 -0.772827H290.216L298.925 19.8951ZM314.667 22.3707H300.372V20.5426H314.667V22.3707ZM328.962 22.3707H314.667V20.5426H328.962V22.3707ZM384.694 19.8951H382.587L373.878 -0.772827H375.985L384.694 19.8951ZM400.437 22.3707H386.142V20.5426H400.437V22.3707ZM414.731 22.3707H400.437V20.5426H414.731V22.3707ZM470.464 19.8951H468.356L459.647 -0.772827H461.755L470.464 19.8951ZM486.206 22.3707H471.911V20.5426H486.206V22.3707ZM500.501 22.3707H486.206V20.5426H500.501V22.3707ZM556.233 19.8951H554.126L545.417 -0.772827H547.524L556.233 19.8951ZM571.976 22.3707H557.681V20.5426H571.976V22.3707ZM586.271 22.3707H571.976V20.5426H586.271V22.3707ZM642.003 19.8951H639.896L631.187 -0.772827H633.294L642.003 19.8951ZM657.745 22.3707H643.45V20.5426H657.745V22.3707ZM672.04 22.3707H657.745V20.5426H672.04V22.3707ZM727.772 19.8951H725.665L716.956 -0.772827H719.063L727.772 19.8951ZM743.515 22.3707H729.22V20.5426H743.515V22.3707ZM757.81 22.3707H743.515V20.5426H757.81V22.3707ZM813.542 19.8951H811.435L802.726 -0.772827H804.833L813.542 19.8951ZM829.284 22.3707H814.989V20.5426H829.284V22.3707ZM843.579 22.3707H829.284V20.5426H843.579V22.3707ZM899.312 19.8951H897.204L888.495 -0.772827H890.603L899.312 19.8951ZM915.054 22.3707H900.759V20.5426H915.054V22.3707ZM929.349 22.3707H915.054V20.5426H929.349V22.3707ZM985.081 19.8951H982.974L974.265 -0.772827H976.372L985.081 19.8951ZM1000.82 22.3707H986.528V20.5426H1000.82V22.3707ZM14.4736 52.3707H0.178711V50.5426H14.4736V52.3707ZM28.7686 52.3707H14.4736V50.5426H28.7686V52.3707ZM41.0449 29.2272L32.3359 49.8951H30.2285L38.9375 29.2272H41.0449ZM84.501 49.8951H82.3936L73.6846 29.2272H75.792L84.501 49.8951ZM100.243 52.3707H85.9482V50.5426H100.243V52.3707ZM114.538 52.3707H100.243V50.5426H114.538V52.3707ZM126.814 29.2272L118.105 49.8951H115.998L124.707 29.2272H126.814ZM170.271 49.8951H168.163L159.454 29.2272H161.562L170.271 49.8951ZM186.013 52.3707H171.718V50.5426H186.013V52.3707ZM200.308 52.3707H186.013V50.5426H200.308V52.3707ZM212.584 29.2272L203.875 49.8951H201.768L210.477 29.2272H212.584ZM256.04 49.8951H253.933L245.224 29.2272H247.331L256.04 49.8951ZM271.782 52.3707H257.487V50.5426H271.782V52.3707ZM286.077 52.3707H271.782V50.5426H286.077V52.3707ZM298.354 29.2272L289.645 49.8951H287.537L296.246 29.2272H298.354ZM341.81 49.8951H339.702L330.993 29.2272H333.101L341.81 49.8951ZM357.552 52.3707H343.257V50.5426H357.552V52.3707ZM371.847 52.3707H357.552V50.5426H371.847V52.3707ZM384.123 29.2272L375.414 49.8951H373.307L382.016 29.2272H384.123ZM427.579 49.8951H425.472L416.763 29.2272H418.87L427.579 49.8951ZM443.321 52.3707H429.026V50.5426H443.321V52.3707ZM457.616 52.3707H443.321V50.5426H457.616V52.3707ZM469.893 29.2272L461.184 49.8951H459.076L467.785 29.2272H469.893ZM513.349 49.8951H511.241L502.532 29.2272H504.64L513.349 49.8951ZM529.091 52.3707H514.796V50.5426H529.091V52.3707ZM543.386 52.3707H529.091V50.5426H543.386V52.3707ZM555.662 29.2272L546.953 49.8951H544.846L553.555 29.2272H555.662ZM599.118 49.8951H597.011L588.302 29.2272H590.409L599.118 49.8951ZM614.86 52.3707H600.565V50.5426H614.86V52.3707ZM629.155 52.3707H614.86V50.5426H629.155V52.3707ZM641.432 29.2272L632.723 49.8951H630.615L639.324 29.2272H641.432ZM684.888 49.8951H682.78L674.071 29.2272H676.179L684.888 49.8951ZM700.63 52.3707H686.335V50.5426H700.63V52.3707ZM714.925 52.3707H700.63V50.5426H714.925V52.3707ZM727.201 29.2272L718.492 49.8951H716.385L725.094 29.2272H727.201ZM770.657 49.8951H768.55L759.841 29.2272H761.948L770.657 49.8951ZM786.399 52.3707H772.104V50.5426H786.399V52.3707ZM800.694 52.3707H786.399V50.5426H800.694V52.3707ZM812.971 29.2272L804.262 49.8951H802.154L810.863 29.2272H812.971ZM856.427 49.8951H854.319L845.61 29.2272H847.718L856.427 49.8951ZM872.169 52.3707H857.874V50.5426H872.169V52.3707ZM886.464 52.3707H872.169V50.5426H886.464V52.3707ZM898.74 29.2272L890.031 49.8951H887.924L896.633 29.2272H898.74ZM942.196 49.8951H940.089L931.38 29.2272H933.487L942.196 49.8951ZM957.938 52.3707H943.644V50.5426H957.938V52.3707ZM972.233 52.3707H957.938V50.5426H972.233V52.3707ZM984.51 29.2272L975.801 49.8951H973.693L982.402 29.2272H984.51ZM41.6162 79.8951H39.5088L30.7998 59.2272H32.9072L41.6162 79.8951ZM127.386 79.8951H125.278L116.569 59.2272H118.677L127.386 79.8951ZM213.155 79.8951H211.048L202.339 59.2272H204.446L213.155 79.8951ZM298.925 79.8951H296.817L288.108 59.2272H290.216L298.925 79.8951ZM384.694 79.8951H382.587L373.878 59.2272H375.985L384.694 79.8951ZM470.464 79.8951H468.356L459.647 59.2272H461.755L470.464 79.8951ZM556.233 79.8951H554.126L545.417 59.2272H547.524L556.233 79.8951ZM642.003 79.8951H639.896L631.187 59.2272H633.294L642.003 79.8951ZM727.772 79.8951H725.665L716.956 59.2272H719.063L727.772 79.8951ZM813.542 79.8951H811.435L802.726 59.2272H804.833L813.542 79.8951ZM899.312 79.8951H897.204L888.495 59.2272H890.603L899.312 79.8951ZM985.081 79.8951H982.974L974.265 59.2272H976.372L985.081 79.8951ZM14.4736 112.371H0.178711V110.543H14.4736V112.371ZM28.7686 112.371H14.4736V110.543H28.7686V112.371ZM41.0449 89.2272L32.3359 109.895H30.2285L38.9375 89.2272H41.0449ZM100.243 112.371H85.9482V110.543H100.243V112.371ZM114.538 112.371H100.243V110.543H114.538V112.371ZM126.814 89.2272L118.105 109.895H115.998L124.707 89.2272H126.814ZM186.013 112.371H171.718V110.543H186.013V112.371ZM200.308 112.371H186.013V110.543H200.308V112.371ZM212.584 89.2272L203.875 109.895H201.768L210.477 89.2272H212.584ZM271.782 112.371H257.487V110.543H271.782V112.371ZM286.077 112.371H271.782V110.543H286.077V112.371ZM298.354 89.2272L289.645 109.895H287.537L296.246 89.2272H298.354ZM357.552 112.371H343.257V110.543H357.552V112.371ZM371.847 112.371H357.552V110.543H371.847V112.371ZM384.123 89.2272L375.414 109.895H373.307L382.016 89.2272H384.123ZM443.321 112.371H429.026V110.543H443.321V112.371ZM457.616 112.371H443.321V110.543H457.616V112.371ZM469.893 89.2272L461.184 109.895H459.076L467.785 89.2272H469.893ZM529.091 112.371H514.796V110.543H529.091V112.371ZM543.386 112.371H529.091V110.543H543.386V112.371ZM555.662 89.2272L546.953 109.895H544.846L553.555 89.2272H555.662ZM614.86 112.371H600.565V110.543H614.86V112.371ZM629.155 112.371H614.86V110.543H629.155V112.371ZM641.432 89.2272L632.723 109.895H630.615L639.324 89.2272H641.432ZM700.63 112.371H686.335V110.543H700.63V112.371ZM714.925 112.371H700.63V110.543H714.925V112.371ZM727.201 89.2272L718.492 109.895H716.385L725.094 89.2272H727.201ZM786.399 112.371H772.104V110.543H786.399V112.371ZM800.694 112.371H786.399V110.543H800.694V112.371ZM812.971 89.2272L804.262 109.895H802.154L810.863 89.2272H812.971ZM872.169 112.371H857.874V110.543H872.169V112.371ZM886.464 112.371H872.169V110.543H886.464V112.371ZM898.74 89.2272L890.031 109.895H887.924L896.633 89.2272H898.74ZM957.938 112.371H943.644V110.543H957.938V112.371ZM972.233 112.371H957.938V110.543H972.233V112.371ZM984.51 89.2272L975.801 109.895H973.693L982.402 89.2272H984.51ZM41.6162 139.895H39.5088L30.7998 119.227H32.9072L41.6162 139.895ZM57.3584 142.371H43.0635V140.543H57.3584V142.371ZM71.6533 142.371H57.3584V140.543H71.6533V142.371ZM83.9297 119.227L75.2207 139.895H73.1133L81.8223 119.227H83.9297ZM127.386 139.895H125.278L116.569 119.227H118.677L127.386 139.895ZM143.128 142.371H128.833V140.543H143.128V142.371ZM157.423 142.371H143.128V140.543H157.423V142.371ZM169.699 119.227L160.99 139.895H158.883L167.592 119.227H169.699ZM213.155 139.895H211.048L202.339 119.227H204.446L213.155 139.895ZM228.897 142.371H214.603V140.543H228.897V142.371ZM243.192 142.371H228.897V140.543H243.192V142.371ZM255.469 119.227L246.76 139.895H244.652L253.361 119.227H255.469ZM298.925 139.895H296.817L288.108 119.227H290.216L298.925 139.895ZM314.667 142.371H300.372V140.543H314.667V142.371ZM328.962 142.371H314.667V140.543H328.962V142.371ZM341.238 119.227L332.529 139.895H330.422L339.131 119.227H341.238ZM384.694 139.895H382.587L373.878 119.227H375.985L384.694 139.895ZM400.437 142.371H386.142V140.543H400.437V142.371ZM414.731 142.371H400.437V140.543H414.731V142.371ZM427.008 119.227L418.299 139.895H416.191L424.9 119.227H427.008ZM470.464 139.895H468.356L459.647 119.227H461.755L470.464 139.895ZM486.206 142.371H471.911V140.543H486.206V142.371ZM500.501 142.371H486.206V140.543H500.501V142.371ZM512.777 119.227L504.068 139.895H501.961L510.67 119.227H512.777ZM556.233 139.895H554.126L545.417 119.227H547.524L556.233 139.895ZM571.976 142.371H557.681V140.543H571.976V142.371ZM586.271 142.371H571.976V140.543H586.271V142.371ZM598.547 119.227L589.838 139.895H587.73L596.439 119.227H598.547ZM642.003 139.895H639.896L631.187 119.227H633.294L642.003 139.895ZM657.745 142.371H643.45V140.543H657.745V142.371ZM672.04 142.371H657.745V140.543H672.04V142.371ZM684.316 119.227L675.607 139.895H673.5L682.209 119.227H684.316ZM727.772 139.895H725.665L716.956 119.227H719.063L727.772 139.895ZM743.515 142.371H729.22V140.543H743.515V142.371ZM757.81 142.371H743.515V140.543H757.81V142.371ZM770.086 119.227L761.377 139.895H759.27L767.979 119.227H770.086ZM813.542 139.895H811.435L802.726 119.227H804.833L813.542 139.895ZM829.284 142.371H814.989V140.543H829.284V142.371ZM843.579 142.371H829.284V140.543H843.579V142.371ZM855.855 119.227L847.146 139.895H845.039L853.748 119.227H855.855ZM899.312 139.895H897.204L888.495 119.227H890.603L899.312 139.895ZM915.054 142.371H900.759V140.543H915.054V142.371ZM929.349 142.371H915.054V140.543H929.349V142.371ZM941.625 119.227L932.916 139.895H930.809L939.518 119.227H941.625ZM985.081 139.895H982.974L974.265 119.227H976.372L985.081 139.895ZM1000.82 142.371H986.528V140.543H1000.82V142.371ZM14.4736 172.371H0.178711V170.543H14.4736V172.371ZM28.7686 172.371H14.4736V170.543H28.7686V172.371ZM41.0449 149.227L32.3359 169.895H30.2285L38.9375 149.227H41.0449ZM126.814 149.227L118.105 169.895H115.998L124.707 149.227H126.814ZM212.584 149.227L203.875 169.895H201.768L210.477 149.227H212.584ZM298.354 149.227L289.645 169.895H287.537L296.246 149.227H298.354ZM384.123 149.227L375.414 169.895H373.307L382.016 149.227H384.123ZM469.893 149.227L461.184 169.895H459.076L467.785 149.227H469.893ZM555.662 149.227L546.953 169.895H544.846L553.555 149.227H555.662ZM641.432 149.227L632.723 169.895H630.615L639.324 149.227H641.432ZM727.201 149.227L718.492 169.895H716.385L725.094 149.227H727.201ZM812.971 149.227L804.262 169.895H802.154L810.863 149.227H812.971ZM898.74 149.227L890.031 169.895H887.924L896.633 149.227H898.74ZM984.51 149.227L975.801 169.895H973.693L982.402 149.227H984.51ZM41.6162 199.895H39.5088L30.7998 179.227H32.9072L41.6162 199.895ZM57.3584 202.371H43.0635V200.543H57.3584V202.371ZM71.6533 202.371H57.3584V200.543H71.6533V202.371ZM127.386 199.895H125.278L116.569 179.227H118.677L127.386 199.895ZM143.128 202.371H128.833V200.543H143.128V202.371ZM157.423 202.371H143.128V200.543H157.423V202.371ZM213.155 199.895H211.048L202.339 179.227H204.446L213.155 199.895ZM228.897 202.371H214.603V200.543H228.897V202.371ZM243.192 202.371H228.897V200.543H243.192V202.371ZM298.925 199.895H296.817L288.108 179.227H290.216L298.925 199.895ZM314.667 202.371H300.372V200.543H314.667V202.371ZM328.962 202.371H314.667V200.543H328.962V202.371ZM384.694 199.895H382.587L373.878 179.227H375.985L384.694 199.895ZM400.437 202.371H386.142V200.543H400.437V202.371ZM414.731 202.371H400.437V200.543H414.731V202.371ZM470.464 199.895H468.356L459.647 179.227H461.755L470.464 199.895ZM486.206 202.371H471.911V200.543H486.206V202.371ZM500.501 202.371H486.206V200.543H500.501V202.371ZM556.233 199.895H554.126L545.417 179.227H547.524L556.233 199.895ZM571.976 202.371H557.681V200.543H571.976V202.371ZM586.271 202.371H571.976V200.543H586.271V202.371ZM642.003 199.895H639.896L631.187 179.227H633.294L642.003 199.895ZM657.745 202.371H643.45V200.543H657.745V202.371ZM672.04 202.371H657.745V200.543H672.04V202.371ZM727.772 199.895H725.665L716.956 179.227H719.063L727.772 199.895ZM743.515 202.371H729.22V200.543H743.515V202.371ZM757.81 202.371H743.515V200.543H757.81V202.371ZM813.542 199.895H811.435L802.726 179.227H804.833L813.542 199.895ZM829.284 202.371H814.989V200.543H829.284V202.371ZM843.579 202.371H829.284V200.543H843.579V202.371ZM899.312 199.895H897.204L888.495 179.227H890.603L899.312 199.895ZM915.054 202.371H900.759V200.543H915.054V202.371ZM929.349 202.371H915.054V200.543H929.349V202.371ZM985.081 199.895H982.974L974.265 179.227H976.372L985.081 199.895ZM1000.82 202.371H986.528V200.543H1000.82V202.371ZM14.4736 232.371H0.178711V230.543H14.4736V232.371ZM28.7686 232.371H14.4736V230.543H28.7686V232.371ZM41.0449 209.227L32.3359 229.895H30.2285L38.9375 209.227H41.0449ZM84.501 229.895H82.3936L73.6846 209.227H75.792L84.501 229.895ZM100.243 232.371H85.9482V230.543H100.243V232.371ZM114.538 232.371H100.243V230.543H114.538V232.371ZM126.814 209.227L118.105 229.895H115.998L124.707 209.227H126.814ZM170.271 229.895H168.163L159.454 209.227H161.562L170.271 229.895ZM186.013 232.371H171.718V230.543H186.013V232.371ZM200.308 232.371H186.013V230.543H200.308V232.371ZM212.584 209.227L203.875 229.895H201.768L210.477 209.227H212.584ZM256.04 229.895H253.933L245.224 209.227H247.331L256.04 229.895ZM271.782 232.371H257.487V230.543H271.782V232.371ZM286.077 232.371H271.782V230.543H286.077V232.371ZM298.354 209.227L289.645 229.895H287.537L296.246 209.227H298.354ZM341.81 229.895H339.702L330.993 209.227H333.101L341.81 229.895ZM357.552 232.371H343.257V230.543H357.552V232.371ZM371.847 232.371H357.552V230.543H371.847V232.371ZM384.123 209.227L375.414 229.895H373.307L382.016 209.227H384.123ZM427.579 229.895H425.472L416.763 209.227H418.87L427.579 229.895ZM443.321 232.371H429.026V230.543H443.321V232.371ZM457.616 232.371H443.321V230.543H457.616V232.371ZM469.893 209.227L461.184 229.895H459.076L467.785 209.227H469.893ZM513.349 229.895H511.241L502.532 209.227H504.64L513.349 229.895ZM529.091 232.371H514.796V230.543H529.091V232.371ZM543.386 232.371H529.091V230.543H543.386V232.371ZM555.662 209.227L546.953 229.895H544.846L553.555 209.227H555.662ZM599.118 229.895H597.011L588.302 209.227H590.409L599.118 229.895ZM614.86 232.371H600.565V230.543H614.86V232.371ZM629.155 232.371H614.86V230.543H629.155V232.371ZM641.432 209.227L632.723 229.895H630.615L639.324 209.227H641.432ZM684.888 229.895H682.78L674.071 209.227H676.179L684.888 229.895ZM700.63 232.371H686.335V230.543H700.63V232.371ZM714.925 232.371H700.63V230.543H714.925V232.371ZM727.201 209.227L718.492 229.895H716.385L725.094 209.227H727.201ZM770.657 229.895H768.55L759.841 209.227H761.948L770.657 229.895ZM786.399 232.371H772.104V230.543H786.399V232.371ZM800.694 232.371H786.399V230.543H800.694V232.371ZM812.971 209.227L804.262 229.895H802.154L810.863 209.227H812.971ZM856.427 229.895H854.319L845.61 209.227H847.718L856.427 229.895ZM872.169 232.371H857.874V230.543H872.169V232.371ZM886.464 232.371H872.169V230.543H886.464V232.371ZM898.74 209.227L890.031 229.895H887.924L896.633 209.227H898.74ZM942.196 229.895H940.089L931.38 209.227H933.487L942.196 229.895ZM957.938 232.371H943.644V230.543H957.938V232.371ZM972.233 232.371H957.938V230.543H972.233V232.371ZM984.51 209.227L975.801 229.895H973.693L982.402 209.227H984.51ZM41.6162 259.895H39.5088L30.7998 239.227H32.9072L41.6162 259.895ZM127.386 259.895H125.278L116.569 239.227H118.677L127.386 259.895ZM213.155 259.895H211.048L202.339 239.227H204.446L213.155 259.895ZM298.925 259.895H296.817L288.108 239.227H290.216L298.925 259.895ZM384.694 259.895H382.587L373.878 239.227H375.985L384.694 259.895ZM470.464 259.895H468.356L459.647 239.227H461.755L470.464 259.895ZM556.233 259.895H554.126L545.417 239.227H547.524L556.233 259.895ZM642.003 259.895H639.896L631.187 239.227H633.294L642.003 259.895ZM727.772 259.895H725.665L716.956 239.227H719.063L727.772 259.895ZM813.542 259.895H811.435L802.726 239.227H804.833L813.542 259.895ZM899.312 259.895H897.204L888.495 239.227H890.603L899.312 259.895ZM985.081 259.895H982.974L974.265 239.227H976.372L985.081 259.895ZM14.4736 292.371H0.178711V290.543H14.4736V292.371ZM28.7686 292.371H14.4736V290.543H28.7686V292.371ZM41.0449 269.227L32.3359 289.895H30.2285L38.9375 269.227H41.0449ZM100.243 292.371H85.9482V290.543H100.243V292.371ZM114.538 292.371H100.243V290.543H114.538V292.371ZM126.814 269.227L118.105 289.895H115.998L124.707 269.227H126.814ZM186.013 292.371H171.718V290.543H186.013V292.371ZM200.308 292.371H186.013V290.543H200.308V292.371ZM212.584 269.227L203.875 289.895H201.768L210.477 269.227H212.584ZM271.782 292.371H257.487V290.543H271.782V292.371ZM286.077 292.371H271.782V290.543H286.077V292.371ZM298.354 269.227L289.645 289.895H287.537L296.246 269.227H298.354ZM357.552 292.371H343.257V290.543H357.552V292.371ZM371.847 292.371H357.552V290.543H371.847V292.371ZM384.123 269.227L375.414 289.895H373.307L382.016 269.227H384.123ZM443.321 292.371H429.026V290.543H443.321V292.371ZM457.616 292.371H443.321V290.543H457.616V292.371ZM469.893 269.227L461.184 289.895H459.076L467.785 269.227H469.893ZM529.091 292.371H514.796V290.543H529.091V292.371ZM543.386 292.371H529.091V290.543H543.386V292.371ZM555.662 269.227L546.953 289.895H544.846L553.555 269.227H555.662ZM614.86 292.371H600.565V290.543H614.86V292.371ZM629.155 292.371H614.86V290.543H629.155V292.371ZM641.432 269.227L632.723 289.895H630.615L639.324 269.227H641.432ZM700.63 292.371H686.335V290.543H700.63V292.371ZM714.925 292.371H700.63V290.543H714.925V292.371ZM727.201 269.227L718.492 289.895H716.385L725.094 269.227H727.201ZM786.399 292.371H772.104V290.543H786.399V292.371ZM800.694 292.371H786.399V290.543H800.694V292.371ZM812.971 269.227L804.262 289.895H802.154L810.863 269.227H812.971ZM872.169 292.371H857.874V290.543H872.169V292.371ZM886.464 292.371H872.169V290.543H886.464V292.371ZM898.74 269.227L890.031 289.895H887.924L896.633 269.227H898.74ZM957.938 292.371H943.644V290.543H957.938V292.371ZM972.233 292.371H957.938V290.543H972.233V292.371ZM984.51 269.227L975.801 289.895H973.693L982.402 269.227H984.51ZM41.6162 319.895H39.5088L30.7998 299.227H32.9072L41.6162 319.895ZM57.3584 322.371H43.0635V320.543H57.3584V322.371ZM71.6533 322.371H57.3584V320.543H71.6533V322.371ZM83.9297 299.227L75.2207 319.895H73.1133L81.8223 299.227H83.9297ZM127.386 319.895H125.278L116.569 299.227H118.677L127.386 319.895ZM143.128 322.371H128.833V320.543H143.128V322.371ZM157.423 322.371H143.128V320.543H157.423V322.371ZM169.699 299.227L160.99 319.895H158.883L167.592 299.227H169.699ZM213.155 319.895H211.048L202.339 299.227H204.446L213.155 319.895ZM228.897 322.371H214.603V320.543H228.897V322.371ZM243.192 322.371H228.897V320.543H243.192V322.371ZM255.469 299.227L246.76 319.895H244.652L253.361 299.227H255.469ZM298.925 319.895H296.817L288.108 299.227H290.216L298.925 319.895ZM314.667 322.371H300.372V320.543H314.667V322.371ZM328.962 322.371H314.667V320.543H328.962V322.371ZM341.238 299.227L332.529 319.895H330.422L339.131 299.227H341.238ZM384.694 319.895H382.587L373.878 299.227H375.985L384.694 319.895ZM400.437 322.371H386.142V320.543H400.437V322.371ZM414.731 322.371H400.437V320.543H414.731V322.371ZM427.008 299.227L418.299 319.895H416.191L424.9 299.227H427.008ZM470.464 319.895H468.356L459.647 299.227H461.755L470.464 319.895ZM486.206 322.371H471.911V320.543H486.206V322.371ZM500.501 322.371H486.206V320.543H500.501V322.371ZM512.777 299.227L504.068 319.895H501.961L510.67 299.227H512.777ZM556.233 319.895H554.126L545.417 299.227H547.524L556.233 319.895ZM571.976 322.371H557.681V320.543H571.976V322.371ZM586.271 322.371H571.976V320.543H586.271V322.371ZM598.547 299.227L589.838 319.895H587.73L596.439 299.227H598.547ZM642.003 319.895H639.896L631.187 299.227H633.294L642.003 319.895ZM657.745 322.371H643.45V320.543H657.745V322.371ZM672.04 322.371H657.745V320.543H672.04V322.371ZM684.316 299.227L675.607 319.895H673.5L682.209 299.227H684.316ZM727.772 319.895H725.665L716.956 299.227H719.063L727.772 319.895ZM743.515 322.371H729.22V320.543H743.515V322.371ZM757.81 322.371H743.515V320.543H757.81V322.371ZM770.086 299.227L761.377 319.895H759.27L767.979 299.227H770.086ZM813.542 319.895H811.435L802.726 299.227H804.833L813.542 319.895ZM829.284 322.371H814.989V320.543H829.284V322.371ZM843.579 322.371H829.284V320.543H843.579V322.371ZM855.855 299.227L847.146 319.895H845.039L853.748 299.227H855.855ZM899.312 319.895H897.204L888.495 299.227H890.603L899.312 319.895ZM915.054 322.371H900.759V320.543H915.054V322.371ZM929.349 322.371H915.054V320.543H929.349V322.371ZM941.625 299.227L932.916 319.895H930.809L939.518 299.227H941.625ZM985.081 319.895H982.974L974.265 299.227H976.372L985.081 319.895ZM1000.82 322.371H986.528V320.543H1000.82V322.371ZM14.4736 352.371H0.178711V350.543H14.4736V352.371ZM28.7686 352.371H14.4736V350.543H28.7686V352.371ZM41.0449 329.227L32.3359 349.895H30.2285L38.9375 329.227H41.0449ZM126.814 329.227L118.105 349.895H115.998L124.707 329.227H126.814ZM212.584 329.227L203.875 349.895H201.768L210.477 329.227H212.584ZM298.354 329.227L289.645 349.895H287.537L296.246 329.227H298.354ZM384.123 329.227L375.414 349.895H373.307L382.016 329.227H384.123ZM469.893 329.227L461.184 349.895H459.076L467.785 329.227H469.893ZM555.662 329.227L546.953 349.895H544.846L553.555 329.227H555.662ZM641.432 329.227L632.723 349.895H630.615L639.324 329.227H641.432ZM727.201 329.227L718.492 349.895H716.385L725.094 329.227H727.201ZM812.971 329.227L804.262 349.895H802.154L810.863 329.227H812.971ZM898.74 329.227L890.031 349.895H887.924L896.633 329.227H898.74ZM984.51 329.227L975.801 349.895H973.693L982.402 329.227H984.51ZM41.6162 379.895H39.5088L30.7998 359.227H32.9072L41.6162 379.895ZM57.3584 382.371H43.0635V380.543H57.3584V382.371ZM71.6533 382.371H57.3584V380.543H71.6533V382.371ZM127.386 379.895H125.278L116.569 359.227H118.677L127.386 379.895ZM143.128 382.371H128.833V380.543H143.128V382.371ZM157.423 382.371H143.128V380.543H157.423V382.371ZM213.155 379.895H211.048L202.339 359.227H204.446L213.155 379.895ZM228.897 382.371H214.603V380.543H228.897V382.371ZM243.192 382.371H228.897V380.543H243.192V382.371ZM298.925 379.895H296.817L288.108 359.227H290.216L298.925 379.895ZM314.667 382.371H300.372V380.543H314.667V382.371ZM328.962 382.371H314.667V380.543H328.962V382.371ZM384.694 379.895H382.587L373.878 359.227H375.985L384.694 379.895ZM400.437 382.371H386.142V380.543H400.437V382.371ZM414.731 382.371H400.437V380.543H414.731V382.371ZM470.464 379.895H468.356L459.647 359.227H461.755L470.464 379.895ZM486.206 382.371H471.911V380.543H486.206V382.371ZM500.501 382.371H486.206V380.543H500.501V382.371ZM556.233 379.895H554.126L545.417 359.227H547.524L556.233 379.895ZM571.976 382.371H557.681V380.543H571.976V382.371ZM586.271 382.371H571.976V380.543H586.271V382.371ZM642.003 379.895H639.896L631.187 359.227H633.294L642.003 379.895ZM657.745 382.371H643.45V380.543H657.745V382.371ZM672.04 382.371H657.745V380.543H672.04V382.371ZM727.772 379.895H725.665L716.956 359.227H719.063L727.772 379.895ZM743.515 382.371H729.22V380.543H743.515V382.371ZM757.81 382.371H743.515V380.543H757.81V382.371ZM813.542 379.895H811.435L802.726 359.227H804.833L813.542 379.895ZM829.284 382.371H814.989V380.543H829.284V382.371ZM843.579 382.371H829.284V380.543H843.579V382.371ZM899.312 379.895H897.204L888.495 359.227H890.603L899.312 379.895ZM915.054 382.371H900.759V380.543H915.054V382.371ZM929.349 382.371H915.054V380.543H929.349V382.371ZM985.081 379.895H982.974L974.265 359.227H976.372L985.081 379.895ZM1000.82 382.371H986.528V380.543H1000.82V382.371ZM14.4736 412.371H0.178711V410.543H14.4736V412.371ZM28.7686 412.371H14.4736V410.543H28.7686V412.371ZM41.0449 389.227L32.3359 409.895H30.2285L38.9375 389.227H41.0449ZM84.501 409.895H82.3936L73.6846 389.227H75.792L84.501 409.895ZM100.243 412.371H85.9482V410.543H100.243V412.371ZM114.538 412.371H100.243V410.543H114.538V412.371ZM126.814 389.227L118.105 409.895H115.998L124.707 389.227H126.814ZM170.271 409.895H168.163L159.454 389.227H161.562L170.271 409.895ZM186.013 412.371H171.718V410.543H186.013V412.371ZM200.308 412.371H186.013V410.543H200.308V412.371ZM212.584 389.227L203.875 409.895H201.768L210.477 389.227H212.584ZM256.04 409.895H253.933L245.224 389.227H247.331L256.04 409.895ZM271.782 412.371H257.487V410.543H271.782V412.371ZM286.077 412.371H271.782V410.543H286.077V412.371ZM298.354 389.227L289.645 409.895H287.537L296.246 389.227H298.354ZM341.81 409.895H339.702L330.993 389.227H333.101L341.81 409.895ZM357.552 412.371H343.257V410.543H357.552V412.371ZM371.847 412.371H357.552V410.543H371.847V412.371ZM384.123 389.227L375.414 409.895H373.307L382.016 389.227H384.123ZM427.579 409.895H425.472L416.763 389.227H418.87L427.579 409.895ZM443.321 412.371H429.026V410.543H443.321V412.371ZM457.616 412.371H443.321V410.543H457.616V412.371ZM469.893 389.227L461.184 409.895H459.076L467.785 389.227H469.893ZM513.349 409.895H511.241L502.532 389.227H504.64L513.349 409.895ZM529.091 412.371H514.796V410.543H529.091V412.371ZM543.386 412.371H529.091V410.543H543.386V412.371ZM555.662 389.227L546.953 409.895H544.846L553.555 389.227H555.662ZM599.118 409.895H597.011L588.302 389.227H590.409L599.118 409.895ZM614.86 412.371H600.565V410.543H614.86V412.371ZM629.155 412.371H614.86V410.543H629.155V412.371ZM641.432 389.227L632.723 409.895H630.615L639.324 389.227H641.432ZM684.888 409.895H682.78L674.071 389.227H676.179L684.888 409.895ZM700.63 412.371H686.335V410.543H700.63V412.371ZM714.925 412.371H700.63V410.543H714.925V412.371ZM727.201 389.227L718.492 409.895H716.385L725.094 389.227H727.201ZM770.657 409.895H768.55L759.841 389.227H761.948L770.657 409.895ZM786.399 412.371H772.104V410.543H786.399V412.371ZM800.694 412.371H786.399V410.543H800.694V412.371ZM812.971 389.227L804.262 409.895H802.154L810.863 389.227H812.971ZM856.427 409.895H854.319L845.61 389.227H847.718L856.427 409.895ZM872.169 412.371H857.874V410.543H872.169V412.371ZM886.464 412.371H872.169V410.543H886.464V412.371ZM898.74 389.227L890.031 409.895H887.924L896.633 389.227H898.74ZM942.196 409.895H940.089L931.38 389.227H933.487L942.196 409.895ZM957.938 412.371H943.644V410.543H957.938V412.371ZM972.233 412.371H957.938V410.543H972.233V412.371ZM984.51 389.227L975.801 409.895H973.693L982.402 389.227H984.51ZM41.6162 439.895H39.5088L30.7998 419.227H32.9072L41.6162 439.895ZM127.386 439.895H125.278L116.569 419.227H118.677L127.386 439.895ZM213.155 439.895H211.048L202.339 419.227H204.446L213.155 439.895ZM298.925 439.895H296.817L288.108 419.227H290.216L298.925 439.895ZM384.694 439.895H382.587L373.878 419.227H375.985L384.694 439.895ZM470.464 439.895H468.356L459.647 419.227H461.755L470.464 439.895ZM556.233 439.895H554.126L545.417 419.227H547.524L556.233 439.895ZM642.003 439.895H639.896L631.187 419.227H633.294L642.003 439.895ZM727.772 439.895H725.665L716.956 419.227H719.063L727.772 439.895ZM813.542 439.895H811.435L802.726 419.227H804.833L813.542 439.895ZM899.312 439.895H897.204L888.495 419.227H890.603L899.312 439.895ZM985.081 439.895H982.974L974.265 419.227H976.372L985.081 439.895ZM14.4736 472.371H0.178711V470.543H14.4736V472.371ZM28.7686 472.371H14.4736V470.543H28.7686V472.371ZM41.0449 449.227L32.3359 469.895H30.2285L38.9375 449.227H41.0449ZM100.243 472.371H85.9482V470.543H100.243V472.371ZM114.538 472.371H100.243V470.543H114.538V472.371ZM126.814 449.227L118.105 469.895H115.998L124.707 449.227H126.814ZM186.013 472.371H171.718V470.543H186.013V472.371ZM200.308 472.371H186.013V470.543H200.308V472.371ZM212.584 449.227L203.875 469.895H201.768L210.477 449.227H212.584ZM271.782 472.371H257.487V470.543H271.782V472.371ZM286.077 472.371H271.782V470.543H286.077V472.371ZM298.354 449.227L289.645 469.895H287.537L296.246 449.227H298.354ZM357.552 472.371H343.257V470.543H357.552V472.371ZM371.847 472.371H357.552V470.543H371.847V472.371ZM384.123 449.227L375.414 469.895H373.307L382.016 449.227H384.123ZM443.321 472.371H429.026V470.543H443.321V472.371ZM457.616 472.371H443.321V470.543H457.616V472.371ZM469.893 449.227L461.184 469.895H459.076L467.785 449.227H469.893ZM529.091 472.371H514.796V470.543H529.091V472.371ZM543.386 472.371H529.091V470.543H543.386V472.371ZM555.662 449.227L546.953 469.895H544.846L553.555 449.227H555.662ZM614.86 472.371H600.565V470.543H614.86V472.371ZM629.155 472.371H614.86V470.543H629.155V472.371ZM641.432 449.227L632.723 469.895H630.615L639.324 449.227H641.432ZM700.63 472.371H686.335V470.543H700.63V472.371ZM714.925 472.371H700.63V470.543H714.925V472.371ZM727.201 449.227L718.492 469.895H716.385L725.094 449.227H727.201ZM786.399 472.371H772.104V470.543H786.399V472.371ZM800.694 472.371H786.399V470.543H800.694V472.371ZM812.971 449.227L804.262 469.895H802.154L810.863 449.227H812.971ZM872.169 472.371H857.874V470.543H872.169V472.371ZM886.464 472.371H872.169V470.543H886.464V472.371ZM898.74 449.227L890.031 469.895H887.924L896.633 449.227H898.74ZM957.938 472.371H943.644V470.543H957.938V472.371ZM972.233 472.371H957.938V470.543H972.233V472.371ZM984.51 449.227L975.801 469.895H973.693L982.402 449.227H984.51ZM41.6162 499.895H39.5088L30.7998 479.227H32.9072L41.6162 499.895ZM57.3584 502.371H43.0635V500.543H57.3584V502.371ZM71.6533 502.371H57.3584V500.543H71.6533V502.371ZM83.9297 479.227L75.2207 499.895H73.1133L81.8223 479.227H83.9297ZM127.386 499.895H125.278L116.569 479.227H118.677L127.386 499.895ZM143.128 502.371H128.833V500.543H143.128V502.371ZM157.423 502.371H143.128V500.543H157.423V502.371ZM169.699 479.227L160.99 499.895H158.883L167.592 479.227H169.699ZM213.155 499.895H211.048L202.339 479.227H204.446L213.155 499.895ZM228.897 502.371H214.603V500.543H228.897V502.371ZM243.192 502.371H228.897V500.543H243.192V502.371ZM255.469 479.227L246.76 499.895H244.652L253.361 479.227H255.469ZM298.925 499.895H296.817L288.108 479.227H290.216L298.925 499.895ZM314.667 502.371H300.372V500.543H314.667V502.371ZM328.962 502.371H314.667V500.543H328.962V502.371ZM341.238 479.227L332.529 499.895H330.422L339.131 479.227H341.238ZM384.694 499.895H382.587L373.878 479.227H375.985L384.694 499.895ZM400.437 502.371H386.142V500.543H400.437V502.371ZM414.731 502.371H400.437V500.543H414.731V502.371ZM427.008 479.227L418.299 499.895H416.191L424.9 479.227H427.008ZM470.464 499.895H468.356L459.647 479.227H461.755L470.464 499.895ZM486.206 502.371H471.911V500.543H486.206V502.371ZM500.501 502.371H486.206V500.543H500.501V502.371ZM512.777 479.227L504.068 499.895H501.961L510.67 479.227H512.777ZM556.233 499.895H554.126L545.417 479.227H547.524L556.233 499.895ZM571.976 502.371H557.681V500.543H571.976V502.371ZM586.271 502.371H571.976V500.543H586.271V502.371ZM598.547 479.227L589.838 499.895H587.73L596.439 479.227H598.547ZM642.003 499.895H639.896L631.187 479.227H633.294L642.003 499.895ZM657.745 502.371H643.45V500.543H657.745V502.371ZM672.04 502.371H657.745V500.543H672.04V502.371ZM684.316 479.227L675.607 499.895H673.5L682.209 479.227H684.316ZM727.772 499.895H725.665L716.956 479.227H719.063L727.772 499.895ZM743.515 502.371H729.22V500.543H743.515V502.371ZM757.81 502.371H743.515V500.543H757.81V502.371ZM770.086 479.227L761.377 499.895H759.27L767.979 479.227H770.086ZM813.542 499.895H811.435L802.726 479.227H804.833L813.542 499.895ZM829.284 502.371H814.989V500.543H829.284V502.371ZM843.579 502.371H829.284V500.543H843.579V502.371ZM855.855 479.227L847.146 499.895H845.039L853.748 479.227H855.855ZM899.312 499.895H897.204L888.495 479.227H890.603L899.312 499.895ZM915.054 502.371H900.759V500.543H915.054V502.371ZM929.349 502.371H915.054V500.543H929.349V502.371ZM941.625 479.227L932.916 499.895H930.809L939.518 479.227H941.625ZM985.081 499.895H982.974L974.265 479.227H976.372L985.081 499.895ZM1000.82 502.371H986.528V500.543H1000.82V502.371ZM14.4736 532.371H0.178711V530.543H14.4736V532.371ZM28.7686 532.371H14.4736V530.543H28.7686V532.371ZM41.0449 509.227L32.3359 529.895H30.2285L38.9375 509.227H41.0449ZM126.814 509.227L118.105 529.895H115.998L124.707 509.227H126.814ZM212.584 509.227L203.875 529.895H201.768L210.477 509.227H212.584ZM298.354 509.227L289.645 529.895H287.537L296.246 509.227H298.354ZM384.123 509.227L375.414 529.895H373.307L382.016 509.227H384.123ZM469.893 509.227L461.184 529.895H459.076L467.785 509.227H469.893ZM555.662 509.227L546.953 529.895H544.846L553.555 509.227H555.662ZM641.432 509.227L632.723 529.895H630.615L639.324 509.227H641.432ZM727.201 509.227L718.492 529.895H716.385L725.094 509.227H727.201ZM812.971 509.227L804.262 529.895H802.154L810.863 509.227H812.971ZM898.74 509.227L890.031 529.895H887.924L896.633 509.227H898.74ZM984.51 509.227L975.801 529.895H973.693L982.402 509.227H984.51ZM41.6162 559.895H39.5088L30.7998 539.227H32.9072L41.6162 559.895ZM57.3584 562.371H43.0635V560.543H57.3584V562.371ZM71.6533 562.371H57.3584V560.543H71.6533V562.371ZM127.386 559.895H125.278L116.569 539.227H118.677L127.386 559.895ZM143.128 562.371H128.833V560.543H143.128V562.371ZM157.423 562.371H143.128V560.543H157.423V562.371ZM213.155 559.895H211.048L202.339 539.227H204.446L213.155 559.895ZM228.897 562.371H214.603V560.543H228.897V562.371ZM243.192 562.371H228.897V560.543H243.192V562.371ZM298.925 559.895H296.817L288.108 539.227H290.216L298.925 559.895ZM314.667 562.371H300.372V560.543H314.667V562.371ZM328.962 562.371H314.667V560.543H328.962V562.371ZM384.694 559.895H382.587L373.878 539.227H375.985L384.694 559.895ZM400.437 562.371H386.142V560.543H400.437V562.371ZM414.731 562.371H400.437V560.543H414.731V562.371ZM470.464 559.895H468.356L459.647 539.227H461.755L470.464 559.895ZM486.206 562.371H471.911V560.543H486.206V562.371ZM500.501 562.371H486.206V560.543H500.501V562.371ZM556.233 559.895H554.126L545.417 539.227H547.524L556.233 559.895ZM571.976 562.371H557.681V560.543H571.976V562.371ZM586.271 562.371H571.976V560.543H586.271V562.371ZM642.003 559.895H639.896L631.187 539.227H633.294L642.003 559.895ZM657.745 562.371H643.45V560.543H657.745V562.371ZM672.04 562.371H657.745V560.543H672.04V562.371ZM727.772 559.895H725.665L716.956 539.227H719.063L727.772 559.895ZM743.515 562.371H729.22V560.543H743.515V562.371ZM757.81 562.371H743.515V560.543H757.81V562.371ZM813.542 559.895H811.435L802.726 539.227H804.833L813.542 559.895ZM829.284 562.371H814.989V560.543H829.284V562.371ZM843.579 562.371H829.284V560.543H843.579V562.371ZM899.312 559.895H897.204L888.495 539.227H890.603L899.312 559.895ZM915.054 562.371H900.759V560.543H915.054V562.371ZM929.349 562.371H915.054V560.543H929.349V562.371ZM985.081 559.895H982.974L974.265 539.227H976.372L985.081 559.895ZM1000.82 562.371H986.528V560.543H1000.82V562.371ZM14.4736 592.371H0.178711V590.543H14.4736V592.371ZM28.7686 592.371H14.4736V590.543H28.7686V592.371ZM41.0449 569.227L32.3359 589.895H30.2285L38.9375 569.227H41.0449ZM84.501 589.895H82.3936L73.6846 569.227H75.792L84.501 589.895ZM100.243 592.371H85.9482V590.543H100.243V592.371ZM114.538 592.371H100.243V590.543H114.538V592.371ZM126.814 569.227L118.105 589.895H115.998L124.707 569.227H126.814ZM170.271 589.895H168.163L159.454 569.227H161.562L170.271 589.895ZM186.013 592.371H171.718V590.543H186.013V592.371ZM200.308 592.371H186.013V590.543H200.308V592.371ZM212.584 569.227L203.875 589.895H201.768L210.477 569.227H212.584ZM256.04 589.895H253.933L245.224 569.227H247.331L256.04 589.895ZM271.782 592.371H257.487V590.543H271.782V592.371ZM286.077 592.371H271.782V590.543H286.077V592.371ZM298.354 569.227L289.645 589.895H287.537L296.246 569.227H298.354ZM341.81 589.895H339.702L330.993 569.227H333.101L341.81 589.895ZM357.552 592.371H343.257V590.543H357.552V592.371ZM371.847 592.371H357.552V590.543H371.847V592.371ZM384.123 569.227L375.414 589.895H373.307L382.016 569.227H384.123ZM427.579 589.895H425.472L416.763 569.227H418.87L427.579 589.895ZM443.321 592.371H429.026V590.543H443.321V592.371ZM457.616 592.371H443.321V590.543H457.616V592.371ZM469.893 569.227L461.184 589.895H459.076L467.785 569.227H469.893ZM513.349 589.895H511.241L502.532 569.227H504.64L513.349 589.895ZM529.091 592.371H514.796V590.543H529.091V592.371ZM543.386 592.371H529.091V590.543H543.386V592.371ZM555.662 569.227L546.953 589.895H544.846L553.555 569.227H555.662ZM599.118 589.895H597.011L588.302 569.227H590.409L599.118 589.895ZM614.86 592.371H600.565V590.543H614.86V592.371ZM629.155 592.371H614.86V590.543H629.155V592.371ZM641.432 569.227L632.723 589.895H630.615L639.324 569.227H641.432ZM684.888 589.895H682.78L674.071 569.227H676.179L684.888 589.895ZM700.63 592.371H686.335V590.543H700.63V592.371ZM714.925 592.371H700.63V590.543H714.925V592.371ZM727.201 569.227L718.492 589.895H716.385L725.094 569.227H727.201ZM770.657 589.895H768.55L759.841 569.227H761.948L770.657 589.895ZM786.399 592.371H772.104V590.543H786.399V592.371ZM800.694 592.371H786.399V590.543H800.694V592.371ZM812.971 569.227L804.262 589.895H802.154L810.863 569.227H812.971ZM856.427 589.895H854.319L845.61 569.227H847.718L856.427 589.895ZM872.169 592.371H857.874V590.543H872.169V592.371ZM886.464 592.371H872.169V590.543H886.464V592.371ZM898.74 569.227L890.031 589.895H887.924L896.633 569.227H898.74ZM942.196 589.895H940.089L931.38 569.227H933.487L942.196 589.895ZM957.938 592.371H943.644V590.543H957.938V592.371ZM972.233 592.371H957.938V590.543H972.233V592.371ZM984.51 569.227L975.801 589.895H973.693L982.402 569.227H984.51ZM41.6162 619.895H39.5088L30.7998 599.227H32.9072L41.6162 619.895ZM127.386 619.895H125.278L116.569 599.227H118.677L127.386 619.895ZM213.155 619.895H211.048L202.339 599.227H204.446L213.155 619.895ZM298.925 619.895H296.817L288.108 599.227H290.216L298.925 619.895ZM384.694 619.895H382.587L373.878 599.227H375.985L384.694 619.895ZM470.464 619.895H468.356L459.647 599.227H461.755L470.464 619.895ZM556.233 619.895H554.126L545.417 599.227H547.524L556.233 619.895ZM642.003 619.895H639.896L631.187 599.227H633.294L642.003 619.895ZM727.772 619.895H725.665L716.956 599.227H719.063L727.772 619.895ZM813.542 619.895H811.435L802.726 599.227H804.833L813.542 619.895ZM899.312 619.895H897.204L888.495 599.227H890.603L899.312 619.895ZM985.081 619.895H982.974L974.265 599.227H976.372L985.081 619.895ZM14.4736 652.371H0.178711V650.543H14.4736V652.371ZM28.7686 652.371H14.4736V650.543H28.7686V652.371ZM41.0449 629.227L32.3359 649.895H30.2285L38.9375 629.227H41.0449ZM100.243 652.371H85.9482V650.543H100.243V652.371ZM114.538 652.371H100.243V650.543H114.538V652.371ZM126.814 629.227L118.105 649.895H115.998L124.707 629.227H126.814ZM186.013 652.371H171.718V650.543H186.013V652.371ZM200.308 652.371H186.013V650.543H200.308V652.371ZM212.584 629.227L203.875 649.895H201.768L210.477 629.227H212.584ZM271.782 652.371H257.487V650.543H271.782V652.371ZM286.077 652.371H271.782V650.543H286.077V652.371ZM298.354 629.227L289.645 649.895H287.537L296.246 629.227H298.354ZM357.552 652.371H343.257V650.543H357.552V652.371ZM371.847 652.371H357.552V650.543H371.847V652.371ZM384.123 629.227L375.414 649.895H373.307L382.016 629.227H384.123ZM443.321 652.371H429.026V650.543H443.321V652.371ZM457.616 652.371H443.321V650.543H457.616V652.371ZM469.893 629.227L461.184 649.895H459.076L467.785 629.227H469.893ZM529.091 652.371H514.796V650.543H529.091V652.371ZM543.386 652.371H529.091V650.543H543.386V652.371ZM555.662 629.227L546.953 649.895H544.846L553.555 629.227H555.662ZM614.86 652.371H600.565V650.543H614.86V652.371ZM629.155 652.371H614.86V650.543H629.155V652.371ZM641.432 629.227L632.723 649.895H630.615L639.324 629.227H641.432ZM700.63 652.371H686.335V650.543H700.63V652.371ZM714.925 652.371H700.63V650.543H714.925V652.371ZM727.201 629.227L718.492 649.895H716.385L725.094 629.227H727.201ZM786.399 652.371H772.104V650.543H786.399V652.371ZM800.694 652.371H786.399V650.543H800.694V652.371ZM812.971 629.227L804.262 649.895H802.154L810.863 629.227H812.971ZM872.169 652.371H857.874V650.543H872.169V652.371ZM886.464 652.371H872.169V650.543H886.464V652.371ZM898.74 629.227L890.031 649.895H887.924L896.633 629.227H898.74ZM957.938 652.371H943.644V650.543H957.938V652.371ZM972.233 652.371H957.938V650.543H972.233V652.371ZM984.51 629.227L975.801 649.895H973.693L982.402 629.227H984.51ZM41.6162 679.895H39.5088L30.7998 659.227H32.9072L41.6162 679.895ZM57.3584 682.371H43.0635V680.543H57.3584V682.371ZM71.6533 682.371H57.3584V680.543H71.6533V682.371ZM83.9297 659.227L75.2207 679.895H73.1133L81.8223 659.227H83.9297ZM127.386 679.895H125.278L116.569 659.227H118.677L127.386 679.895ZM143.128 682.371H128.833V680.543H143.128V682.371ZM157.423 682.371H143.128V680.543H157.423V682.371ZM169.699 659.227L160.99 679.895H158.883L167.592 659.227H169.699ZM213.155 679.895H211.048L202.339 659.227H204.446L213.155 679.895ZM228.897 682.371H214.603V680.543H228.897V682.371ZM243.192 682.371H228.897V680.543H243.192V682.371ZM255.469 659.227L246.76 679.895H244.652L253.361 659.227H255.469ZM298.925 679.895H296.817L288.108 659.227H290.216L298.925 679.895ZM314.667 682.371H300.372V680.543H314.667V682.371ZM328.962 682.371H314.667V680.543H328.962V682.371ZM341.238 659.227L332.529 679.895H330.422L339.131 659.227H341.238ZM384.694 679.895H382.587L373.878 659.227H375.985L384.694 679.895ZM400.437 682.371H386.142V680.543H400.437V682.371ZM414.731 682.371H400.437V680.543H414.731V682.371ZM427.008 659.227L418.299 679.895H416.191L424.9 659.227H427.008ZM470.464 679.895H468.356L459.647 659.227H461.755L470.464 679.895ZM486.206 682.371H471.911V680.543H486.206V682.371ZM500.501 682.371H486.206V680.543H500.501V682.371ZM512.777 659.227L504.068 679.895H501.961L510.67 659.227H512.777ZM556.233 679.895H554.126L545.417 659.227H547.524L556.233 679.895ZM571.976 682.371H557.681V680.543H571.976V682.371ZM586.271 682.371H571.976V680.543H586.271V682.371ZM598.547 659.227L589.838 679.895H587.73L596.439 659.227H598.547ZM642.003 679.895H639.896L631.187 659.227H633.294L642.003 679.895ZM657.745 682.371H643.45V680.543H657.745V682.371ZM672.04 682.371H657.745V680.543H672.04V682.371ZM684.316 659.227L675.607 679.895H673.5L682.209 659.227H684.316ZM727.772 679.895H725.665L716.956 659.227H719.063L727.772 679.895ZM743.515 682.371H729.22V680.543H743.515V682.371ZM757.81 682.371H743.515V680.543H757.81V682.371ZM770.086 659.227L761.377 679.895H759.27L767.979 659.227H770.086ZM813.542 679.895H811.435L802.726 659.227H804.833L813.542 679.895ZM829.284 682.371H814.989V680.543H829.284V682.371ZM843.579 682.371H829.284V680.543H843.579V682.371ZM855.855 659.227L847.146 679.895H845.039L853.748 659.227H855.855ZM899.312 679.895H897.204L888.495 659.227H890.603L899.312 679.895ZM915.054 682.371H900.759V680.543H915.054V682.371ZM929.349 682.371H915.054V680.543H929.349V682.371ZM941.625 659.227L932.916 679.895H930.809L939.518 659.227H941.625ZM985.081 679.895H982.974L974.265 659.227H976.372L985.081 679.895ZM1000.82 682.371H986.528V680.543H1000.82V682.371Z" fill="#EAEAEA"/>
</g>
</svg>
