<svg width="229" height="478" viewBox="0 0 229 478" fill="none" xmlns="http://www.w3.org/2000/svg">
<mask id="mask0" mask-type="alpha" maskUnits="userSpaceOnUse" x="0" y="0" width="229" height="478">
<rect x="0.560059" y="0.204346" width="228" height="477" fill="#C4C4C4"/>
</mask>
<g mask="url(#mask0)">
<path d="M-18.5088 14.21H-19.9678L-25.9971 -0.0986328H-24.5381L-18.5088 14.21ZM-7.61035 15.9238H-17.5068V14.6582H-7.61035V15.9238ZM2.28613 15.9238H-7.61035V14.6582H2.28613V15.9238ZM10.7852 -0.0986328L4.75586 14.21H3.29688L9.32617 -0.0986328H10.7852ZM40.8701 14.21H39.4111L33.3818 -0.0986328H34.8408L40.8701 14.21ZM51.7686 15.9238H41.8721V14.6582H51.7686V15.9238ZM61.665 15.9238H51.7686V14.6582H61.665V15.9238ZM70.1641 -0.0986328L64.1348 14.21H62.6758L68.7051 -0.0986328H70.1641ZM100.249 14.21H98.79L92.7607 -0.0986328H94.2197L100.249 14.21ZM111.147 15.9238H101.251V14.6582H111.147V15.9238ZM121.044 15.9238H111.147V14.6582H121.044V15.9238ZM129.543 -0.0986328L123.514 14.21H122.055L128.084 -0.0986328H129.543ZM159.628 14.21H158.169L152.14 -0.0986328H153.599L159.628 14.21ZM170.526 15.9238H160.63V14.6582H170.526V15.9238ZM180.423 15.9238H170.526V14.6582H180.423V15.9238ZM188.922 -0.0986328L182.893 14.21H181.434L187.463 -0.0986328H188.922ZM219.007 14.21H217.548L211.519 -0.0986328H212.978L219.007 14.21ZM229.905 15.9238H220.009V14.6582H229.905V15.9238ZM-37.2998 36.9238H-47.1963V35.6582H-37.2998V36.9238ZM-27.4033 36.9238H-37.2998V35.6582H-27.4033V36.9238ZM-18.9043 20.9014L-24.9336 35.21H-26.3926L-20.3633 20.9014H-18.9043ZM11.1807 35.21H9.72168L3.69238 20.9014H5.15137L11.1807 35.21ZM22.0791 36.9238H12.1826V35.6582H22.0791V36.9238ZM31.9756 36.9238H22.0791V35.6582H31.9756V36.9238ZM40.4746 20.9014L34.4453 35.21H32.9863L39.0156 20.9014H40.4746ZM70.5596 35.21H69.1006L63.0713 20.9014H64.5303L70.5596 35.21ZM81.458 36.9238H71.5615V35.6582H81.458V36.9238ZM91.3545 36.9238H81.458V35.6582H91.3545V36.9238ZM99.8535 20.9014L93.8242 35.21H92.3652L98.3945 20.9014H99.8535ZM129.938 35.21H128.479L122.45 20.9014H123.909L129.938 35.21ZM140.837 36.9238H130.94V35.6582H140.837V36.9238ZM150.733 36.9238H140.837V35.6582H150.733V36.9238ZM159.232 20.9014L153.203 35.21H151.744L157.773 20.9014H159.232ZM189.317 35.21H187.858L181.829 20.9014H183.288L189.317 35.21ZM200.216 36.9238H190.319V35.6582H200.216V36.9238ZM210.112 36.9238H200.216V35.6582H210.112V36.9238ZM218.611 20.9014L212.582 35.21H211.123L217.152 20.9014H218.611ZM-18.5088 56.21H-19.9678L-25.9971 41.9014H-24.5381L-18.5088 56.21ZM-7.61035 57.9238H-17.5068V56.6582H-7.61035V57.9238ZM2.28613 57.9238H-7.61035V56.6582H2.28613V57.9238ZM10.7852 41.9014L4.75586 56.21H3.29688L9.32617 41.9014H10.7852ZM40.8701 56.21H39.4111L33.3818 41.9014H34.8408L40.8701 56.21ZM51.7686 57.9238H41.8721V56.6582H51.7686V57.9238ZM61.665 57.9238H51.7686V56.6582H61.665V57.9238ZM70.1641 41.9014L64.1348 56.21H62.6758L68.7051 41.9014H70.1641ZM100.249 56.21H98.79L92.7607 41.9014H94.2197L100.249 56.21ZM111.147 57.9238H101.251V56.6582H111.147V57.9238ZM121.044 57.9238H111.147V56.6582H121.044V57.9238ZM129.543 41.9014L123.514 56.21H122.055L128.084 41.9014H129.543ZM159.628 56.21H158.169L152.14 41.9014H153.599L159.628 56.21ZM170.526 57.9238H160.63V56.6582H170.526V57.9238ZM180.423 57.9238H170.526V56.6582H180.423V57.9238ZM188.922 41.9014L182.893 56.21H181.434L187.463 41.9014H188.922ZM219.007 56.21H217.548L211.519 41.9014H212.978L219.007 56.21ZM229.905 57.9238H220.009V56.6582H229.905V57.9238ZM-37.2998 78.9238H-47.1963V77.6582H-37.2998V78.9238ZM-27.4033 78.9238H-37.2998V77.6582H-27.4033V78.9238ZM-18.9043 62.9014L-24.9336 77.21H-26.3926L-20.3633 62.9014H-18.9043ZM11.1807 77.21H9.72168L3.69238 62.9014H5.15137L11.1807 77.21ZM22.0791 78.9238H12.1826V77.6582H22.0791V78.9238ZM31.9756 78.9238H22.0791V77.6582H31.9756V78.9238ZM40.4746 62.9014L34.4453 77.21H32.9863L39.0156 62.9014H40.4746ZM70.5596 77.21H69.1006L63.0713 62.9014H64.5303L70.5596 77.21ZM81.458 78.9238H71.5615V77.6582H81.458V78.9238ZM91.3545 78.9238H81.458V77.6582H91.3545V78.9238ZM99.8535 62.9014L93.8242 77.21H92.3652L98.3945 62.9014H99.8535ZM129.938 77.21H128.479L122.45 62.9014H123.909L129.938 77.21ZM140.837 78.9238H130.94V77.6582H140.837V78.9238ZM150.733 78.9238H140.837V77.6582H150.733V78.9238ZM159.232 62.9014L153.203 77.21H151.744L157.773 62.9014H159.232ZM189.317 77.21H187.858L181.829 62.9014H183.288L189.317 77.21ZM200.216 78.9238H190.319V77.6582H200.216V78.9238ZM210.112 78.9238H200.216V77.6582H210.112V78.9238ZM218.611 62.9014L212.582 77.21H211.123L217.152 62.9014H218.611ZM-18.5088 98.21H-19.9678L-25.9971 83.9014H-24.5381L-18.5088 98.21ZM-7.61035 99.9238H-17.5068V98.6582H-7.61035V99.9238ZM2.28613 99.9238H-7.61035V98.6582H2.28613V99.9238ZM10.7852 83.9014L4.75586 98.21H3.29688L9.32617 83.9014H10.7852ZM40.8701 98.21H39.4111L33.3818 83.9014H34.8408L40.8701 98.21ZM51.7686 99.9238H41.8721V98.6582H51.7686V99.9238ZM61.665 99.9238H51.7686V98.6582H61.665V99.9238ZM70.1641 83.9014L64.1348 98.21H62.6758L68.7051 83.9014H70.1641ZM100.249 98.21H98.79L92.7607 83.9014H94.2197L100.249 98.21ZM111.147 99.9238H101.251V98.6582H111.147V99.9238ZM121.044 99.9238H111.147V98.6582H121.044V99.9238ZM129.543 83.9014L123.514 98.21H122.055L128.084 83.9014H129.543ZM159.628 98.21H158.169L152.14 83.9014H153.599L159.628 98.21ZM170.526 99.9238H160.63V98.6582H170.526V99.9238ZM180.423 99.9238H170.526V98.6582H180.423V99.9238ZM188.922 83.9014L182.893 98.21H181.434L187.463 83.9014H188.922ZM219.007 98.21H217.548L211.519 83.9014H212.978L219.007 98.21ZM229.905 99.9238H220.009V98.6582H229.905V99.9238ZM-37.2998 120.924H-47.1963V119.658H-37.2998V120.924ZM-27.4033 120.924H-37.2998V119.658H-27.4033V120.924ZM-18.9043 104.901L-24.9336 119.21H-26.3926L-20.3633 104.901H-18.9043ZM11.1807 119.21H9.72168L3.69238 104.901H5.15137L11.1807 119.21ZM22.0791 120.924H12.1826V119.658H22.0791V120.924ZM31.9756 120.924H22.0791V119.658H31.9756V120.924ZM40.4746 104.901L34.4453 119.21H32.9863L39.0156 104.901H40.4746ZM70.5596 119.21H69.1006L63.0713 104.901H64.5303L70.5596 119.21ZM81.458 120.924H71.5615V119.658H81.458V120.924ZM91.3545 120.924H81.458V119.658H91.3545V120.924ZM99.8535 104.901L93.8242 119.21H92.3652L98.3945 104.901H99.8535ZM129.938 119.21H128.479L122.45 104.901H123.909L129.938 119.21ZM140.837 120.924H130.94V119.658H140.837V120.924ZM150.733 120.924H140.837V119.658H150.733V120.924ZM159.232 104.901L153.203 119.21H151.744L157.773 104.901H159.232ZM189.317 119.21H187.858L181.829 104.901H183.288L189.317 119.21ZM200.216 120.924H190.319V119.658H200.216V120.924ZM210.112 120.924H200.216V119.658H210.112V120.924ZM218.611 104.901L212.582 119.21H211.123L217.152 104.901H218.611ZM-18.5088 140.21H-19.9678L-25.9971 125.901H-24.5381L-18.5088 140.21ZM-7.61035 141.924H-17.5068V140.658H-7.61035V141.924ZM2.28613 141.924H-7.61035V140.658H2.28613V141.924ZM10.7852 125.901L4.75586 140.21H3.29688L9.32617 125.901H10.7852ZM40.8701 140.21H39.4111L33.3818 125.901H34.8408L40.8701 140.21ZM51.7686 141.924H41.8721V140.658H51.7686V141.924ZM61.665 141.924H51.7686V140.658H61.665V141.924ZM70.1641 125.901L64.1348 140.21H62.6758L68.7051 125.901H70.1641ZM100.249 140.21H98.79L92.7607 125.901H94.2197L100.249 140.21ZM111.147 141.924H101.251V140.658H111.147V141.924ZM121.044 141.924H111.147V140.658H121.044V141.924ZM129.543 125.901L123.514 140.21H122.055L128.084 125.901H129.543ZM159.628 140.21H158.169L152.14 125.901H153.599L159.628 140.21ZM170.526 141.924H160.63V140.658H170.526V141.924ZM180.423 141.924H170.526V140.658H180.423V141.924ZM188.922 125.901L182.893 140.21H181.434L187.463 125.901H188.922ZM219.007 140.21H217.548L211.519 125.901H212.978L219.007 140.21ZM229.905 141.924H220.009V140.658H229.905V141.924ZM-37.2998 162.924H-47.1963V161.658H-37.2998V162.924ZM-27.4033 162.924H-37.2998V161.658H-27.4033V162.924ZM-18.9043 146.901L-24.9336 161.21H-26.3926L-20.3633 146.901H-18.9043ZM11.1807 161.21H9.72168L3.69238 146.901H5.15137L11.1807 161.21ZM22.0791 162.924H12.1826V161.658H22.0791V162.924ZM31.9756 162.924H22.0791V161.658H31.9756V162.924ZM40.4746 146.901L34.4453 161.21H32.9863L39.0156 146.901H40.4746ZM70.5596 161.21H69.1006L63.0713 146.901H64.5303L70.5596 161.21ZM81.458 162.924H71.5615V161.658H81.458V162.924ZM91.3545 162.924H81.458V161.658H91.3545V162.924ZM99.8535 146.901L93.8242 161.21H92.3652L98.3945 146.901H99.8535ZM129.938 161.21H128.479L122.45 146.901H123.909L129.938 161.21ZM140.837 162.924H130.94V161.658H140.837V162.924ZM150.733 162.924H140.837V161.658H150.733V162.924ZM159.232 146.901L153.203 161.21H151.744L157.773 146.901H159.232ZM189.317 161.21H187.858L181.829 146.901H183.288L189.317 161.21ZM200.216 162.924H190.319V161.658H200.216V162.924ZM210.112 162.924H200.216V161.658H210.112V162.924ZM218.611 146.901L212.582 161.21H211.123L217.152 146.901H218.611ZM-18.5088 182.21H-19.9678L-25.9971 167.901H-24.5381L-18.5088 182.21ZM-7.61035 183.924H-17.5068V182.658H-7.61035V183.924ZM2.28613 183.924H-7.61035V182.658H2.28613V183.924ZM10.7852 167.901L4.75586 182.21H3.29688L9.32617 167.901H10.7852ZM40.8701 182.21H39.4111L33.3818 167.901H34.8408L40.8701 182.21ZM51.7686 183.924H41.8721V182.658H51.7686V183.924ZM61.665 183.924H51.7686V182.658H61.665V183.924ZM70.1641 167.901L64.1348 182.21H62.6758L68.7051 167.901H70.1641ZM100.249 182.21H98.79L92.7607 167.901H94.2197L100.249 182.21ZM111.147 183.924H101.251V182.658H111.147V183.924ZM121.044 183.924H111.147V182.658H121.044V183.924ZM129.543 167.901L123.514 182.21H122.055L128.084 167.901H129.543ZM159.628 182.21H158.169L152.14 167.901H153.599L159.628 182.21ZM170.526 183.924H160.63V182.658H170.526V183.924ZM180.423 183.924H170.526V182.658H180.423V183.924ZM188.922 167.901L182.893 182.21H181.434L187.463 167.901H188.922ZM219.007 182.21H217.548L211.519 167.901H212.978L219.007 182.21ZM229.905 183.924H220.009V182.658H229.905V183.924ZM-37.2998 204.924H-47.1963V203.658H-37.2998V204.924ZM-27.4033 204.924H-37.2998V203.658H-27.4033V204.924ZM-18.9043 188.901L-24.9336 203.21H-26.3926L-20.3633 188.901H-18.9043ZM11.1807 203.21H9.72168L3.69238 188.901H5.15137L11.1807 203.21ZM22.0791 204.924H12.1826V203.658H22.0791V204.924ZM31.9756 204.924H22.0791V203.658H31.9756V204.924ZM40.4746 188.901L34.4453 203.21H32.9863L39.0156 188.901H40.4746ZM70.5596 203.21H69.1006L63.0713 188.901H64.5303L70.5596 203.21ZM81.458 204.924H71.5615V203.658H81.458V204.924ZM91.3545 204.924H81.458V203.658H91.3545V204.924ZM99.8535 188.901L93.8242 203.21H92.3652L98.3945 188.901H99.8535ZM129.938 203.21H128.479L122.45 188.901H123.909L129.938 203.21ZM140.837 204.924H130.94V203.658H140.837V204.924ZM150.733 204.924H140.837V203.658H150.733V204.924ZM159.232 188.901L153.203 203.21H151.744L157.773 188.901H159.232ZM189.317 203.21H187.858L181.829 188.901H183.288L189.317 203.21ZM200.216 204.924H190.319V203.658H200.216V204.924ZM210.112 204.924H200.216V203.658H210.112V204.924ZM218.611 188.901L212.582 203.21H211.123L217.152 188.901H218.611ZM-18.5088 224.21H-19.9678L-25.9971 209.901H-24.5381L-18.5088 224.21ZM-7.61035 225.924H-17.5068V224.658H-7.61035V225.924ZM2.28613 225.924H-7.61035V224.658H2.28613V225.924ZM10.7852 209.901L4.75586 224.21H3.29688L9.32617 209.901H10.7852ZM40.8701 224.21H39.4111L33.3818 209.901H34.8408L40.8701 224.21ZM51.7686 225.924H41.8721V224.658H51.7686V225.924ZM61.665 225.924H51.7686V224.658H61.665V225.924ZM70.1641 209.901L64.1348 224.21H62.6758L68.7051 209.901H70.1641ZM100.249 224.21H98.79L92.7607 209.901H94.2197L100.249 224.21ZM111.147 225.924H101.251V224.658H111.147V225.924ZM121.044 225.924H111.147V224.658H121.044V225.924ZM129.543 209.901L123.514 224.21H122.055L128.084 209.901H129.543ZM159.628 224.21H158.169L152.14 209.901H153.599L159.628 224.21ZM170.526 225.924H160.63V224.658H170.526V225.924ZM180.423 225.924H170.526V224.658H180.423V225.924ZM188.922 209.901L182.893 224.21H181.434L187.463 209.901H188.922ZM219.007 224.21H217.548L211.519 209.901H212.978L219.007 224.21ZM229.905 225.924H220.009V224.658H229.905V225.924ZM-37.2998 246.924H-47.1963V245.658H-37.2998V246.924ZM-27.4033 246.924H-37.2998V245.658H-27.4033V246.924ZM-18.9043 230.901L-24.9336 245.21H-26.3926L-20.3633 230.901H-18.9043ZM11.1807 245.21H9.72168L3.69238 230.901H5.15137L11.1807 245.21ZM22.0791 246.924H12.1826V245.658H22.0791V246.924ZM31.9756 246.924H22.0791V245.658H31.9756V246.924ZM40.4746 230.901L34.4453 245.21H32.9863L39.0156 230.901H40.4746ZM70.5596 245.21H69.1006L63.0713 230.901H64.5303L70.5596 245.21ZM81.458 246.924H71.5615V245.658H81.458V246.924ZM91.3545 246.924H81.458V245.658H91.3545V246.924ZM99.8535 230.901L93.8242 245.21H92.3652L98.3945 230.901H99.8535ZM129.938 245.21H128.479L122.45 230.901H123.909L129.938 245.21ZM140.837 246.924H130.94V245.658H140.837V246.924ZM150.733 246.924H140.837V245.658H150.733V246.924ZM159.232 230.901L153.203 245.21H151.744L157.773 230.901H159.232ZM189.317 245.21H187.858L181.829 230.901H183.288L189.317 245.21ZM200.216 246.924H190.319V245.658H200.216V246.924ZM210.112 246.924H200.216V245.658H210.112V246.924ZM218.611 230.901L212.582 245.21H211.123L217.152 230.901H218.611ZM-18.5088 266.21H-19.9678L-25.9971 251.901H-24.5381L-18.5088 266.21ZM-7.61035 267.924H-17.5068V266.658H-7.61035V267.924ZM2.28613 267.924H-7.61035V266.658H2.28613V267.924ZM10.7852 251.901L4.75586 266.21H3.29688L9.32617 251.901H10.7852ZM40.8701 266.21H39.4111L33.3818 251.901H34.8408L40.8701 266.21ZM51.7686 267.924H41.8721V266.658H51.7686V267.924ZM61.665 267.924H51.7686V266.658H61.665V267.924ZM70.1641 251.901L64.1348 266.21H62.6758L68.7051 251.901H70.1641ZM100.249 266.21H98.79L92.7607 251.901H94.2197L100.249 266.21ZM111.147 267.924H101.251V266.658H111.147V267.924ZM121.044 267.924H111.147V266.658H121.044V267.924ZM129.543 251.901L123.514 266.21H122.055L128.084 251.901H129.543ZM159.628 266.21H158.169L152.14 251.901H153.599L159.628 266.21ZM170.526 267.924H160.63V266.658H170.526V267.924ZM180.423 267.924H170.526V266.658H180.423V267.924ZM188.922 251.901L182.893 266.21H181.434L187.463 251.901H188.922ZM219.007 266.21H217.548L211.519 251.901H212.978L219.007 266.21ZM229.905 267.924H220.009V266.658H229.905V267.924ZM-37.2998 288.924H-47.1963V287.658H-37.2998V288.924ZM-27.4033 288.924H-37.2998V287.658H-27.4033V288.924ZM-18.9043 272.901L-24.9336 287.21H-26.3926L-20.3633 272.901H-18.9043ZM11.1807 287.21H9.72168L3.69238 272.901H5.15137L11.1807 287.21ZM22.0791 288.924H12.1826V287.658H22.0791V288.924ZM31.9756 288.924H22.0791V287.658H31.9756V288.924ZM40.4746 272.901L34.4453 287.21H32.9863L39.0156 272.901H40.4746ZM70.5596 287.21H69.1006L63.0713 272.901H64.5303L70.5596 287.21ZM81.458 288.924H71.5615V287.658H81.458V288.924ZM91.3545 288.924H81.458V287.658H91.3545V288.924ZM99.8535 272.901L93.8242 287.21H92.3652L98.3945 272.901H99.8535ZM129.938 287.21H128.479L122.45 272.901H123.909L129.938 287.21ZM140.837 288.924H130.94V287.658H140.837V288.924ZM150.733 288.924H140.837V287.658H150.733V288.924ZM159.232 272.901L153.203 287.21H151.744L157.773 272.901H159.232ZM189.317 287.21H187.858L181.829 272.901H183.288L189.317 287.21ZM200.216 288.924H190.319V287.658H200.216V288.924ZM210.112 288.924H200.216V287.658H210.112V288.924ZM218.611 272.901L212.582 287.21H211.123L217.152 272.901H218.611ZM-18.5088 308.21H-19.9678L-25.9971 293.901H-24.5381L-18.5088 308.21ZM-7.61035 309.924H-17.5068V308.658H-7.61035V309.924ZM2.28613 309.924H-7.61035V308.658H2.28613V309.924ZM10.7852 293.901L4.75586 308.21H3.29688L9.32617 293.901H10.7852ZM40.8701 308.21H39.4111L33.3818 293.901H34.8408L40.8701 308.21ZM51.7686 309.924H41.8721V308.658H51.7686V309.924ZM61.665 309.924H51.7686V308.658H61.665V309.924ZM70.1641 293.901L64.1348 308.21H62.6758L68.7051 293.901H70.1641ZM100.249 308.21H98.79L92.7607 293.901H94.2197L100.249 308.21ZM111.147 309.924H101.251V308.658H111.147V309.924ZM121.044 309.924H111.147V308.658H121.044V309.924ZM129.543 293.901L123.514 308.21H122.055L128.084 293.901H129.543ZM159.628 308.21H158.169L152.14 293.901H153.599L159.628 308.21ZM170.526 309.924H160.63V308.658H170.526V309.924ZM180.423 309.924H170.526V308.658H180.423V309.924ZM188.922 293.901L182.893 308.21H181.434L187.463 293.901H188.922ZM219.007 308.21H217.548L211.519 293.901H212.978L219.007 308.21ZM229.905 309.924H220.009V308.658H229.905V309.924ZM-37.2998 330.924H-47.1963V329.658H-37.2998V330.924ZM-27.4033 330.924H-37.2998V329.658H-27.4033V330.924ZM-18.9043 314.901L-24.9336 329.21H-26.3926L-20.3633 314.901H-18.9043ZM11.1807 329.21H9.72168L3.69238 314.901H5.15137L11.1807 329.21ZM22.0791 330.924H12.1826V329.658H22.0791V330.924ZM31.9756 330.924H22.0791V329.658H31.9756V330.924ZM40.4746 314.901L34.4453 329.21H32.9863L39.0156 314.901H40.4746ZM70.5596 329.21H69.1006L63.0713 314.901H64.5303L70.5596 329.21ZM81.458 330.924H71.5615V329.658H81.458V330.924ZM91.3545 330.924H81.458V329.658H91.3545V330.924ZM99.8535 314.901L93.8242 329.21H92.3652L98.3945 314.901H99.8535ZM129.938 329.21H128.479L122.45 314.901H123.909L129.938 329.21ZM140.837 330.924H130.94V329.658H140.837V330.924ZM150.733 330.924H140.837V329.658H150.733V330.924ZM159.232 314.901L153.203 329.21H151.744L157.773 314.901H159.232ZM189.317 329.21H187.858L181.829 314.901H183.288L189.317 329.21ZM200.216 330.924H190.319V329.658H200.216V330.924ZM210.112 330.924H200.216V329.658H210.112V330.924ZM218.611 314.901L212.582 329.21H211.123L217.152 314.901H218.611ZM-18.5088 350.21H-19.9678L-25.9971 335.901H-24.5381L-18.5088 350.21ZM-7.61035 351.924H-17.5068V350.658H-7.61035V351.924ZM2.28613 351.924H-7.61035V350.658H2.28613V351.924ZM10.7852 335.901L4.75586 350.21H3.29688L9.32617 335.901H10.7852ZM40.8701 350.21H39.4111L33.3818 335.901H34.8408L40.8701 350.21ZM51.7686 351.924H41.8721V350.658H51.7686V351.924ZM61.665 351.924H51.7686V350.658H61.665V351.924ZM70.1641 335.901L64.1348 350.21H62.6758L68.7051 335.901H70.1641ZM100.249 350.21H98.79L92.7607 335.901H94.2197L100.249 350.21ZM111.147 351.924H101.251V350.658H111.147V351.924ZM121.044 351.924H111.147V350.658H121.044V351.924ZM129.543 335.901L123.514 350.21H122.055L128.084 335.901H129.543ZM159.628 350.21H158.169L152.14 335.901H153.599L159.628 350.21ZM170.526 351.924H160.63V350.658H170.526V351.924ZM180.423 351.924H170.526V350.658H180.423V351.924ZM188.922 335.901L182.893 350.21H181.434L187.463 335.901H188.922ZM219.007 350.21H217.548L211.519 335.901H212.978L219.007 350.21ZM229.905 351.924H220.009V350.658H229.905V351.924ZM-37.2998 372.924H-47.1963V371.658H-37.2998V372.924ZM-27.4033 372.924H-37.2998V371.658H-27.4033V372.924ZM-18.9043 356.901L-24.9336 371.21H-26.3926L-20.3633 356.901H-18.9043ZM11.1807 371.21H9.72168L3.69238 356.901H5.15137L11.1807 371.21ZM22.0791 372.924H12.1826V371.658H22.0791V372.924ZM31.9756 372.924H22.0791V371.658H31.9756V372.924ZM40.4746 356.901L34.4453 371.21H32.9863L39.0156 356.901H40.4746ZM70.5596 371.21H69.1006L63.0713 356.901H64.5303L70.5596 371.21ZM81.458 372.924H71.5615V371.658H81.458V372.924ZM91.3545 372.924H81.458V371.658H91.3545V372.924ZM99.8535 356.901L93.8242 371.21H92.3652L98.3945 356.901H99.8535ZM129.938 371.21H128.479L122.45 356.901H123.909L129.938 371.21ZM140.837 372.924H130.94V371.658H140.837V372.924ZM150.733 372.924H140.837V371.658H150.733V372.924ZM159.232 356.901L153.203 371.21H151.744L157.773 356.901H159.232ZM189.317 371.21H187.858L181.829 356.901H183.288L189.317 371.21ZM200.216 372.924H190.319V371.658H200.216V372.924ZM210.112 372.924H200.216V371.658H210.112V372.924ZM218.611 356.901L212.582 371.21H211.123L217.152 356.901H218.611ZM-18.5088 392.21H-19.9678L-25.9971 377.901H-24.5381L-18.5088 392.21ZM-7.61035 393.924H-17.5068V392.658H-7.61035V393.924ZM2.28613 393.924H-7.61035V392.658H2.28613V393.924ZM10.7852 377.901L4.75586 392.21H3.29688L9.32617 377.901H10.7852ZM40.8701 392.21H39.4111L33.3818 377.901H34.8408L40.8701 392.21ZM51.7686 393.924H41.8721V392.658H51.7686V393.924ZM61.665 393.924H51.7686V392.658H61.665V393.924ZM70.1641 377.901L64.1348 392.21H62.6758L68.7051 377.901H70.1641ZM100.249 392.21H98.79L92.7607 377.901H94.2197L100.249 392.21ZM111.147 393.924H101.251V392.658H111.147V393.924ZM121.044 393.924H111.147V392.658H121.044V393.924ZM129.543 377.901L123.514 392.21H122.055L128.084 377.901H129.543ZM159.628 392.21H158.169L152.14 377.901H153.599L159.628 392.21ZM170.526 393.924H160.63V392.658H170.526V393.924ZM180.423 393.924H170.526V392.658H180.423V393.924ZM188.922 377.901L182.893 392.21H181.434L187.463 377.901H188.922ZM219.007 392.21H217.548L211.519 377.901H212.978L219.007 392.21ZM229.905 393.924H220.009V392.658H229.905V393.924ZM-37.2998 414.924H-47.1963V413.658H-37.2998V414.924ZM-27.4033 414.924H-37.2998V413.658H-27.4033V414.924ZM-18.9043 398.901L-24.9336 413.21H-26.3926L-20.3633 398.901H-18.9043ZM11.1807 413.21H9.72168L3.69238 398.901H5.15137L11.1807 413.21ZM22.0791 414.924H12.1826V413.658H22.0791V414.924ZM31.9756 414.924H22.0791V413.658H31.9756V414.924ZM40.4746 398.901L34.4453 413.21H32.9863L39.0156 398.901H40.4746ZM70.5596 413.21H69.1006L63.0713 398.901H64.5303L70.5596 413.21ZM81.458 414.924H71.5615V413.658H81.458V414.924ZM91.3545 414.924H81.458V413.658H91.3545V414.924ZM99.8535 398.901L93.8242 413.21H92.3652L98.3945 398.901H99.8535ZM129.938 413.21H128.479L122.45 398.901H123.909L129.938 413.21ZM140.837 414.924H130.94V413.658H140.837V414.924ZM150.733 414.924H140.837V413.658H150.733V414.924ZM159.232 398.901L153.203 413.21H151.744L157.773 398.901H159.232ZM189.317 413.21H187.858L181.829 398.901H183.288L189.317 413.21ZM200.216 414.924H190.319V413.658H200.216V414.924ZM210.112 414.924H200.216V413.658H210.112V414.924ZM218.611 398.901L212.582 413.21H211.123L217.152 398.901H218.611ZM-18.5088 434.21H-19.9678L-25.9971 419.901H-24.5381L-18.5088 434.21ZM-7.61035 435.924H-17.5068V434.658H-7.61035V435.924ZM2.28613 435.924H-7.61035V434.658H2.28613V435.924ZM10.7852 419.901L4.75586 434.21H3.29688L9.32617 419.901H10.7852ZM40.8701 434.21H39.4111L33.3818 419.901H34.8408L40.8701 434.21ZM51.7686 435.924H41.8721V434.658H51.7686V435.924ZM61.665 435.924H51.7686V434.658H61.665V435.924ZM70.1641 419.901L64.1348 434.21H62.6758L68.7051 419.901H70.1641ZM100.249 434.21H98.79L92.7607 419.901H94.2197L100.249 434.21ZM111.147 435.924H101.251V434.658H111.147V435.924ZM121.044 435.924H111.147V434.658H121.044V435.924ZM129.543 419.901L123.514 434.21H122.055L128.084 419.901H129.543ZM159.628 434.21H158.169L152.14 419.901H153.599L159.628 434.21ZM170.526 435.924H160.63V434.658H170.526V435.924ZM180.423 435.924H170.526V434.658H180.423V435.924ZM188.922 419.901L182.893 434.21H181.434L187.463 419.901H188.922ZM219.007 434.21H217.548L211.519 419.901H212.978L219.007 434.21ZM229.905 435.924H220.009V434.658H229.905V435.924ZM-37.2998 456.924H-47.1963V455.658H-37.2998V456.924ZM-27.4033 456.924H-37.2998V455.658H-27.4033V456.924ZM-18.9043 440.901L-24.9336 455.21H-26.3926L-20.3633 440.901H-18.9043ZM11.1807 455.21H9.72168L3.69238 440.901H5.15137L11.1807 455.21ZM22.0791 456.924H12.1826V455.658H22.0791V456.924ZM31.9756 456.924H22.0791V455.658H31.9756V456.924ZM40.4746 440.901L34.4453 455.21H32.9863L39.0156 440.901H40.4746ZM70.5596 455.21H69.1006L63.0713 440.901H64.5303L70.5596 455.21ZM81.458 456.924H71.5615V455.658H81.458V456.924ZM91.3545 456.924H81.458V455.658H91.3545V456.924ZM99.8535 440.901L93.8242 455.21H92.3652L98.3945 440.901H99.8535ZM129.938 455.21H128.479L122.45 440.901H123.909L129.938 455.21ZM140.837 456.924H130.94V455.658H140.837V456.924ZM150.733 456.924H140.837V455.658H150.733V456.924ZM159.232 440.901L153.203 455.21H151.744L157.773 440.901H159.232ZM189.317 455.21H187.858L181.829 440.901H183.288L189.317 455.21ZM200.216 456.924H190.319V455.658H200.216V456.924ZM210.112 456.924H200.216V455.658H210.112V456.924ZM218.611 440.901L212.582 455.21H211.123L217.152 440.901H218.611ZM-18.5088 476.21H-19.9678L-25.9971 461.901H-24.5381L-18.5088 476.21ZM-7.61035 477.924H-17.5068V476.658H-7.61035V477.924ZM2.28613 477.924H-7.61035V476.658H2.28613V477.924ZM10.7852 461.901L4.75586 476.21H3.29688L9.32617 461.901H10.7852ZM40.8701 476.21H39.4111L33.3818 461.901H34.8408L40.8701 476.21ZM51.7686 477.924H41.8721V476.658H51.7686V477.924ZM61.665 477.924H51.7686V476.658H61.665V477.924ZM70.1641 461.901L64.1348 476.21H62.6758L68.7051 461.901H70.1641ZM100.249 476.21H98.79L92.7607 461.901H94.2197L100.249 476.21ZM111.147 477.924H101.251V476.658H111.147V477.924ZM121.044 477.924H111.147V476.658H121.044V477.924ZM129.543 461.901L123.514 476.21H122.055L128.084 461.901H129.543ZM159.628 476.21H158.169L152.14 461.901H153.599L159.628 476.21ZM170.526 477.924H160.63V476.658H170.526V477.924ZM180.423 477.924H170.526V476.658H180.423V477.924ZM188.922 461.901L182.893 476.21H181.434L187.463 461.901H188.922ZM219.007 476.21H217.548L211.519 461.901H212.978L219.007 476.21ZM229.905 477.924H220.009V476.658H229.905V477.924Z" fill="#EAEAEA"/>
</g>
</svg>
