<svg width="717" height="419" viewBox="0 0 717 419" fill="none" xmlns="http://www.w3.org/2000/svg">
<mask id="mask0" mask-type="alpha" maskUnits="userSpaceOnUse" x="0" y="0" width="717" height="419">
<rect x="0.766113" y="0.96582" width="715.243" height="417.135" fill="#C4C4C4"/>
</mask>
<g mask="url(#mask0)">
<path d="M4.68896 24.6953H1.68018L10.5415 4.02734H13.563L4.68896 24.6953ZM105.35 4.02734L114.224 24.6953H111.203L102.341 4.02734H105.35ZM115.125 27.1709V24.7207H129.42V27.1709H115.125ZM129.42 27.1709V24.7207H143.715V27.1709H129.42ZM143.715 27.1709V24.7207H158.01V27.1709H143.715ZM158.01 27.1709V24.7207H172.305V27.1709H158.01ZM176.228 24.6953H173.219L182.081 4.02734H185.102L176.228 24.6953ZM276.889 4.02734L285.763 24.6953H282.742L273.88 4.02734H276.889ZM286.665 27.1709V24.7207H300.959V27.1709H286.665ZM300.959 27.1709V24.7207H315.254V27.1709H300.959ZM315.254 27.1709V24.7207H329.549V27.1709H315.254ZM329.549 27.1709V24.7207H343.844V27.1709H329.549ZM347.767 24.6953H344.758L353.62 4.02734H356.641L347.767 24.6953ZM448.428 4.02734L457.302 24.6953H454.281L445.419 4.02734H448.428ZM458.204 27.1709V24.7207H472.499V27.1709H458.204ZM472.499 27.1709V24.7207H486.793V27.1709H472.499ZM486.793 27.1709V24.7207H501.088V27.1709H486.793ZM501.088 27.1709V24.7207H515.383V27.1709H501.088ZM519.306 24.6953H516.297L525.159 4.02734H528.18L519.306 24.6953ZM619.967 4.02734L628.841 24.6953H625.82L616.958 4.02734H619.967ZM629.743 27.1709V24.7207H644.038V27.1709H629.743ZM644.038 27.1709V24.7207H658.333V27.1709H644.038ZM658.333 27.1709V24.7207H672.627V27.1709H658.333ZM672.627 27.1709V24.7207H686.922V27.1709H672.627ZM690.845 24.6953H687.836L696.698 4.02734H699.719L690.845 24.6953ZM791.506 4.02734L800.38 24.6953H797.359L788.498 4.02734H791.506ZM801.282 27.1709V24.7207H815.577V27.1709H801.282ZM815.577 27.1709V24.7207H829.872V27.1709H815.577ZM829.872 27.1709V24.7207H844.167V27.1709H829.872ZM844.167 27.1709V24.7207H858.461V27.1709H844.167ZM862.384 24.6953H859.375L868.237 4.02734H871.258L862.384 24.6953ZM963.045 4.02734L971.919 24.6953H968.898L960.037 4.02734H963.045ZM972.821 27.1709V24.7207H987.116V27.1709H972.821ZM987.116 27.1709V24.7207H1001.41V27.1709H987.116ZM5.28564 34.0273L14.1597 54.6953H11.1382L2.27686 34.0273H5.28564ZM104.753 54.6953H101.745L110.606 34.0273H113.627L104.753 54.6953ZM176.825 34.0273L185.699 54.6953H182.677L173.816 34.0273H176.825ZM276.292 54.6953H273.284L282.145 34.0273H285.167L276.292 54.6953ZM348.364 34.0273L357.238 54.6953H354.216L345.355 34.0273H348.364ZM447.832 54.6953H444.823L453.684 34.0273H456.706L447.832 54.6953ZM519.903 34.0273L528.777 54.6953H525.755L516.894 34.0273H519.903ZM619.371 54.6953H616.362L625.223 34.0273H628.245L619.371 54.6953ZM691.442 34.0273L700.316 54.6953H697.294L688.433 34.0273H691.442ZM790.91 54.6953H787.901L796.762 34.0273H799.784L790.91 54.6953ZM862.981 34.0273L871.855 54.6953H868.833L859.972 34.0273H862.981ZM962.449 54.6953H959.44L968.301 34.0273H971.323L962.449 54.6953ZM19.5806 64.0273L28.4546 84.6953H25.4331L16.5718 64.0273H19.5806ZM29.356 87.1709V84.7207H43.6509V87.1709H29.356ZM43.6509 87.1709V84.7207H57.9458V87.1709H43.6509ZM57.9458 87.1709V84.7207H72.2407V87.1709H57.9458ZM72.2407 87.1709V84.7207H86.5356V87.1709H72.2407ZM90.4585 84.6953H87.4497L96.311 64.0273H99.3325L90.4585 84.6953ZM191.12 64.0273L199.994 84.6953H196.972L188.111 64.0273H191.12ZM200.895 87.1709V84.7207H215.19V87.1709H200.895ZM215.19 87.1709V84.7207H229.485V87.1709H215.19ZM229.485 87.1709V84.7207H243.78V87.1709H229.485ZM243.78 87.1709V84.7207H258.075V87.1709H243.78ZM261.998 84.6953H258.989L267.85 64.0273H270.872L261.998 84.6953ZM362.659 64.0273L371.533 84.6953H368.511L359.65 64.0273H362.659ZM372.434 87.1709V84.7207H386.729V87.1709H372.434ZM386.729 87.1709V84.7207H401.024V87.1709H386.729ZM401.024 87.1709V84.7207H415.319V87.1709H401.024ZM415.319 87.1709V84.7207H429.614V87.1709H415.319ZM433.537 84.6953H430.528L439.389 64.0273H442.411L433.537 84.6953ZM534.198 64.0273L543.072 84.6953H540.05L531.189 64.0273H534.198ZM543.973 87.1709V84.7207H558.268V87.1709H543.973ZM558.268 87.1709V84.7207H572.563V87.1709H558.268ZM572.563 87.1709V84.7207H586.858V87.1709H572.563ZM586.858 87.1709V84.7207H601.153V87.1709H586.858ZM605.076 84.6953H602.067L610.928 64.0273H613.95L605.076 84.6953ZM705.737 64.0273L714.611 84.6953H711.589L702.728 64.0273H705.737ZM715.512 87.1709V84.7207H729.807V87.1709H715.512ZM729.807 87.1709V84.7207H744.102V87.1709H729.807ZM744.102 87.1709V84.7207H758.397V87.1709H744.102ZM758.397 87.1709V84.7207H772.692V87.1709H758.397ZM776.615 84.6953H773.606L782.467 64.0273H785.489L776.615 84.6953ZM877.276 64.0273L886.15 84.6953H883.128L874.267 64.0273H877.276ZM887.051 87.1709V84.7207H901.346V87.1709H887.051ZM901.346 87.1709V84.7207H915.641V87.1709H901.346ZM915.641 87.1709V84.7207H929.936V87.1709H915.641ZM929.936 87.1709V84.7207H944.231V87.1709H929.936ZM948.154 84.6953H945.145L954.006 64.0273H957.028L948.154 84.6953ZM18.9839 114.695H15.9751L24.8364 94.0273H27.8579L18.9839 114.695ZM91.0552 94.0273L99.9292 114.695H96.9077L88.0464 94.0273H91.0552ZM190.523 114.695H187.514L196.375 94.0273H199.397L190.523 114.695ZM262.594 94.0273L271.468 114.695H268.447L259.585 94.0273H262.594ZM362.062 114.695H359.053L367.915 94.0273H370.936L362.062 114.695ZM434.133 94.0273L443.007 114.695H439.986L431.125 94.0273H434.133ZM533.601 114.695H530.592L539.454 94.0273H542.475L533.601 114.695ZM605.672 94.0273L614.546 114.695H611.525L602.664 94.0273H605.672ZM705.14 114.695H702.131L710.993 94.0273H714.014L705.14 114.695ZM777.211 94.0273L786.085 114.695H783.064L774.203 94.0273H777.211ZM876.679 114.695H873.67L882.532 94.0273H885.553L876.679 114.695ZM948.75 94.0273L957.625 114.695H954.603L945.742 94.0273H948.75ZM4.68896 144.695H1.68018L10.5415 124.027H13.563L4.68896 144.695ZM105.35 124.027L114.224 144.695H111.203L102.341 124.027H105.35ZM115.125 147.171V144.721H129.42V147.171H115.125ZM129.42 147.171V144.721H143.715V147.171H129.42ZM143.715 147.171V144.721H158.01V147.171H143.715ZM158.01 147.171V144.721H172.305V147.171H158.01ZM176.228 144.695H173.219L182.081 124.027H185.102L176.228 144.695ZM276.889 124.027L285.763 144.695H282.742L273.88 124.027H276.889ZM286.665 147.171V144.721H300.959V147.171H286.665ZM300.959 147.171V144.721H315.254V147.171H300.959ZM315.254 147.171V144.721H329.549V147.171H315.254ZM329.549 147.171V144.721H343.844V147.171H329.549ZM347.767 144.695H344.758L353.62 124.027H356.641L347.767 144.695ZM448.428 124.027L457.302 144.695H454.281L445.419 124.027H448.428ZM458.204 147.171V144.721H472.499V147.171H458.204ZM472.499 147.171V144.721H486.793V147.171H472.499ZM486.793 147.171V144.721H501.088V147.171H486.793ZM501.088 147.171V144.721H515.383V147.171H501.088ZM519.306 144.695H516.297L525.159 124.027H528.18L519.306 144.695ZM619.967 124.027L628.841 144.695H625.82L616.958 124.027H619.967ZM629.743 147.171V144.721H644.038V147.171H629.743ZM644.038 147.171V144.721H658.333V147.171H644.038ZM658.333 147.171V144.721H672.627V147.171H658.333ZM672.627 147.171V144.721H686.922V147.171H672.627ZM690.845 144.695H687.836L696.698 124.027H699.719L690.845 144.695ZM791.506 124.027L800.38 144.695H797.359L788.498 124.027H791.506ZM801.282 147.171V144.721H815.577V147.171H801.282ZM815.577 147.171V144.721H829.872V147.171H815.577ZM829.872 147.171V144.721H844.167V147.171H829.872ZM844.167 147.171V144.721H858.461V147.171H844.167ZM862.384 144.695H859.375L868.237 124.027H871.258L862.384 144.695ZM963.045 124.027L971.919 144.695H968.898L960.037 124.027H963.045ZM972.821 147.171V144.721H987.116V147.171H972.821ZM987.116 147.171V144.721H1001.41V147.171H987.116ZM5.28564 154.027L14.1597 174.695H11.1382L2.27686 154.027H5.28564ZM104.753 174.695H101.745L110.606 154.027H113.627L104.753 174.695ZM176.825 154.027L185.699 174.695H182.677L173.816 154.027H176.825ZM276.292 174.695H273.284L282.145 154.027H285.167L276.292 174.695ZM348.364 154.027L357.238 174.695H354.216L345.355 154.027H348.364ZM447.832 174.695H444.823L453.684 154.027H456.706L447.832 174.695ZM519.903 154.027L528.777 174.695H525.755L516.894 154.027H519.903ZM619.371 174.695H616.362L625.223 154.027H628.245L619.371 174.695ZM691.442 154.027L700.316 174.695H697.294L688.433 154.027H691.442ZM790.91 174.695H787.901L796.762 154.027H799.784L790.91 174.695ZM862.981 154.027L871.855 174.695H868.833L859.972 154.027H862.981ZM962.449 174.695H959.44L968.301 154.027H971.323L962.449 174.695ZM19.5806 184.027L28.4546 204.695H25.4331L16.5718 184.027H19.5806ZM29.356 207.171V204.721H43.6509V207.171H29.356ZM43.6509 207.171V204.721H57.9458V207.171H43.6509ZM57.9458 207.171V204.721H72.2407V207.171H57.9458ZM72.2407 207.171V204.721H86.5356V207.171H72.2407ZM90.4585 204.695H87.4497L96.311 184.027H99.3325L90.4585 204.695ZM191.12 184.027L199.994 204.695H196.972L188.111 184.027H191.12ZM200.895 207.171V204.721H215.19V207.171H200.895ZM215.19 207.171V204.721H229.485V207.171H215.19ZM229.485 207.171V204.721H243.78V207.171H229.485ZM243.78 207.171V204.721H258.075V207.171H243.78ZM261.998 204.695H258.989L267.85 184.027H270.872L261.998 204.695ZM362.659 184.027L371.533 204.695H368.511L359.65 184.027H362.659ZM372.434 207.171V204.721H386.729V207.171H372.434ZM386.729 207.171V204.721H401.024V207.171H386.729ZM401.024 207.171V204.721H415.319V207.171H401.024ZM415.319 207.171V204.721H429.614V207.171H415.319ZM433.537 204.695H430.528L439.389 184.027H442.411L433.537 204.695ZM534.198 184.027L543.072 204.695H540.05L531.189 184.027H534.198ZM543.973 207.171V204.721H558.268V207.171H543.973ZM558.268 207.171V204.721H572.563V207.171H558.268ZM572.563 207.171V204.721H586.858V207.171H572.563ZM586.858 207.171V204.721H601.153V207.171H586.858ZM605.076 204.695H602.067L610.928 184.027H613.95L605.076 204.695ZM705.737 184.027L714.611 204.695H711.589L702.728 184.027H705.737ZM715.512 207.171V204.721H729.807V207.171H715.512ZM729.807 207.171V204.721H744.102V207.171H729.807ZM744.102 207.171V204.721H758.397V207.171H744.102ZM758.397 207.171V204.721H772.692V207.171H758.397ZM776.615 204.695H773.606L782.467 184.027H785.489L776.615 204.695ZM877.276 184.027L886.15 204.695H883.128L874.267 184.027H877.276ZM887.051 207.171V204.721H901.346V207.171H887.051ZM901.346 207.171V204.721H915.641V207.171H901.346ZM915.641 207.171V204.721H929.936V207.171H915.641ZM929.936 207.171V204.721H944.231V207.171H929.936ZM948.154 204.695H945.145L954.006 184.027H957.028L948.154 204.695ZM18.9839 234.695H15.9751L24.8364 214.027H27.8579L18.9839 234.695ZM91.0552 214.027L99.9292 234.695H96.9077L88.0464 214.027H91.0552ZM190.523 234.695H187.514L196.375 214.027H199.397L190.523 234.695ZM262.594 214.027L271.468 234.695H268.447L259.585 214.027H262.594ZM362.062 234.695H359.053L367.915 214.027H370.936L362.062 234.695ZM434.133 214.027L443.007 234.695H439.986L431.125 214.027H434.133ZM533.601 234.695H530.592L539.454 214.027H542.475L533.601 234.695ZM605.672 214.027L614.546 234.695H611.525L602.664 214.027H605.672ZM705.14 234.695H702.131L710.993 214.027H714.014L705.14 234.695ZM777.211 214.027L786.085 234.695H783.064L774.203 214.027H777.211ZM876.679 234.695H873.67L882.532 214.027H885.553L876.679 234.695ZM948.75 214.027L957.625 234.695H954.603L945.742 214.027H948.75ZM4.68896 264.695H1.68018L10.5415 244.027H13.563L4.68896 264.695ZM105.35 244.027L114.224 264.695H111.203L102.341 244.027H105.35ZM115.125 267.171V264.721H129.42V267.171H115.125ZM129.42 267.171V264.721H143.715V267.171H129.42ZM143.715 267.171V264.721H158.01V267.171H143.715ZM158.01 267.171V264.721H172.305V267.171H158.01ZM176.228 264.695H173.219L182.081 244.027H185.102L176.228 264.695ZM276.889 244.027L285.763 264.695H282.742L273.88 244.027H276.889ZM286.665 267.171V264.721H300.959V267.171H286.665ZM300.959 267.171V264.721H315.254V267.171H300.959ZM315.254 267.171V264.721H329.549V267.171H315.254ZM329.549 267.171V264.721H343.844V267.171H329.549ZM347.767 264.695H344.758L353.62 244.027H356.641L347.767 264.695ZM448.428 244.027L457.302 264.695H454.281L445.419 244.027H448.428ZM458.204 267.171V264.721H472.499V267.171H458.204ZM472.499 267.171V264.721H486.793V267.171H472.499ZM486.793 267.171V264.721H501.088V267.171H486.793ZM501.088 267.171V264.721H515.383V267.171H501.088ZM519.306 264.695H516.297L525.159 244.027H528.18L519.306 264.695ZM619.967 244.027L628.841 264.695H625.82L616.958 244.027H619.967ZM629.743 267.171V264.721H644.038V267.171H629.743ZM644.038 267.171V264.721H658.333V267.171H644.038ZM658.333 267.171V264.721H672.627V267.171H658.333ZM672.627 267.171V264.721H686.922V267.171H672.627ZM690.845 264.695H687.836L696.698 244.027H699.719L690.845 264.695ZM791.506 244.027L800.38 264.695H797.359L788.498 244.027H791.506ZM801.282 267.171V264.721H815.577V267.171H801.282ZM815.577 267.171V264.721H829.872V267.171H815.577ZM829.872 267.171V264.721H844.167V267.171H829.872ZM844.167 267.171V264.721H858.461V267.171H844.167ZM862.384 264.695H859.375L868.237 244.027H871.258L862.384 264.695ZM963.045 244.027L971.919 264.695H968.898L960.037 244.027H963.045ZM972.821 267.171V264.721H987.116V267.171H972.821ZM987.116 267.171V264.721H1001.41V267.171H987.116ZM5.28564 274.027L14.1597 294.695H11.1382L2.27686 274.027H5.28564ZM104.753 294.695H101.745L110.606 274.027H113.627L104.753 294.695ZM176.825 274.027L185.699 294.695H182.677L173.816 274.027H176.825ZM276.292 294.695H273.284L282.145 274.027H285.167L276.292 294.695ZM348.364 274.027L357.238 294.695H354.216L345.355 274.027H348.364ZM447.832 294.695H444.823L453.684 274.027H456.706L447.832 294.695ZM519.903 274.027L528.777 294.695H525.755L516.894 274.027H519.903ZM619.371 294.695H616.362L625.223 274.027H628.245L619.371 294.695ZM691.442 274.027L700.316 294.695H697.294L688.433 274.027H691.442ZM790.91 294.695H787.901L796.762 274.027H799.784L790.91 294.695ZM862.981 274.027L871.855 294.695H868.833L859.972 274.027H862.981ZM962.449 294.695H959.44L968.301 274.027H971.323L962.449 294.695ZM19.5806 304.027L28.4546 324.695H25.4331L16.5718 304.027H19.5806ZM29.356 327.171V324.721H43.6509V327.171H29.356ZM43.6509 327.171V324.721H57.9458V327.171H43.6509ZM57.9458 327.171V324.721H72.2407V327.171H57.9458ZM72.2407 327.171V324.721H86.5356V327.171H72.2407ZM90.4585 324.695H87.4497L96.311 304.027H99.3325L90.4585 324.695ZM191.12 304.027L199.994 324.695H196.972L188.111 304.027H191.12ZM200.895 327.171V324.721H215.19V327.171H200.895ZM215.19 327.171V324.721H229.485V327.171H215.19ZM229.485 327.171V324.721H243.78V327.171H229.485ZM243.78 327.171V324.721H258.075V327.171H243.78ZM261.998 324.695H258.989L267.85 304.027H270.872L261.998 324.695ZM362.659 304.027L371.533 324.695H368.511L359.65 304.027H362.659ZM372.434 327.171V324.721H386.729V327.171H372.434ZM386.729 327.171V324.721H401.024V327.171H386.729ZM401.024 327.171V324.721H415.319V327.171H401.024ZM415.319 327.171V324.721H429.614V327.171H415.319ZM433.537 324.695H430.528L439.389 304.027H442.411L433.537 324.695ZM534.198 304.027L543.072 324.695H540.05L531.189 304.027H534.198ZM543.973 327.171V324.721H558.268V327.171H543.973ZM558.268 327.171V324.721H572.563V327.171H558.268ZM572.563 327.171V324.721H586.858V327.171H572.563ZM586.858 327.171V324.721H601.153V327.171H586.858ZM605.076 324.695H602.067L610.928 304.027H613.95L605.076 324.695ZM705.737 304.027L714.611 324.695H711.589L702.728 304.027H705.737ZM715.512 327.171V324.721H729.807V327.171H715.512ZM729.807 327.171V324.721H744.102V327.171H729.807ZM744.102 327.171V324.721H758.397V327.171H744.102ZM758.397 327.171V324.721H772.692V327.171H758.397ZM776.615 324.695H773.606L782.467 304.027H785.489L776.615 324.695ZM877.276 304.027L886.15 324.695H883.128L874.267 304.027H877.276ZM887.051 327.171V324.721H901.346V327.171H887.051ZM901.346 327.171V324.721H915.641V327.171H901.346ZM915.641 327.171V324.721H929.936V327.171H915.641ZM929.936 327.171V324.721H944.231V327.171H929.936ZM948.154 324.695H945.145L954.006 304.027H957.028L948.154 324.695ZM18.9839 354.695H15.9751L24.8364 334.027H27.8579L18.9839 354.695ZM91.0552 334.027L99.9292 354.695H96.9077L88.0464 334.027H91.0552ZM190.523 354.695H187.514L196.375 334.027H199.397L190.523 354.695ZM262.594 334.027L271.468 354.695H268.447L259.585 334.027H262.594ZM362.062 354.695H359.053L367.915 334.027H370.936L362.062 354.695ZM434.133 334.027L443.007 354.695H439.986L431.125 334.027H434.133ZM533.601 354.695H530.592L539.454 334.027H542.475L533.601 354.695ZM605.672 334.027L614.546 354.695H611.525L602.664 334.027H605.672ZM705.14 354.695H702.131L710.993 334.027H714.014L705.14 354.695ZM777.211 334.027L786.085 354.695H783.064L774.203 334.027H777.211ZM876.679 354.695H873.67L882.532 334.027H885.553L876.679 354.695ZM948.75 334.027L957.625 354.695H954.603L945.742 334.027H948.75ZM4.68896 384.695H1.68018L10.5415 364.027H13.563L4.68896 384.695ZM105.35 364.027L114.224 384.695H111.203L102.341 364.027H105.35ZM115.125 387.171V384.721H129.42V387.171H115.125ZM129.42 387.171V384.721H143.715V387.171H129.42ZM143.715 387.171V384.721H158.01V387.171H143.715ZM158.01 387.171V384.721H172.305V387.171H158.01ZM176.228 384.695H173.219L182.081 364.027H185.102L176.228 384.695ZM276.889 364.027L285.763 384.695H282.742L273.88 364.027H276.889ZM286.665 387.171V384.721H300.959V387.171H286.665ZM300.959 387.171V384.721H315.254V387.171H300.959ZM315.254 387.171V384.721H329.549V387.171H315.254ZM329.549 387.171V384.721H343.844V387.171H329.549ZM347.767 384.695H344.758L353.62 364.027H356.641L347.767 384.695ZM448.428 364.027L457.302 384.695H454.281L445.419 364.027H448.428ZM458.204 387.171V384.721H472.499V387.171H458.204ZM472.499 387.171V384.721H486.793V387.171H472.499ZM486.793 387.171V384.721H501.088V387.171H486.793ZM501.088 387.171V384.721H515.383V387.171H501.088ZM519.306 384.695H516.297L525.159 364.027H528.18L519.306 384.695ZM619.967 364.027L628.841 384.695H625.82L616.958 364.027H619.967ZM629.743 387.171V384.721H644.038V387.171H629.743ZM644.038 387.171V384.721H658.333V387.171H644.038ZM658.333 387.171V384.721H672.627V387.171H658.333ZM672.627 387.171V384.721H686.922V387.171H672.627ZM690.845 384.695H687.836L696.698 364.027H699.719L690.845 384.695ZM791.506 364.027L800.38 384.695H797.359L788.498 364.027H791.506ZM801.282 387.171V384.721H815.577V387.171H801.282ZM815.577 387.171V384.721H829.872V387.171H815.577ZM829.872 387.171V384.721H844.167V387.171H829.872ZM844.167 387.171V384.721H858.461V387.171H844.167ZM862.384 384.695H859.375L868.237 364.027H871.258L862.384 384.695ZM963.045 364.027L971.919 384.695H968.898L960.037 364.027H963.045ZM972.821 387.171V384.721H987.116V387.171H972.821ZM987.116 387.171V384.721H1001.41V387.171H987.116ZM5.28564 394.027L14.1597 414.695H11.1382L2.27686 394.027H5.28564ZM104.753 414.695H101.745L110.606 394.027H113.627L104.753 414.695ZM176.825 394.027L185.699 414.695H182.677L173.816 394.027H176.825ZM276.292 414.695H273.284L282.145 394.027H285.167L276.292 414.695ZM348.364 394.027L357.238 414.695H354.216L345.355 394.027H348.364ZM447.832 414.695H444.823L453.684 394.027H456.706L447.832 414.695ZM519.903 394.027L528.777 414.695H525.755L516.894 394.027H519.903ZM619.371 414.695H616.362L625.223 394.027H628.245L619.371 414.695ZM691.442 394.027L700.316 414.695H697.294L688.433 394.027H691.442ZM790.91 414.695H787.901L796.762 394.027H799.784L790.91 414.695ZM862.981 394.027L871.855 414.695H868.833L859.972 394.027H862.981ZM962.449 414.695H959.44L968.301 394.027H971.323L962.449 414.695ZM19.5806 424.027L28.4546 444.695H25.4331L16.5718 424.027H19.5806ZM29.356 447.171V444.721H43.6509V447.171H29.356ZM43.6509 447.171V444.721H57.9458V447.171H43.6509ZM57.9458 447.171V444.721H72.2407V447.171H57.9458ZM72.2407 447.171V444.721H86.5356V447.171H72.2407ZM90.4585 444.695H87.4497L96.311 424.027H99.3325L90.4585 444.695ZM191.12 424.027L199.994 444.695H196.972L188.111 424.027H191.12ZM200.895 447.171V444.721H215.19V447.171H200.895ZM215.19 447.171V444.721H229.485V447.171H215.19ZM229.485 447.171V444.721H243.78V447.171H229.485ZM243.78 447.171V444.721H258.075V447.171H243.78ZM261.998 444.695H258.989L267.85 424.027H270.872L261.998 444.695ZM362.659 424.027L371.533 444.695H368.511L359.65 424.027H362.659ZM372.434 447.171V444.721H386.729V447.171H372.434ZM386.729 447.171V444.721H401.024V447.171H386.729ZM401.024 447.171V444.721H415.319V447.171H401.024ZM415.319 447.171V444.721H429.614V447.171H415.319ZM433.537 444.695H430.528L439.389 424.027H442.411L433.537 444.695ZM534.198 424.027L543.072 444.695H540.05L531.189 424.027H534.198ZM543.973 447.171V444.721H558.268V447.171H543.973ZM558.268 447.171V444.721H572.563V447.171H558.268ZM572.563 447.171V444.721H586.858V447.171H572.563ZM586.858 447.171V444.721H601.153V447.171H586.858ZM605.076 444.695H602.067L610.928 424.027H613.95L605.076 444.695ZM705.737 424.027L714.611 444.695H711.589L702.728 424.027H705.737ZM715.512 447.171V444.721H729.807V447.171H715.512ZM729.807 447.171V444.721H744.102V447.171H729.807ZM744.102 447.171V444.721H758.397V447.171H744.102ZM758.397 447.171V444.721H772.692V447.171H758.397ZM776.615 444.695H773.606L782.467 424.027H785.489L776.615 444.695ZM877.276 424.027L886.15 444.695H883.128L874.267 424.027H877.276ZM887.051 447.171V444.721H901.346V447.171H887.051ZM901.346 447.171V444.721H915.641V447.171H901.346ZM915.641 447.171V444.721H929.936V447.171H915.641ZM929.936 447.171V444.721H944.231V447.171H929.936ZM948.154 444.695H945.145L954.006 424.027H957.028L948.154 444.695ZM18.9839 474.695H15.9751L24.8364 454.027H27.8579L18.9839 474.695ZM91.0552 454.027L99.9292 474.695H96.9077L88.0464 454.027H91.0552ZM190.523 474.695H187.514L196.375 454.027H199.397L190.523 474.695ZM262.594 454.027L271.468 474.695H268.447L259.585 454.027H262.594ZM362.062 474.695H359.053L367.915 454.027H370.936L362.062 474.695ZM434.133 454.027L443.007 474.695H439.986L431.125 454.027H434.133ZM533.601 474.695H530.592L539.454 454.027H542.475L533.601 474.695ZM605.672 454.027L614.546 474.695H611.525L602.664 454.027H605.672ZM705.14 474.695H702.131L710.993 454.027H714.014L705.14 474.695ZM777.211 454.027L786.085 474.695H783.064L774.203 454.027H777.211ZM876.679 474.695H873.67L882.532 454.027H885.553L876.679 474.695ZM948.75 454.027L957.625 474.695H954.603L945.742 454.027H948.75ZM4.68896 504.695H1.68018L10.5415 484.027H13.563L4.68896 504.695ZM105.35 484.027L114.224 504.695H111.203L102.341 484.027H105.35ZM115.125 507.171V504.721H129.42V507.171H115.125ZM129.42 507.171V504.721H143.715V507.171H129.42ZM143.715 507.171V504.721H158.01V507.171H143.715ZM158.01 507.171V504.721H172.305V507.171H158.01ZM176.228 504.695H173.219L182.081 484.027H185.102L176.228 504.695ZM276.889 484.027L285.763 504.695H282.742L273.88 484.027H276.889ZM286.665 507.171V504.721H300.959V507.171H286.665ZM300.959 507.171V504.721H315.254V507.171H300.959ZM315.254 507.171V504.721H329.549V507.171H315.254ZM329.549 507.171V504.721H343.844V507.171H329.549ZM347.767 504.695H344.758L353.62 484.027H356.641L347.767 504.695ZM448.428 484.027L457.302 504.695H454.281L445.419 484.027H448.428ZM458.204 507.171V504.721H472.499V507.171H458.204ZM472.499 507.171V504.721H486.793V507.171H472.499ZM486.793 507.171V504.721H501.088V507.171H486.793ZM501.088 507.171V504.721H515.383V507.171H501.088ZM519.306 504.695H516.297L525.159 484.027H528.18L519.306 504.695ZM619.967 484.027L628.841 504.695H625.82L616.958 484.027H619.967ZM629.743 507.171V504.721H644.038V507.171H629.743ZM644.038 507.171V504.721H658.333V507.171H644.038ZM658.333 507.171V504.721H672.627V507.171H658.333ZM672.627 507.171V504.721H686.922V507.171H672.627ZM690.845 504.695H687.836L696.698 484.027H699.719L690.845 504.695ZM791.506 484.027L800.38 504.695H797.359L788.498 484.027H791.506ZM801.282 507.171V504.721H815.577V507.171H801.282ZM815.577 507.171V504.721H829.872V507.171H815.577ZM829.872 507.171V504.721H844.167V507.171H829.872ZM844.167 507.171V504.721H858.461V507.171H844.167ZM862.384 504.695H859.375L868.237 484.027H871.258L862.384 504.695ZM963.045 484.027L971.919 504.695H968.898L960.037 484.027H963.045ZM972.821 507.171V504.721H987.116V507.171H972.821ZM987.116 507.171V504.721H1001.41V507.171H987.116ZM5.28564 514.027L14.1597 534.695H11.1382L2.27686 514.027H5.28564ZM104.753 534.695H101.745L110.606 514.027H113.627L104.753 534.695ZM176.825 514.027L185.699 534.695H182.677L173.816 514.027H176.825ZM276.292 534.695H273.284L282.145 514.027H285.167L276.292 534.695ZM348.364 514.027L357.238 534.695H354.216L345.355 514.027H348.364ZM447.832 534.695H444.823L453.684 514.027H456.706L447.832 534.695ZM519.903 514.027L528.777 534.695H525.755L516.894 514.027H519.903ZM619.371 534.695H616.362L625.223 514.027H628.245L619.371 534.695ZM691.442 514.027L700.316 534.695H697.294L688.433 514.027H691.442ZM790.91 534.695H787.901L796.762 514.027H799.784L790.91 534.695ZM862.981 514.027L871.855 534.695H868.833L859.972 514.027H862.981ZM962.449 534.695H959.44L968.301 514.027H971.323L962.449 534.695ZM19.5806 544.027L28.4546 564.695H25.4331L16.5718 544.027H19.5806ZM29.356 567.171V564.721H43.6509V567.171H29.356ZM43.6509 567.171V564.721H57.9458V567.171H43.6509ZM57.9458 567.171V564.721H72.2407V567.171H57.9458ZM72.2407 567.171V564.721H86.5356V567.171H72.2407ZM90.4585 564.695H87.4497L96.311 544.027H99.3325L90.4585 564.695ZM191.12 544.027L199.994 564.695H196.972L188.111 544.027H191.12ZM200.895 567.171V564.721H215.19V567.171H200.895ZM215.19 567.171V564.721H229.485V567.171H215.19ZM229.485 567.171V564.721H243.78V567.171H229.485ZM243.78 567.171V564.721H258.075V567.171H243.78ZM261.998 564.695H258.989L267.85 544.027H270.872L261.998 564.695ZM362.659 544.027L371.533 564.695H368.511L359.65 544.027H362.659ZM372.434 567.171V564.721H386.729V567.171H372.434ZM386.729 567.171V564.721H401.024V567.171H386.729ZM401.024 567.171V564.721H415.319V567.171H401.024ZM415.319 567.171V564.721H429.614V567.171H415.319ZM433.537 564.695H430.528L439.389 544.027H442.411L433.537 564.695ZM534.198 544.027L543.072 564.695H540.05L531.189 544.027H534.198ZM543.973 567.171V564.721H558.268V567.171H543.973ZM558.268 567.171V564.721H572.563V567.171H558.268ZM572.563 567.171V564.721H586.858V567.171H572.563ZM586.858 567.171V564.721H601.153V567.171H586.858ZM605.076 564.695H602.067L610.928 544.027H613.95L605.076 564.695ZM705.737 544.027L714.611 564.695H711.589L702.728 544.027H705.737ZM715.512 567.171V564.721H729.807V567.171H715.512ZM729.807 567.171V564.721H744.102V567.171H729.807ZM744.102 567.171V564.721H758.397V567.171H744.102ZM758.397 567.171V564.721H772.692V567.171H758.397ZM776.615 564.695H773.606L782.467 544.027H785.489L776.615 564.695ZM877.276 544.027L886.15 564.695H883.128L874.267 544.027H877.276ZM887.051 567.171V564.721H901.346V567.171H887.051ZM901.346 567.171V564.721H915.641V567.171H901.346ZM915.641 567.171V564.721H929.936V567.171H915.641ZM929.936 567.171V564.721H944.231V567.171H929.936ZM948.154 564.695H945.145L954.006 544.027H957.028L948.154 564.695ZM18.9839 594.695H15.9751L24.8364 574.027H27.8579L18.9839 594.695ZM91.0552 574.027L99.9292 594.695H96.9077L88.0464 574.027H91.0552ZM190.523 594.695H187.514L196.375 574.027H199.397L190.523 594.695ZM262.594 574.027L271.468 594.695H268.447L259.585 574.027H262.594ZM362.062 594.695H359.053L367.915 574.027H370.936L362.062 594.695ZM434.133 574.027L443.007 594.695H439.986L431.125 574.027H434.133ZM533.601 594.695H530.592L539.454 574.027H542.475L533.601 594.695ZM605.672 574.027L614.546 594.695H611.525L602.664 574.027H605.672ZM705.14 594.695H702.131L710.993 574.027H714.014L705.14 594.695ZM777.211 574.027L786.085 594.695H783.064L774.203 574.027H777.211ZM876.679 594.695H873.67L882.532 574.027H885.553L876.679 594.695ZM948.75 574.027L957.625 594.695H954.603L945.742 574.027H948.75ZM4.68896 624.695H1.68018L10.5415 604.027H13.563L4.68896 624.695ZM105.35 604.027L114.224 624.695H111.203L102.341 604.027H105.35ZM115.125 627.171V624.721H129.42V627.171H115.125ZM129.42 627.171V624.721H143.715V627.171H129.42ZM143.715 627.171V624.721H158.01V627.171H143.715ZM158.01 627.171V624.721H172.305V627.171H158.01ZM176.228 624.695H173.219L182.081 604.027H185.102L176.228 624.695ZM276.889 604.027L285.763 624.695H282.742L273.88 604.027H276.889ZM286.665 627.171V624.721H300.959V627.171H286.665ZM300.959 627.171V624.721H315.254V627.171H300.959ZM315.254 627.171V624.721H329.549V627.171H315.254ZM329.549 627.171V624.721H343.844V627.171H329.549ZM347.767 624.695H344.758L353.62 604.027H356.641L347.767 624.695ZM448.428 604.027L457.302 624.695H454.281L445.419 604.027H448.428ZM458.204 627.171V624.721H472.499V627.171H458.204ZM472.499 627.171V624.721H486.793V627.171H472.499ZM486.793 627.171V624.721H501.088V627.171H486.793ZM501.088 627.171V624.721H515.383V627.171H501.088ZM519.306 624.695H516.297L525.159 604.027H528.18L519.306 624.695ZM619.967 604.027L628.841 624.695H625.82L616.958 604.027H619.967ZM629.743 627.171V624.721H644.038V627.171H629.743ZM644.038 627.171V624.721H658.333V627.171H644.038ZM658.333 627.171V624.721H672.627V627.171H658.333ZM672.627 627.171V624.721H686.922V627.171H672.627ZM690.845 624.695H687.836L696.698 604.027H699.719L690.845 624.695ZM791.506 604.027L800.38 624.695H797.359L788.498 604.027H791.506ZM801.282 627.171V624.721H815.577V627.171H801.282ZM815.577 627.171V624.721H829.872V627.171H815.577ZM829.872 627.171V624.721H844.167V627.171H829.872ZM844.167 627.171V624.721H858.461V627.171H844.167ZM862.384 624.695H859.375L868.237 604.027H871.258L862.384 624.695ZM963.045 604.027L971.919 624.695H968.898L960.037 604.027H963.045ZM972.821 627.171V624.721H987.116V627.171H972.821ZM987.116 627.171V624.721H1001.41V627.171H987.116ZM5.28564 634.027L14.1597 654.695H11.1382L2.27686 634.027H5.28564ZM104.753 654.695H101.745L110.606 634.027H113.627L104.753 654.695ZM176.825 634.027L185.699 654.695H182.677L173.816 634.027H176.825ZM276.292 654.695H273.284L282.145 634.027H285.167L276.292 654.695ZM348.364 634.027L357.238 654.695H354.216L345.355 634.027H348.364ZM447.832 654.695H444.823L453.684 634.027H456.706L447.832 654.695ZM519.903 634.027L528.777 654.695H525.755L516.894 634.027H519.903ZM619.371 654.695H616.362L625.223 634.027H628.245L619.371 654.695ZM691.442 634.027L700.316 654.695H697.294L688.433 634.027H691.442ZM790.91 654.695H787.901L796.762 634.027H799.784L790.91 654.695ZM862.981 634.027L871.855 654.695H868.833L859.972 634.027H862.981ZM962.449 654.695H959.44L968.301 634.027H971.323L962.449 654.695ZM19.5806 664.027L28.4546 684.695H25.4331L16.5718 664.027H19.5806ZM29.356 687.171V684.721H43.6509V687.171H29.356ZM43.6509 687.171V684.721H57.9458V687.171H43.6509ZM57.9458 687.171V684.721H72.2407V687.171H57.9458ZM72.2407 687.171V684.721H86.5356V687.171H72.2407ZM90.4585 684.695H87.4497L96.311 664.027H99.3325L90.4585 684.695ZM191.12 664.027L199.994 684.695H196.972L188.111 664.027H191.12ZM200.895 687.171V684.721H215.19V687.171H200.895ZM215.19 687.171V684.721H229.485V687.171H215.19ZM229.485 687.171V684.721H243.78V687.171H229.485ZM243.78 687.171V684.721H258.075V687.171H243.78ZM261.998 684.695H258.989L267.85 664.027H270.872L261.998 684.695ZM362.659 664.027L371.533 684.695H368.511L359.65 664.027H362.659ZM372.434 687.171V684.721H386.729V687.171H372.434ZM386.729 687.171V684.721H401.024V687.171H386.729ZM401.024 687.171V684.721H415.319V687.171H401.024ZM415.319 687.171V684.721H429.614V687.171H415.319ZM433.537 684.695H430.528L439.389 664.027H442.411L433.537 684.695ZM534.198 664.027L543.072 684.695H540.05L531.189 664.027H534.198ZM543.973 687.171V684.721H558.268V687.171H543.973ZM558.268 687.171V684.721H572.563V687.171H558.268ZM572.563 687.171V684.721H586.858V687.171H572.563ZM586.858 687.171V684.721H601.153V687.171H586.858ZM605.076 684.695H602.067L610.928 664.027H613.95L605.076 684.695ZM705.737 664.027L714.611 684.695H711.589L702.728 664.027H705.737ZM715.512 687.171V684.721H729.807V687.171H715.512ZM729.807 687.171V684.721H744.102V687.171H729.807ZM744.102 687.171V684.721H758.397V687.171H744.102ZM758.397 687.171V684.721H772.692V687.171H758.397ZM776.615 684.695H773.606L782.467 664.027H785.489L776.615 684.695ZM877.276 664.027L886.15 684.695H883.128L874.267 664.027H877.276ZM887.051 687.171V684.721H901.346V687.171H887.051ZM901.346 687.171V684.721H915.641V687.171H901.346ZM915.641 687.171V684.721H929.936V687.171H915.641ZM929.936 687.171V684.721H944.231V687.171H929.936ZM948.154 684.695H945.145L954.006 664.027H957.028L948.154 684.695Z" fill="#EAEAEA"/>
</g>
</svg>
